F0ntUni.ufo
<glyph name="numbersign" format="1">
  <advance width="720"/>
  <unicode hex="0023"/>
  <outline>
    <contour>
      <point x="305" y="829" type="curve" smooth="yes"/>
      <point x="325" y="829"/>
      <point x="339" y="819"/>
      <point x="339" y="804" type="curve" smooth="yes"/>
      <point x="339" y="801" type="line"/>
      <point x="326" y="718"/>
      <point x="313" y="644"/>
      <point x="301" y="574" type="curve"/>
      <point x="365" y="573"/>
      <point x="427" y="573"/>
      <point x="492" y="573" type="curve"/>
      <point x="505" y="646"/>
      <point x="517" y="723"/>
      <point x="531" y="809" type="curve" smooth="yes"/>
      <point x="533" y="825"/>
      <point x="554" y="839"/>
      <point x="575" y="839" type="curve" smooth="yes"/>
      <point x="595" y="839"/>
      <point x="609" y="829"/>
      <point x="609" y="814" type="curve" smooth="yes"/>
      <point x="609" y="811" type="line"/>
      <point x="595" y="724"/>
      <point x="583" y="647"/>
      <point x="570" y="574" type="curve"/>
      <point x="666" y="574" type="line" smooth="yes"/>
      <point x="685" y="574"/>
      <point x="699" y="563"/>
      <point x="699" y="549" type="curve" smooth="yes"/>
      <point x="699" y="545" type="line" smooth="yes"/>
      <point x="696" y="529"/>
      <point x="675" y="516"/>
      <point x="654" y="516" type="curve" smooth="yes"/>
      <point x="559" y="516" type="line"/>
      <point x="546" y="441"/>
      <point x="532" y="369"/>
      <point x="517" y="294" type="curve"/>
      <point x="626" y="294" type="line" smooth="yes"/>
      <point x="645" y="294"/>
      <point x="659" y="283"/>
      <point x="659" y="269" type="curve" smooth="yes"/>
      <point x="659" y="265" type="line" smooth="yes"/>
      <point x="656" y="249"/>
      <point x="635" y="236"/>
      <point x="614" y="236" type="curve" smooth="yes"/>
      <point x="506" y="236" type="line"/>
      <point x="492" y="166"/>
      <point x="476" y="92"/>
      <point x="459" y="10" type="curve" smooth="yes"/>
      <point x="456" y="-6"/>
      <point x="435" y="-19"/>
      <point x="414" y="-19" type="curve" smooth="yes"/>
      <point x="395" y="-19"/>
      <point x="381" y="-8"/>
      <point x="381" y="6" type="curve" smooth="yes"/>
      <point x="381" y="10" type="line"/>
      <point x="398" y="92"/>
      <point x="414" y="166"/>
      <point x="428" y="235" type="curve"/>
      <point x="363" y="235"/>
      <point x="303" y="235"/>
      <point x="238" y="236" type="curve"/>
      <point x="223" y="163"/>
      <point x="207" y="87"/>
      <point x="189" y="0" type="curve" smooth="yes"/>
      <point x="186" y="-16"/>
      <point x="165" y="-29"/>
      <point x="144" y="-29" type="curve" smooth="yes"/>
      <point x="125" y="-29"/>
      <point x="111" y="-18"/>
      <point x="111" y="-4" type="curve" smooth="yes"/>
      <point x="111" y="0" type="line"/>
      <point x="129" y="87"/>
      <point x="145" y="165"/>
      <point x="160" y="238" type="curve"/>
      <point x="126" y="239"/>
      <point x="91" y="240"/>
      <point x="52" y="241" type="curve" smooth="yes"/>
      <point x="33" y="242"/>
      <point x="20" y="253"/>
      <point x="20" y="266" type="curve" smooth="yes"/>
      <point x="20" y="268"/>
      <point x="21" y="269"/>
      <point x="21" y="271" type="curve" smooth="yes"/>
      <point x="25" y="286"/>
      <point x="46" y="299"/>
      <point x="66" y="299" type="curve" smooth="yes"/>
      <point x="68" y="299" type="line" smooth="yes"/>
      <point x="105" y="298"/>
      <point x="139" y="297"/>
      <point x="172" y="296" type="curve"/>
      <point x="187" y="371"/>
      <point x="201" y="443"/>
      <point x="214" y="518" type="curve"/>
      <point x="176" y="519"/>
      <point x="136" y="520"/>
      <point x="92" y="521" type="curve" smooth="yes"/>
      <point x="73" y="522"/>
      <point x="60" y="533"/>
      <point x="60" y="546" type="curve" smooth="yes"/>
      <point x="60" y="548"/>
      <point x="61" y="549"/>
      <point x="61" y="551" type="curve" smooth="yes"/>
      <point x="65" y="566"/>
      <point x="86" y="579"/>
      <point x="106" y="579" type="curve" smooth="yes"/>
      <point x="108" y="579" type="line" smooth="yes"/>
      <point x="150" y="578"/>
      <point x="188" y="577"/>
      <point x="224" y="576" type="curve"/>
      <point x="236" y="645"/>
      <point x="248" y="718"/>
      <point x="261" y="799" type="curve" smooth="yes"/>
      <point x="263" y="815"/>
      <point x="284" y="829"/>
    </contour>
    <contour>
      <point x="291" y="516" type="curve"/>
      <point x="278" y="441"/>
      <point x="265" y="370"/>
      <point x="250" y="295" type="curve"/>
      <point x="315" y="294"/>
      <point x="374" y="293"/>
      <point x="439" y="293" type="curve"/>
      <point x="454" y="368"/>
      <point x="469" y="440"/>
      <point x="482" y="515" type="curve"/>
      <point x="417" y="515"/>
      <point x="355" y="515"/>
    </contour>
    <contour>
      <point x="305" y="819" type="curve" smooth="yes"/>
      <point x="287.149" y="819"/>
      <point x="272.01" y="806.454"/>
      <point x="270.901" y="797.587" type="curve"/>
      <point x="257.834" y="716.171"/>
      <point x="245.882" y="643.46"/>
      <point x="233.852" y="574.287" type="curve" smooth="yes"/>
      <point x="232.37" y="565.764" type="line"/>
      <point x="223.722" y="566.004" type="line" smooth="yes"/>
      <point x="187.822" y="567.001"/>
      <point x="149.581" y="568.007"/>
      <point x="107.881" y="569" type="curve"/>
      <point x="106" y="569" type="line" smooth="yes"/>
      <point x="89.9902" y="569"/>
      <point x="73.8185" y="557.714"/>
      <point x="70.9958" y="549.484" type="curve"/>
      <point x="70.9958" y="549.484"/>
      <point x="70.6422" y="547.392"/>
      <point x="70.0169" y="545.412" type="curve"/>
      <point x="70.4189" y="540.399"/>
      <point x="76.7542" y="531.816"/>
      <point x="92.3765" y="530.994" type="curve"/>
      <point x="136.042" y="530.002"/>
      <point x="176.353" y="528.994"/>
      <point x="214.263" y="527.997" type="curve" smooth="yes"/>
      <point x="225.829" y="527.692" type="line"/>
      <point x="223.853" y="516.292" type="line" smooth="yes"/>
      <point x="210.831" y="441.162"/>
      <point x="196.812" y="369.072"/>
      <point x="181.806" y="294.039" type="curve" smooth="yes"/>
      <point x="180.148" y="285.749" type="line"/>
      <point x="171.697" y="286.005" type="line" smooth="yes"/>
      <point x="138.794" y="287.002"/>
      <point x="104.534" y="288.009"/>
      <point x="67.8649" y="289" type="curve"/>
      <point x="66" y="289" type="line" smooth="yes"/>
      <point x="49.9902" y="289"/>
      <point x="33.8185" y="277.714"/>
      <point x="30.9958" y="269.484" type="curve"/>
      <point x="30.9958" y="269.484"/>
      <point x="30.6422" y="267.392"/>
      <point x="30.0169" y="265.412" type="curve"/>
      <point x="30.419" y="260.399"/>
      <point x="36.742" y="251.817"/>
      <point x="52.391" y="250.993" type="curve"/>
      <point x="91.1143" y="250"/>
      <point x="126.364" y="248.994"/>
      <point x="160.294" y="247.996" type="curve" smooth="yes"/>
      <point x="172.191" y="247.646" type="line"/>
      <point x="169.795" y="235.987" type="line" smooth="yes"/>
      <point x="154.847" y="163.241"/>
      <point x="138.948" y="85.7294"/>
      <point x="121" y="-1.02361" type="curve"/>
      <point x="121" y="-4" type="line" smooth="yes"/>
      <point x="121" y="-10.3625"/>
      <point x="128.152" y="-19"/>
      <point x="144" y="-19" type="curve" smooth="yes"/>
      <point x="162.026" y="-19"/>
      <point x="177.477" y="-7.19576"/>
      <point x="179.188" y="1.93464" type="curve"/>
      <point x="197.237" y="89.1678"/>
      <point x="213.199" y="164.985"/>
      <point x="228.205" y="238.013" type="curve" smooth="yes"/>
      <point x="229.872" y="246.126" type="line"/>
      <point x="238.154" y="245.999" type="line" smooth="yes"/>
      <point x="303.058" y="245"/>
      <point x="362.998" y="245"/>
      <point x="428" y="245" type="curve" smooth="yes"/>
      <point x="440.233" y="245" type="line"/>
      <point x="437.8" y="233.012" type="line" smooth="yes"/>
      <point x="423.834" y="164.177"/>
      <point x="407.94" y="90.658"/>
      <point x="391" y="8.97416" type="curve"/>
      <point x="391" y="6" type="line" smooth="yes"/>
      <point x="391" y="-0.362534"/>
      <point x="398.152" y="-9"/>
      <point x="414" y="-9" type="curve" smooth="yes"/>
      <point x="432.026" y="-9"/>
      <point x="447.476" y="2.80257"/>
      <point x="449.189" y="11.9366" type="curve"/>
      <point x="466.243" y="94.198"/>
      <point x="482.204" y="168.012"/>
      <point x="496.194" y="237.961" type="curve" smooth="yes"/>
      <point x="497.802" y="246" type="line"/>
      <point x="614" y="246" type="line" smooth="yes"/>
      <point x="631.3" y="246"/>
      <point x="646.648" y="257.061"/>
      <point x="649" y="266.07" type="curve"/>
      <point x="649" y="269" type="line" smooth="yes"/>
      <point x="649" y="275.363"/>
      <point x="641.848" y="284"/>
      <point x="626" y="284" type="curve" smooth="yes"/>
      <point x="504.802" y="284" type="line"/>
      <point x="507.194" y="295.961" type="line" smooth="yes"/>
      <point x="522.188" y="370.928"/>
      <point x="536.169" y="442.838"/>
      <point x="549.147" y="517.708" type="curve" smooth="yes"/>
      <point x="550.584" y="526" type="line"/>
      <point x="654" y="526" type="line" smooth="yes"/>
      <point x="671.3" y="526"/>
      <point x="686.648" y="537.061"/>
      <point x="689" y="546.07" type="curve"/>
      <point x="689" y="549" type="line" smooth="yes"/>
      <point x="689" y="555.363"/>
      <point x="681.848" y="564"/>
      <point x="666" y="564" type="curve" smooth="yes"/>
      <point x="558.062" y="564" type="line"/>
      <point x="560.155" y="575.753" type="line" smooth="yes"/>
      <point x="573.111" y="648.504"/>
      <point x="584.958" y="724.515"/>
      <point x="599" y="811.799" type="curve"/>
      <point x="599" y="814" type="line" smooth="yes"/>
      <point x="599" y="821.213"/>
      <point x="592.377" y="829"/>
      <point x="575" y="829" type="curve" smooth="yes"/>
      <point x="557.148" y="829"/>
      <point x="542.011" y="816.463"/>
      <point x="540.9" y="807.576" type="curve"/>
      <point x="526.842" y="721.222"/>
      <point x="514.889" y="644.495"/>
      <point x="501.845" y="571.247" type="curve" smooth="yes"/>
      <point x="500.377" y="563" type="line"/>
      <point x="492" y="563" type="line" smooth="yes"/>
      <point x="427.001" y="563"/>
      <point x="364.945" y="563"/>
      <point x="300.844" y="564.001" type="curve" smooth="yes"/>
      <point x="289.171" y="564.184" type="line"/>
      <point x="291.144" y="575.69" type="line" smooth="yes"/>
      <point x="303.132" y="645.623"/>
      <point x="315.959" y="718.597"/>
      <point x="329" y="801.779" type="curve"/>
      <point x="329" y="804" type="line" smooth="yes"/>
      <point x="329" y="811.213"/>
      <point x="322.377" y="819"/>
    </contour>
    <contour>
      <point x="281.147" y="517.708" type="curve" smooth="yes"/>
      <point x="282.607" y="526.132" type="line"/>
      <point x="291.156" y="525.999" type="line" smooth="yes"/>
      <point x="355.054" y="525"/>
      <point x="416.999" y="525"/>
      <point x="482" y="525" type="curve" smooth="yes"/>
      <point x="493.882" y="525" type="line"/>
      <point x="491.853" y="513.292" type="line" smooth="yes"/>
      <point x="478.816" y="438.076"/>
      <point x="463.795" y="365.986"/>
      <point x="448.806" y="291.039" type="curve" smooth="yes"/>
      <point x="447.198" y="283" type="line"/>
      <point x="439" y="283" type="line" smooth="yes"/>
      <point x="373.895" y="283"/>
      <point x="314.834" y="284.001"/>
      <point x="249.846" y="285.001" type="curve" smooth="yes"/>
      <point x="237.839" y="285.186" type="line"/>
      <point x="240.194" y="296.961" type="line" smooth="yes"/>
      <point x="255.174" y="371.86"/>
      <point x="268.157" y="442.766"/>
    </contour>
  </outline>
</glyph>
<glyph name="dollar" format="1">
  <advance width="720"/>
  <unicode hex="0024"/>
  <outline>
    <contour>
      <point x="360" y="926" type="curve" smooth="yes"/>
      <point x="365" y="926" type="line" smooth="yes"/>
      <point x="383" y="926"/>
      <point x="397" y="917"/>
      <point x="397" y="904" type="curve" smooth="yes"/>
      <point x="397" y="876"/>
      <point x="396" y="848"/>
      <point x="396" y="822" type="curve"/>
      <point x="400" y="822" type="line" smooth="yes"/>
      <point x="539" y="822"/>
      <point x="614" y="737"/>
      <point x="614" y="648" type="curve" smooth="yes"/>
      <point x="614" y="640"/>
      <point x="613" y="633"/>
      <point x="612" y="625" type="curve" smooth="yes"/>
      <point x="609" y="604"/>
      <point x="581" y="585"/>
      <point x="552" y="584" type="curve" smooth="yes"/>
      <point x="550" y="584" type="line" smooth="yes"/>
      <point x="524" y="584"/>
      <point x="504" y="598"/>
      <point x="504" y="617" type="curve" smooth="yes"/>
      <point x="504" y="621" type="line" smooth="yes"/>
      <point x="505" y="626"/>
      <point x="505" y="631"/>
      <point x="505" y="636" type="curve" smooth="yes"/>
      <point x="505" y="692"/>
      <point x="458" y="739"/>
      <point x="395" y="744" type="curve"/>
      <point x="394" y="637"/>
      <point x="392" y="541"/>
      <point x="392" y="448" type="curve"/>
      <point x="439" y="432"/>
      <point x="486" y="415"/>
      <point x="506" y="408" type="curve" smooth="yes"/>
      <point x="622" y="371"/>
      <point x="674" y="294"/>
      <point x="674" y="216" type="curve" smooth="yes"/>
      <point x="674" y="174"/>
      <point x="658" y="131"/>
      <point x="630" y="94" type="curve" smooth="yes"/>
      <point x="584" y="35"/>
      <point x="503" y="-13"/>
      <point x="400" y="-21" type="curve"/>
      <point x="401" y="-45"/>
      <point x="401" y="-70"/>
      <point x="402" y="-95" type="curve" smooth="yes"/>
      <point x="402" y="-96" type="line" smooth="yes"/>
      <point x="402" y="-110"/>
      <point x="385" y="-123"/>
      <point x="366" y="-126" type="curve" smooth="yes"/>
      <point x="364" y="-126"/>
      <point x="361" y="-127"/>
      <point x="359" y="-127" type="curve" smooth="yes"/>
      <point x="342" y="-127"/>
      <point x="329" y="-117"/>
      <point x="328" y="-105" type="curve" smooth="yes"/>
      <point x="327" y="-76"/>
      <point x="326" y="-47"/>
      <point x="325" y="-20" type="curve"/>
      <point x="197" y="-8"/>
      <point x="115" y="60"/>
      <point x="80" y="147" type="curve" smooth="yes"/>
      <point x="79" y="150"/>
      <point x="78" y="154"/>
      <point x="78" y="157" type="curve" smooth="yes"/>
      <point x="78" y="174"/>
      <point x="94" y="192"/>
      <point x="118" y="199" type="curve" smooth="yes"/>
      <point x="126" y="201"/>
      <point x="134" y="202"/>
      <point x="141" y="202" type="curve" smooth="yes"/>
      <point x="161" y="202"/>
      <point x="178" y="194"/>
      <point x="184" y="179" type="curve" smooth="yes"/>
      <point x="208" y="119"/>
      <point x="256" y="78"/>
      <point x="323" y="63" type="curve"/>
      <point x="320" y="176"/>
      <point x="318" y="276"/>
      <point x="318" y="375" type="curve"/>
      <point x="284" y="387"/>
      <point x="253" y="398"/>
      <point x="236" y="404" type="curve" smooth="yes"/>
      <point x="123" y="442"/>
      <point x="70" y="515"/>
      <point x="70" y="590" type="curve" smooth="yes"/>
      <point x="70" y="601"/>
      <point x="71" y="611"/>
      <point x="73" y="622" type="curve" smooth="yes"/>
      <point x="91" y="709"/>
      <point x="184" y="793"/>
      <point x="322" y="816" type="curve"/>
      <point x="322" y="842"/>
      <point x="323" y="868"/>
      <point x="323" y="896" type="curve" smooth="yes"/>
      <point x="323" y="910"/>
      <point x="340" y="924"/>
    </contour>
    <contour>
      <point x="319" y="474" type="curve"/>
      <point x="319" y="558"/>
      <point x="320" y="643"/>
      <point x="321" y="738" type="curve"/>
      <point x="239" y="722"/>
      <point x="192" y="674"/>
      <point x="181" y="622" type="curve" smooth="yes"/>
      <point x="180" y="615"/>
      <point x="179" y="609"/>
      <point x="179" y="602" type="curve" smooth="yes"/>
      <point x="179" y="555"/>
      <point x="213" y="509"/>
      <point x="294" y="482" type="curve" smooth="yes"/>
      <point x="301" y="480"/>
      <point x="309" y="477"/>
    </contour>
    <contour>
      <point x="393" y="350" type="curve"/>
      <point x="393" y="258"/>
      <point x="394" y="163"/>
      <point x="397" y="56" type="curve"/>
      <point x="462" y="59"/>
      <point x="509" y="86"/>
      <point x="537" y="124" type="curve" smooth="yes"/>
      <point x="555" y="148"/>
      <point x="565" y="176"/>
      <point x="565" y="203" type="curve" smooth="yes"/>
      <point x="565" y="254"/>
      <point x="531" y="305"/>
      <point x="450" y="330" type="curve" smooth="yes"/>
      <point x="438" y="334"/>
      <point x="418" y="341"/>
    </contour>
    <contour>
      <point x="360.512" y="916" type="line"/>
      <point x="344.123" y="914.008"/>
      <point x="333" y="902.331"/>
      <point x="333" y="896" type="curve" smooth="yes"/>
      <point x="333" y="867.757"/>
      <point x="332" y="841.74"/>
      <point x="332" y="816" type="curve" smooth="yes"/>
      <point x="332" y="807.529" type="line"/>
      <point x="323.644" y="806.136" type="line" smooth="yes"/>
      <point x="188.497" y="783.612"/>
      <point x="99.6549" y="701.475"/>
      <point x="82.8171" y="620.092" type="curve"/>
      <point x="80.9519" y="609.834"/>
      <point x="80" y="600.314"/>
      <point x="80" y="590" type="curve" smooth="yes"/>
      <point x="80" y="520.285"/>
      <point x="128.841" y="450.586"/>
      <point x="239.258" y="413.455" type="curve"/>
      <point x="256.438" y="407.391"/>
      <point x="287.29" y="396.444"/>
      <point x="321.328" y="384.43" type="curve" smooth="yes"/>
      <point x="328" y="382.075" type="line"/>
      <point x="328" y="375" type="line" smooth="yes"/>
      <point x="328" y="276.136"/>
      <point x="329.997" y="176.228"/>
      <point x="332.996" y="63.2654" type="curve" smooth="yes"/>
      <point x="333.337" y="50.4382" type="line"/>
      <point x="320.815" y="53.2416" type="line" smooth="yes"/>
      <point x="250.856" y="68.9041"/>
      <point x="199.914" y="112.289"/>
      <point x="174.715" y="175.286" type="curve" smooth="yes"/>
      <point x="170.863" y="184.917"/>
      <point x="158.808" y="192"/>
      <point x="141" y="192" type="curve" smooth="yes"/>
      <point x="135.057" y="192"/>
      <point x="127.428" y="191.049"/>
      <point x="120.614" y="189.346" type="curve"/>
      <point x="99.6222" y="183.223"/>
      <point x="88" y="167.728"/>
      <point x="88" y="157" type="curve" smooth="yes"/>
      <point x="88" y="155.93"/>
      <point x="88.3788" y="153.696"/>
      <point x="89.3847" y="150.464" type="curve"/>
      <point x="123.042" y="67.5727"/>
      <point x="201.047" y="1.66445"/>
      <point x="325.933" y="-10.0437" type="curve" smooth="yes"/>
      <point x="334.668" y="-10.8626" type="line"/>
      <point x="334.993" y="-19.6299" type="line" smooth="yes"/>
      <point x="335.982" y="-46.3175"/>
      <point x="337.005" y="-76.3123"/>
      <point x="337.965" y="-104.17" type="curve"/>
      <point x="338.366" y="-108.976"/>
      <point x="344.315" y="-116.635"/>
      <point x="358.859" y="-117.007" type="curve"/>
      <point x="359.872" y="-116.835"/>
      <point x="359.715" y="-116.582"/>
      <point x="365.375" y="-115.965" type="curve"/>
      <point x="380.622" y="-113.257"/>
      <point x="392" y="-102.105"/>
      <point x="392" y="-96" type="curve" smooth="yes"/>
      <point x="392" y="-95.1999" type="line"/>
      <point x="391.004" y="-70.3104"/>
      <point x="390.994" y="-45.0606"/>
      <point x="390.009" y="-21.4163" type="curve" smooth="yes"/>
      <point x="389.607" y="-11.7771" type="line"/>
      <point x="399.226" y="-11.03" type="line" smooth="yes"/>
      <point x="499.528" y="-3.23956"/>
      <point x="578.001" y="43.5688"/>
      <point x="622.069" y="100.092" type="curve"/>
      <point x="648.861" y="135.495"/>
      <point x="664" y="176.573"/>
      <point x="664" y="216" type="curve" smooth="yes"/>
      <point x="664" y="289.042"/>
      <point x="615.959" y="362.431"/>
      <point x="502.828" y="398.515" type="curve"/>
      <point x="482.475" y="405.639"/>
      <point x="435.722" y="422.552"/>
      <point x="388.777" y="438.534" type="curve" smooth="yes"/>
      <point x="382" y="440.841" type="line"/>
      <point x="382" y="448" type="line" smooth="yes"/>
      <point x="382" y="541.145"/>
      <point x="384.001" y="637.163"/>
      <point x="385" y="744.093" type="curve" smooth="yes"/>
      <point x="385.101" y="754.817" type="line"/>
      <point x="395.791" y="753.969" type="line" smooth="yes"/>
      <point x="463.193" y="748.619"/>
      <point x="515" y="697.957"/>
      <point x="515" y="636" type="curve" smooth="yes"/>
      <point x="515" y="631.207"/>
      <point x="515.095" y="626.345"/>
      <point x="514" y="620.062" type="curve"/>
      <point x="514" y="617" type="line" smooth="yes"/>
      <point x="514" y="606.248"/>
      <point x="526.544" y="594"/>
      <point x="550" y="594" type="curve" smooth="yes"/>
      <point x="551.828" y="594" type="line"/>
      <point x="577.603" y="594.889"/>
      <point x="600.155" y="612.797"/>
      <point x="602.088" y="626.327" type="curve"/>
      <point x="603.08" y="634.26"/>
      <point x="604" y="640.914"/>
      <point x="604" y="648" type="curve" smooth="yes"/>
      <point x="604" y="730.724"/>
      <point x="534.672" y="812"/>
      <point x="400" y="812" type="curve" smooth="yes"/>
      <point x="386" y="812" type="line"/>
      <point x="386" y="822" type="line" smooth="yes"/>
      <point x="386" y="848.252"/>
      <point x="387" y="876.234"/>
      <point x="387" y="904" type="curve" smooth="yes"/>
      <point x="387" y="908.447"/>
      <point x="380.932" y="916"/>
      <point x="365" y="916" type="curve" smooth="yes"/>
    </contour>
    <contour>
      <point x="329" y="474" type="curve" smooth="yes"/>
      <point x="329" y="460.56" type="line"/>
      <point x="316.127" y="464.422" type="line" smooth="yes"/>
      <point x="305.643" y="467.567"/>
      <point x="297.93" y="470.477"/>
      <point x="291.044" y="472.444" type="curve"/>
      <point x="207.427" y="500.317"/>
      <point x="169" y="549.345"/>
      <point x="169" y="602" type="curve" smooth="yes"/>
      <point x="169" y="609.985"/>
      <point x="170.125" y="616.588"/>
      <point x="171.101" y="623.414" type="curve" smooth="yes"/>
      <point x="171.148" y="623.744" type="line"/>
      <point x="171.217" y="624.07" type="line" smooth="yes"/>
      <point x="183.208" y="680.754"/>
      <point x="234.126" y="731.238"/>
      <point x="319.085" y="747.815" type="curve" smooth="yes"/>
      <point x="331.129" y="750.165" type="line"/>
      <point x="330.999" y="737.895" type="line" smooth="yes"/>
      <point x="329.999" y="642.887"/>
      <point x="329" y="557.92"/>
    </contour>
    <contour>
      <point x="383" y="350" type="curve" smooth="yes"/>
      <point x="383" y="364.228" type="line"/>
      <point x="396.387" y="359.409" type="line" smooth="yes"/>
      <point x="421.261" y="350.454"/>
      <point x="441.453" y="343.39"/>
      <point x="453.056" y="339.522" type="curve"/>
      <point x="536.881" y="313.65"/>
      <point x="575" y="259.055"/>
      <point x="575" y="203" type="curve" smooth="yes"/>
      <point x="575" y="173.534"/>
      <point x="564.154" y="143.538"/>
      <point x="545" y="118" type="curve" smooth="yes"/>
      <point x="515.194" y="77.5494"/>
      <point x="465.043" y="49.1298"/>
      <point x="397.461" y="46.0106" type="curve" smooth="yes"/>
      <point x="387.289" y="45.5412" type="line"/>
      <point x="387.004" y="55.7197" type="line" smooth="yes"/>
      <point x="384.001" y="162.823"/>
      <point x="383" y="257.928"/>
    </contour>
  </outline>
</glyph>
<glyph name="percent" format="1">
  <advance width="780"/>
  <unicode hex="0025"/>
  <outline>
    <contour>
      <point x="608" y="347" type="curve" smooth="yes"/>
      <point x="592" y="363"/>
      <point x="578" y="369"/>
      <point x="566" y="369" type="curve" smooth="yes"/>
      <point x="558" y="369"/>
      <point x="551" y="366"/>
      <point x="546" y="363" type="curve" smooth="yes"/>
      <point x="525" y="351"/>
      <point x="490" y="304"/>
      <point x="490" y="206" type="curve" smooth="yes"/>
      <point x="490" y="83"/>
      <point x="558" y="44"/>
      <point x="581" y="44" type="curve" smooth="yes"/>
      <point x="583" y="44" type="line" smooth="yes"/>
      <point x="595" y="45"/>
      <point x="650" y="77"/>
      <point x="650" y="208" type="curve" smooth="yes"/>
      <point x="650" y="256"/>
      <point x="634" y="304"/>
      <point x="613" y="322" type="curve" smooth="yes"/>
      <point x="608" y="326"/>
      <point x="606" y="332"/>
      <point x="606" y="338" type="curve" smooth="yes"/>
      <point x="606" y="341"/>
      <point x="607" y="344"/>
    </contour>
    <contour>
      <point x="688" y="351" type="curve" smooth="yes"/>
      <point x="718" y="316"/>
      <point x="730" y="265"/>
      <point x="730" y="216" type="curve" smooth="yes"/>
      <point x="730" y="90"/>
      <point x="681" y="-2"/>
      <point x="583" y="-13" type="curve" smooth="yes"/>
      <point x="577" y="-14"/>
      <point x="571" y="-14"/>
      <point x="565" y="-14" type="curve" smooth="yes"/>
      <point x="468" y="-14"/>
      <point x="410" y="79"/>
      <point x="410" y="198" type="curve" smooth="yes"/>
      <point x="410" y="305"/>
      <point x="444" y="378"/>
      <point x="511" y="411" type="curve" smooth="yes"/>
      <point x="533" y="422"/>
      <point x="554" y="426"/>
      <point x="575" y="426" type="curve" smooth="yes"/>
      <point x="621" y="426"/>
      <point x="661" y="403"/>
      <point x="685" y="373" type="curve" smooth="yes"/>
      <point x="688" y="369"/>
      <point x="690" y="365"/>
      <point x="690" y="360" type="curve" smooth="yes"/>
      <point x="690" y="357"/>
      <point x="689" y="354"/>
    </contour>
    <contour>
      <point x="248" y="735" type="curve" smooth="yes"/>
      <point x="232" y="751"/>
      <point x="218" y="757"/>
      <point x="206" y="757" type="curve" smooth="yes"/>
      <point x="198" y="757"/>
      <point x="191" y="754"/>
      <point x="186" y="751" type="curve" smooth="yes"/>
      <point x="165" y="739"/>
      <point x="130" y="692"/>
      <point x="130" y="594" type="curve" smooth="yes"/>
      <point x="130" y="471"/>
      <point x="198" y="432"/>
      <point x="221" y="432" type="curve" smooth="yes"/>
      <point x="223" y="432" type="line" smooth="yes"/>
      <point x="235" y="433"/>
      <point x="290" y="465"/>
      <point x="290" y="596" type="curve" smooth="yes"/>
      <point x="290" y="644"/>
      <point x="274" y="692"/>
      <point x="253" y="710" type="curve" smooth="yes"/>
      <point x="248" y="714"/>
      <point x="246" y="720"/>
      <point x="246" y="726" type="curve" smooth="yes"/>
      <point x="246" y="729"/>
      <point x="247" y="732"/>
    </contour>
    <contour>
      <point x="328" y="739" type="curve" smooth="yes"/>
      <point x="358" y="704"/>
      <point x="370" y="653"/>
      <point x="370" y="604" type="curve" smooth="yes"/>
      <point x="370" y="478"/>
      <point x="321" y="386"/>
      <point x="223" y="375" type="curve" smooth="yes"/>
      <point x="217" y="374"/>
      <point x="211" y="374"/>
      <point x="205" y="374" type="curve" smooth="yes"/>
      <point x="108" y="374"/>
      <point x="50" y="467"/>
      <point x="50" y="586" type="curve" smooth="yes"/>
      <point x="50" y="693"/>
      <point x="84" y="766"/>
      <point x="151" y="799" type="curve" smooth="yes"/>
      <point x="173" y="810"/>
      <point x="194" y="814"/>
      <point x="215" y="814" type="curve" smooth="yes"/>
      <point x="261" y="814"/>
      <point x="301" y="791"/>
      <point x="325" y="761" type="curve" smooth="yes"/>
      <point x="328" y="757"/>
      <point x="330" y="753"/>
      <point x="330" y="748" type="curve" smooth="yes"/>
      <point x="330" y="745"/>
      <point x="329" y="742"/>
    </contour>
    <contour>
      <point x="690" y="792" type="curve" smooth="yes"/>
      <point x="703" y="788"/>
      <point x="709" y="780"/>
      <point x="709" y="770" type="curve" smooth="yes"/>
      <point x="709" y="765"/>
      <point x="708" y="760"/>
      <point x="704" y="755" type="curve" smooth="yes"/>
      <point x="542" y="534"/>
      <point x="305" y="218"/>
      <point x="143" y="23" type="curve" smooth="yes"/>
      <point x="134" y="13"/>
      <point x="119" y="6"/>
      <point x="104" y="6" type="curve" smooth="yes"/>
      <point x="99" y="6"/>
      <point x="93" y="7"/>
      <point x="88" y="9" type="curve" smooth="yes"/>
      <point x="77" y="13"/>
      <point x="70" y="22"/>
      <point x="70" y="31" type="curve" smooth="yes"/>
      <point x="70" y="36"/>
      <point x="73" y="42"/>
      <point x="77" y="47" type="curve" smooth="yes"/>
      <point x="237" y="240"/>
      <point x="474" y="554"/>
      <point x="636" y="775" type="curve" smooth="yes"/>
      <point x="645" y="787"/>
      <point x="660" y="794"/>
      <point x="676" y="794" type="curve" smooth="yes"/>
      <point x="681" y="794"/>
      <point x="686" y="793"/>
    </contour>
    <contour>
      <point x="615.071" y="354.071" type="curve" smooth="yes"/>
      <point x="619.441" y="349.701" type="line"/>
      <point x="617.487" y="343.838" type="line" smooth="yes"/>
      <point x="616.471" y="340.789"/>
      <point x="616" y="338.788"/>
      <point x="616" y="338" type="curve" smooth="yes"/>
      <point x="616" y="334.063"/>
      <point x="617.091" y="331.534"/>
      <point x="619.379" y="329.703" type="curve"/>
      <point x="644.545" y="308.132"/>
      <point x="660" y="257.739"/>
      <point x="660" y="208" type="curve" smooth="yes"/>
      <point x="660" y="75.1887"/>
      <point x="604.596" y="35.765"/>
      <point x="583.83" y="34.0345" type="curve" smooth="yes"/>
      <point x="583.416" y="34" type="line"/>
      <point x="581" y="34" type="line" smooth="yes"/>
      <point x="550.01" y="34"/>
      <point x="480" y="79.7005"/>
      <point x="480" y="206" type="curve" smooth="yes"/>
      <point x="480" y="306.051"/>
      <point x="515.416" y="357.041"/>
      <point x="540.946" y="371.63" type="curve"/>
      <point x="546.71" y="375.088"/>
      <point x="555.521" y="379"/>
      <point x="566" y="379" type="curve" smooth="yes"/>
      <point x="581.532" y="379"/>
      <point x="597.977" y="371.165"/>
    </contour>
    <contour>
      <point x="680.407" y="344.492" type="curve" smooth="yes"/>
      <point x="676.723" y="348.791" type="line"/>
      <point x="678.513" y="354.162" type="line" smooth="yes"/>
      <point x="679.529" y="357.211"/>
      <point x="680" y="359.212"/>
      <point x="680" y="360" type="curve" smooth="yes"/>
      <point x="680" y="362.069"/>
      <point x="679.306" y="363.925"/>
      <point x="677.094" y="366.875" type="curve"/>
      <point x="655.027" y="394.459"/>
      <point x="617.586" y="416"/>
      <point x="575" y="416" type="curve" smooth="yes"/>
      <point x="555.287" y="416"/>
      <point x="536.032" y="412.336"/>
      <point x="515.472" y="402.056" type="curve" smooth="yes"/>
      <point x="453.062" y="371.316"/>
      <point x="420" y="303.175"/>
      <point x="420" y="198" type="curve" smooth="yes"/>
      <point x="420" y="81.2885"/>
      <point x="476.103" y="-4"/>
      <point x="565" y="-4" type="curve" smooth="yes"/>
      <point x="571.009" y="-4"/>
      <point x="576.425" y="-3.95788"/>
      <point x="581.356" y="-3.13606" type="curve" smooth="yes"/>
      <point x="581.619" y="-3.09218" type="line"/>
      <point x="581.885" y="-3.06241" type="line" smooth="yes"/>
      <point x="672.402" y="7.09769"/>
      <point x="720" y="91.7818"/>
      <point x="720" y="216" type="curve" smooth="yes"/>
      <point x="720" y="263.544"/>
      <point x="708.15" y="312.126"/>
    </contour>
    <contour>
      <point x="255.071" y="742.071" type="curve" smooth="yes"/>
      <point x="259.441" y="737.701" type="line"/>
      <point x="257.487" y="731.838" type="line" smooth="yes"/>
      <point x="256.471" y="728.789"/>
      <point x="256" y="726.788"/>
      <point x="256" y="726" type="curve" smooth="yes"/>
      <point x="256" y="722.063"/>
      <point x="257.091" y="719.534"/>
      <point x="259.379" y="717.703" type="curve"/>
      <point x="284.545" y="696.132"/>
      <point x="300" y="645.739"/>
      <point x="300" y="596" type="curve" smooth="yes"/>
      <point x="300" y="463.189"/>
      <point x="244.596" y="423.765"/>
      <point x="223.83" y="422.035" type="curve" smooth="yes"/>
      <point x="223.416" y="422" type="line"/>
      <point x="221" y="422" type="line" smooth="yes"/>
      <point x="190.01" y="422"/>
      <point x="120" y="467.701"/>
      <point x="120" y="594" type="curve" smooth="yes"/>
      <point x="120" y="694.051"/>
      <point x="155.416" y="745.041"/>
      <point x="180.946" y="759.63" type="curve"/>
      <point x="186.71" y="763.088"/>
      <point x="195.521" y="767"/>
      <point x="206" y="767" type="curve" smooth="yes"/>
      <point x="221.532" y="767"/>
      <point x="237.977" y="759.165"/>
    </contour>
    <contour>
      <point x="320.407" y="732.492" type="curve" smooth="yes"/>
      <point x="316.723" y="736.791" type="line"/>
      <point x="318.513" y="742.162" type="line" smooth="yes"/>
      <point x="319.529" y="745.211"/>
      <point x="320" y="747.212"/>
      <point x="320" y="748" type="curve" smooth="yes"/>
      <point x="320" y="750.069"/>
      <point x="319.306" y="751.925"/>
      <point x="317.094" y="754.875" type="curve"/>
      <point x="295.027" y="782.459"/>
      <point x="257.586" y="804"/>
      <point x="215" y="804" type="curve" smooth="yes"/>
      <point x="195.287" y="804"/>
      <point x="176.032" y="800.336"/>
      <point x="155.472" y="790.056" type="curve" smooth="yes"/>
      <point x="93.062" y="759.316"/>
      <point x="60" y="691.175"/>
      <point x="60" y="586" type="curve" smooth="yes"/>
      <point x="60" y="469.289"/>
      <point x="116.103" y="384"/>
      <point x="205" y="384" type="curve" smooth="yes"/>
      <point x="211.009" y="384"/>
      <point x="216.425" y="384.042"/>
      <point x="221.356" y="384.864" type="curve" smooth="yes"/>
      <point x="221.619" y="384.908" type="line"/>
      <point x="221.885" y="384.938" type="line" smooth="yes"/>
      <point x="312.402" y="395.098"/>
      <point x="360" y="479.782"/>
      <point x="360" y="604" type="curve" smooth="yes"/>
      <point x="360" y="651.544"/>
      <point x="348.15" y="700.126"/>
    </contour>
    <contour>
      <point x="687.359" y="782.354" type="curve" smooth="yes"/>
      <point x="684.214" y="783.11"/>
      <point x="679.565" y="784"/>
      <point x="676" y="784" type="curve" smooth="yes"/>
      <point x="662.863" y="784"/>
      <point x="650.874" y="778.166"/>
      <point x="644.033" y="769.044" type="curve"/>
      <point x="482.052" y="548.07"/>
      <point x="244.875" y="233.831"/>
      <point x="84.7542" y="40.6849" type="curve"/>
      <point x="81.6381" y="36.7898"/>
      <point x="80" y="32.2077"/>
      <point x="80" y="31" type="curve" smooth="yes"/>
      <point x="80" y="27.2783"/>
      <point x="83.2756" y="21.3586"/>
      <point x="91.5666" y="18.3437" type="curve"/>
      <point x="95.4288" y="16.7988"/>
      <point x="100.208" y="16"/>
      <point x="104" y="16" type="curve" smooth="yes"/>
      <point x="115.957" y="16"/>
      <point x="128.719" y="22.0807"/>
      <point x="135.435" y="29.5425" type="curve"/>
      <point x="296.935" y="223.941"/>
      <point x="533.922" y="539.894"/>
      <point x="696.06" y="761.082" type="curve"/>
      <point x="698.679" y="764.357"/>
      <point x="699" y="766.299"/>
      <point x="699" y="770" type="curve" smooth="yes"/>
      <point x="699" y="775.093"/>
      <point x="697.671" y="778.886"/>
    </contour>
  </outline>
</glyph>
<glyph name="ampersand" format="1">
  <advance width="800"/>
  <unicode hex="0026"/>
  <outline>
    <contour>
      <point x="352" y="475" type="curve"/>
      <point x="403" y="519"/>
      <point x="436" y="575"/>
      <point x="446" y="624" type="curve" smooth="yes"/>
      <point x="448" y="636"/>
      <point x="450" y="647"/>
      <point x="450" y="657" type="curve" smooth="yes"/>
      <point x="450" y="708"/>
      <point x="420" y="734"/>
      <point x="373" y="734" type="curve" smooth="yes"/>
      <point x="360" y="734"/>
      <point x="352" y="732"/>
      <point x="346" y="730" type="curve" smooth="yes"/>
      <point x="323" y="721"/>
      <point x="306" y="681"/>
      <point x="306" y="629" type="curve" smooth="yes"/>
      <point x="306" y="584"/>
      <point x="319" y="529"/>
    </contour>
    <contour>
      <point x="659" y="399" type="curve" smooth="yes"/>
      <point x="685" y="399"/>
      <point x="705" y="384"/>
      <point x="705" y="366" type="curve" smooth="yes"/>
      <point x="705" y="364"/>
      <point x="704" y="362"/>
      <point x="704" y="360" type="curve" smooth="yes"/>
      <point x="690" y="298"/>
      <point x="667" y="226"/>
      <point x="627" y="161" type="curve"/>
      <point x="670" y="115"/>
      <point x="712" y="71"/>
      <point x="751" y="34" type="curve" smooth="yes"/>
      <point x="757" y="29"/>
      <point x="759" y="23"/>
      <point x="759" y="16" type="curve" smooth="yes"/>
      <point x="759" y="5"/>
      <point x="752" y="-8"/>
      <point x="738" y="-16" type="curve" smooth="yes"/>
      <point x="728" y="-22"/>
      <point x="715" y="-25"/>
      <point x="703" y="-25" type="curve" smooth="yes"/>
      <point x="690" y="-25"/>
      <point x="677" y="-21"/>
      <point x="669" y="-14" type="curve" smooth="yes"/>
      <point x="638" y="16"/>
      <point x="604" y="49"/>
      <point x="570" y="85" type="curve"/>
      <point x="507" y="18"/>
      <point x="421" y="-29"/>
      <point x="302" y="-29" type="curve" smooth="yes"/>
      <point x="153" y="-29"/>
      <point x="66" y="51"/>
      <point x="66" y="154" type="curve" smooth="yes"/>
      <point x="66" y="258"/>
      <point x="171" y="341"/>
      <point x="274" y="417" type="curve"/>
      <point x="232" y="476"/>
      <point x="202" y="555"/>
      <point x="202" y="626" type="curve" smooth="yes"/>
      <point x="202" y="691"/>
      <point x="227" y="751"/>
      <point x="294" y="785" type="curve" smooth="yes"/>
      <point x="321" y="799"/>
      <point x="354" y="806"/>
      <point x="387" y="806" type="curve" smooth="yes"/>
      <point x="503" y="806"/>
      <point x="548" y="737"/>
      <point x="548" y="664" type="curve" smooth="yes"/>
      <point x="548" y="651"/>
      <point x="547" y="637"/>
      <point x="544" y="624" type="curve" smooth="yes"/>
      <point x="530" y="554"/>
      <point x="483" y="478"/>
      <point x="404" y="418" type="curve" smooth="yes"/>
      <point x="402" y="417"/>
      <point x="401" y="415"/>
      <point x="399" y="414" type="curve"/>
      <point x="442" y="365"/>
      <point x="497" y="302"/>
      <point x="556" y="237" type="curve"/>
      <point x="573" y="275"/>
      <point x="587" y="317"/>
      <point x="596" y="360" type="curve" smooth="yes"/>
      <point x="601" y="381"/>
      <point x="630" y="399"/>
    </contour>
    <contour>
      <point x="507" y="153" type="curve"/>
      <point x="440" y="226"/>
      <point x="373" y="300"/>
      <point x="323" y="358" type="curve"/>
      <point x="233" y="286"/>
      <point x="174" y="228"/>
      <point x="174" y="166" type="curve" smooth="yes"/>
      <point x="174" y="93"/>
      <point x="229" y="49"/>
      <point x="318" y="49" type="curve" smooth="yes"/>
      <point x="395" y="49"/>
      <point x="459" y="90"/>
    </contour>
    <contour>
      <point x="358.532" y="467.428" type="curve" smooth="yes"/>
      <point x="349.611" y="459.732" type="line"/>
      <point x="343.467" y="469.785" type="line" smooth="yes"/>
      <point x="309.498" y="525.371"/>
      <point x="296" y="582.111"/>
      <point x="296" y="629" type="curve" smooth="yes"/>
      <point x="296" y="681.874"/>
      <point x="312.215" y="727.518"/>
      <point x="342.356" y="739.312" type="curve" smooth="yes"/>
      <point x="342.595" y="739.406" type="line"/>
      <point x="342.838" y="739.487" type="line" smooth="yes"/>
      <point x="349.546" y="741.723"/>
      <point x="358.995" y="744"/>
      <point x="373" y="744" type="curve" smooth="yes"/>
      <point x="424.625" y="744"/>
      <point x="460" y="713.214"/>
      <point x="460" y="657" type="curve" smooth="yes"/>
      <point x="460" y="645.565"/>
      <point x="457.887" y="634.492"/>
      <point x="455.834" y="622.178" type="curve"/>
      <point x="445.221" y="570.173"/>
      <point x="411.094" y="512.776"/>
    </contour>
    <contour>
      <point x="659" y="389" type="curve" smooth="yes"/>
      <point x="633.082" y="389"/>
      <point x="609.117" y="371.918"/>
      <point x="605.76" y="357.817" type="curve"/>
      <point x="596.666" y="314.367"/>
      <point x="582.379" y="271.477"/>
      <point x="565.128" y="232.916" type="curve" smooth="yes"/>
      <point x="558.88" y="218.949" type="line"/>
      <point x="548.595" y="230.279" type="line" smooth="yes"/>
      <point x="489.515" y="295.368"/>
      <point x="434.472" y="358.418"/>
      <point x="391.484" y="407.404" type="curve" smooth="yes"/>
      <point x="382.934" y="417.147" type="line"/>
      <point x="394.076" y="422.719" type="line"/>
      <point x="394.435" y="423.077"/>
      <point x="394.151" y="423.209"/>
      <point x="397.975" y="426.047" type="curve"/>
      <point x="475.173" y="484.979"/>
      <point x="520.687" y="558.423"/>
      <point x="534.223" y="626.105" type="curve"/>
      <point x="537.056" y="638.381"/>
      <point x="538" y="651.422"/>
      <point x="538" y="664" type="curve" smooth="yes"/>
      <point x="538" y="732.141"/>
      <point x="497.844" y="796"/>
      <point x="387" y="796" type="curve" smooth="yes"/>
      <point x="355.386" y="796"/>
      <point x="323.874" y="789.226"/>
      <point x="298.603" y="776.122" type="curve" smooth="yes"/>
      <point x="235.332" y="744.015"/>
      <point x="212" y="688.409"/>
      <point x="212" y="626" type="curve" smooth="yes"/>
      <point x="212" y="557.708"/>
      <point x="241.214" y="480.3"/>
      <point x="282.147" y="422.799" type="curve" smooth="yes"/>
      <point x="287.848" y="414.79" type="line"/>
      <point x="279.937" y="408.953" type="line" smooth="yes"/>
      <point x="176.2" y="332.41"/>
      <point x="76" y="251.189"/>
      <point x="76" y="154" type="curve" smooth="yes"/>
      <point x="76" y="57.9047"/>
      <point x="156.48" y="-19"/>
      <point x="302" y="-19" type="curve" smooth="yes"/>
      <point x="418.174" y="-19"/>
      <point x="501.291" y="26.5264"/>
      <point x="562.715" y="91.8503" type="curve" smooth="yes"/>
      <point x="569.984" y="99.581" type="line"/>
      <point x="577.27" y="91.8662" type="line" smooth="yes"/>
      <point x="611.156" y="55.9867"/>
      <point x="643.818" y="24.2875"/>
      <point x="675.784" y="-6.64939" type="curve"/>
      <point x="681.054" y="-11.0077"/>
      <point x="691.844" y="-15"/>
      <point x="703" y="-15" type="curve" smooth="yes"/>
      <point x="713.446" y="-15"/>
      <point x="724.723" y="-12.3042"/>
      <point x="732.946" y="-7.37034" type="curve"/>
      <point x="744.371" y="-0.841965"/>
      <point x="749" y="9.11165"/>
      <point x="749" y="16" type="curve" smooth="yes"/>
      <point x="749" y="20.982"/>
      <point x="748.116" y="23.386"/>
      <point x="744.598" y="26.3178" type="curve" smooth="yes"/>
      <point x="744.351" y="26.5238" type="line"/>
      <point x="744.117" y="26.7454" type="line" smooth="yes"/>
      <point x="704.85" y="63.9993"/>
      <point x="662.743" y="108.12"/>
      <point x="619.695" y="154.171" type="curve" smooth="yes"/>
      <point x="614.485" y="159.744" type="line"/>
      <point x="618.483" y="166.241" type="line" smooth="yes"/>
      <point x="657.386" y="229.458"/>
      <point x="680.265" y="300.562"/>
      <point x="693.986" y="361.055" type="curve"/>
      <point x="694.193" y="362.548"/>
      <point x="694.907" y="365.845"/>
      <point x="694.999" y="366.259" type="curve"/>
      <point x="694.706" y="375.623"/>
      <point x="682.439" y="389"/>
    </contour>
    <contour>
      <point x="514.367" y="159.762" type="curve" smooth="yes"/>
      <point x="520.026" y="153.596" type="line"/>
      <point x="514.954" y="146.94" type="line" smooth="yes"/>
      <point x="465.674" y="82.2588"/>
      <point x="398.839" y="39"/>
      <point x="318" y="39" type="curve" smooth="yes"/>
      <point x="225.68" y="39"/>
      <point x="164" y="86.2688"/>
      <point x="164" y="166" type="curve" smooth="yes"/>
      <point x="164" y="234.441"/>
      <point x="227.215" y="294.178"/>
      <point x="316.753" y="365.809" type="curve" smooth="yes"/>
      <point x="324.28" y="371.83" type="line"/>
      <point x="330.574" y="364.529" type="line" smooth="yes"/>
      <point x="380.442" y="306.683"/>
      <point x="447.402" y="232.724"/>
    </contour>
  </outline>
</glyph>
<glyph name="hyphen" format="1">
  <advance width="600"/>
  <unicode hex="002D"/>
  <outline>
    <contour>
      <point x="77" y="349" type="curve" smooth="yes"/>
      <point x="84" y="367"/>
      <point x="108" y="381"/>
      <point x="133" y="381" type="curve" smooth="yes"/>
      <point x="138" y="381" type="line"/>
      <point x="191" y="376"/>
      <point x="259" y="373"/>
      <point x="337" y="373" type="curve" smooth="yes"/>
      <point x="382" y="373"/>
      <point x="430" y="374"/>
      <point x="480" y="376" type="curve" smooth="yes"/>
      <point x="482" y="376" type="line" smooth="yes"/>
      <point x="506" y="376"/>
      <point x="524" y="363"/>
      <point x="524" y="346" type="curve" smooth="yes"/>
      <point x="524" y="342" type="line" smooth="yes"/>
      <point x="521" y="323"/>
      <point x="497" y="305"/>
      <point x="470" y="304" type="curve" smooth="yes"/>
      <point x="418" y="302"/>
      <point x="369" y="301"/>
      <point x="322" y="301" type="curve" smooth="yes"/>
      <point x="242" y="301"/>
      <point x="170" y="304"/>
      <point x="112" y="309" type="curve" smooth="yes"/>
      <point x="90" y="311"/>
      <point x="75" y="324"/>
      <point x="75" y="340" type="curve" smooth="yes"/>
      <point x="75" y="343"/>
      <point x="76" y="346"/>
    </contour>
    <contour>
      <point x="86.398" y="345.576" type="curve" smooth="yes"/>
      <point x="85.5794" y="343.09"/>
      <point x="85" y="340.649"/>
      <point x="85" y="340" type="curve" smooth="yes"/>
      <point x="85" y="331.16"/>
      <point x="93.7964" y="320.696"/>
      <point x="112.905" y="318.959" type="curve" smooth="yes"/>
      <point x="170.438" y="313.999"/>
      <point x="242.283" y="311"/>
      <point x="322" y="311" type="curve" smooth="yes"/>
      <point x="368.858" y="311"/>
      <point x="417.729" y="311.997"/>
      <point x="469.616" y="313.993" type="curve" smooth="yes"/>
      <point x="492.717" y="314.848"/>
      <point x="511.264" y="330.166"/>
      <point x="514" y="342.868" type="curve"/>
      <point x="514" y="346" type="line" smooth="yes"/>
      <point x="514" y="354.833"/>
      <point x="503.404" y="366"/>
      <point x="482" y="366" type="curve" smooth="yes"/>
      <point x="480.2" y="366" type="line"/>
      <point x="430.538" y="364.014"/>
      <point x="382.019" y="363"/>
      <point x="337" y="363" type="curve" smooth="yes"/>
      <point x="258.9" y="363"/>
      <point x="191.618" y="365.932"/>
      <point x="137.53" y="371" type="curve"/>
      <point x="133" y="371" type="line" smooth="yes"/>
      <point x="111.098" y="371"/>
      <point x="91.2234" y="357.984"/>
    </contour>
  </outline>
</glyph>
<glyph name="three" format="1">
  <advance width="720"/>
  <unicode hex="0033"/>
  <outline>
    <contour>
      <point x="103" y="633" type="curve" smooth="yes"/>
      <point x="86" y="638"/>
      <point x="76" y="651"/>
      <point x="76" y="664" type="curve" smooth="yes"/>
      <point x="76" y="671"/>
      <point x="78" y="677"/>
      <point x="83" y="684" type="curve" smooth="yes"/>
      <point x="138" y="760"/>
      <point x="234" y="808"/>
      <point x="329" y="818" type="curve" smooth="yes"/>
      <point x="342" y="819"/>
      <point x="354" y="820"/>
      <point x="366" y="820" type="curve" smooth="yes"/>
      <point x="493" y="820"/>
      <point x="599" y="749"/>
      <point x="599" y="616" type="curve" smooth="yes"/>
      <point x="599" y="535"/>
      <point x="547" y="473"/>
      <point x="488" y="436" type="curve"/>
      <point x="576" y="418"/>
      <point x="654" y="352"/>
      <point x="654" y="236" type="curve" smooth="yes"/>
      <point x="654" y="126"/>
      <point x="598" y="44"/>
      <point x="504" y="3" type="curve" smooth="yes"/>
      <point x="457" y="-18"/>
      <point x="406" y="-27"/>
      <point x="355" y="-27" type="curve" smooth="yes"/>
      <point x="238" y="-27"/>
      <point x="124" y="23"/>
      <point x="71" y="98" type="curve" smooth="yes"/>
      <point x="67" y="103"/>
      <point x="66" y="108"/>
      <point x="66" y="114" type="curve" smooth="yes"/>
      <point x="66" y="129"/>
      <point x="77" y="144"/>
      <point x="97" y="153" type="curve" smooth="yes"/>
      <point x="107" y="157"/>
      <point x="118" y="160"/>
      <point x="128" y="160" type="curve" smooth="yes"/>
      <point x="145" y="160"/>
      <point x="161" y="153"/>
      <point x="169" y="142" type="curve" smooth="yes"/>
      <point x="210" y="84"/>
      <point x="297" y="54"/>
      <point x="374" y="54" type="curve" smooth="yes"/>
      <point x="405" y="54"/>
      <point x="434" y="59"/>
      <point x="458" y="69" type="curve" smooth="yes"/>
      <point x="502" y="88"/>
      <point x="546" y="131"/>
      <point x="546" y="224" type="curve" smooth="yes"/>
      <point x="546" y="347"/>
      <point x="461" y="372"/>
      <point x="376" y="372" type="curve" smooth="yes"/>
      <point x="346" y="372"/>
      <point x="316" y="369"/>
      <point x="290" y="366" type="curve" smooth="yes"/>
      <point x="268" y="364"/>
      <point x="252" y="361"/>
      <point x="232" y="361" type="curve" smooth="yes"/>
      <point x="210" y="361"/>
      <point x="203" y="370"/>
      <point x="203" y="382" type="curve" smooth="yes"/>
      <point x="203" y="405"/>
      <point x="229" y="437"/>
      <point x="229" y="437" type="curve"/>
      <point x="306" y="457"/>
      <point x="491" y="446"/>
      <point x="491" y="604" type="curve" smooth="yes"/>
      <point x="491" y="705"/>
      <point x="421" y="741"/>
      <point x="351" y="741" type="curve" smooth="yes"/>
      <point x="344" y="741"/>
      <point x="336" y="741"/>
      <point x="329" y="740" type="curve" smooth="yes"/>
      <point x="274" y="734"/>
      <point x="214" y="707"/>
      <point x="177" y="656" type="curve" smooth="yes"/>
      <point x="165" y="640"/>
      <point x="143" y="630"/>
      <point x="121" y="630" type="curve" smooth="yes"/>
      <point x="115" y="630"/>
      <point x="109" y="631"/>
    </contour>
    <contour>
      <point x="105.993" y="642.543" type="curve" smooth="yes"/>
      <point x="111.103" y="640.84"/>
      <point x="116.115" y="640"/>
      <point x="121" y="640" type="curve" smooth="yes"/>
      <point x="140.155" y="640"/>
      <point x="159.293" y="649.058"/>
      <point x="168.952" y="661.937" type="curve"/>
      <point x="207.893" y="715.611"/>
      <point x="270.837" y="743.714"/>
      <point x="327.75" y="749.923" type="curve"/>
      <point x="335.396" y="751.015"/>
      <point x="344.086" y="751"/>
      <point x="351" y="751" type="curve" smooth="yes"/>
      <point x="424.467" y="751"/>
      <point x="501" y="711.479"/>
      <point x="501" y="604" type="curve" smooth="yes"/>
      <point x="501" y="437.675"/>
      <point x="307.992" y="445.586"/>
      <point x="234.779" y="428.134" type="curve"/>
      <point x="228.972" y="420.383"/>
      <point x="213" y="395.82"/>
      <point x="213" y="382" type="curve" smooth="yes"/>
      <point x="213" y="376.072"/>
      <point x="213.266" y="371"/>
      <point x="232" y="371" type="curve" smooth="yes"/>
      <point x="250.835" y="371"/>
      <point x="266.708" y="373.924"/>
      <point x="288.974" y="375.948" type="curve"/>
      <point x="314.817" y="378.93"/>
      <point x="345.42" y="382"/>
      <point x="376" y="382" type="curve" smooth="yes"/>
      <point x="462.606" y="382"/>
      <point x="556" y="354.519"/>
      <point x="556" y="224" type="curve" smooth="yes"/>
      <point x="556" y="127.301"/>
      <point x="509.237" y="80.2328"/>
      <point x="461.905" y="59.7939" type="curve"/>
      <point x="436.238" y="49.0993"/>
      <point x="406.095" y="44"/>
      <point x="374" y="44" type="curve" smooth="yes"/>
      <point x="294.924" y="44"/>
      <point x="204.596" y="74.3201"/>
      <point x="160.873" y="136.173" type="curve"/>
      <point x="155.416" y="143.676"/>
      <point x="142.494" y="150"/>
      <point x="128" y="150" type="curve" smooth="yes"/>
      <point x="120.072" y="150"/>
      <point x="109.757" y="147.332"/>
      <point x="100.911" y="143.794" type="curve"/>
      <point x="83.5792" y="135.995"/>
      <point x="76" y="123.791"/>
      <point x="76" y="114" type="curve" smooth="yes"/>
      <point x="76" y="109.107"/>
      <point x="76.5064" y="107.125"/>
      <point x="78.8087" y="104.247" type="curve" smooth="yes"/>
      <point x="78.9948" y="104.014" type="line"/>
      <point x="79.1667" y="103.771" type="line" smooth="yes"/>
      <point x="129.622" y="32.3716"/>
      <point x="240.515" y="-17"/>
      <point x="355" y="-17" type="curve" smooth="yes"/>
      <point x="404.835" y="-17"/>
      <point x="454.417" y="-8.20114"/>
      <point x="499.921" y="12.1301" type="curve" smooth="yes"/>
      <point x="590.635" y="51.697"/>
      <point x="644" y="129.717"/>
      <point x="644" y="236" type="curve" smooth="yes"/>
      <point x="644" y="346.631"/>
      <point x="570.45" y="408.928"/>
      <point x="485.996" y="426.203" type="curve" smooth="yes"/>
      <point x="461.534" y="431.206" type="line"/>
      <point x="482.687" y="444.472" type="line" smooth="yes"/>
      <point x="539.918" y="480.362"/>
      <point x="589" y="539.622"/>
      <point x="589" y="616" type="curve" smooth="yes"/>
      <point x="589" y="742.153"/>
      <point x="489.509" y="810"/>
      <point x="366" y="810" type="curve" smooth="yes"/>
      <point x="354.653" y="810"/>
      <point x="342.627" y="809.019"/>
      <point x="329.907" y="808.04" type="curve"/>
      <point x="237.618" y="798.326"/>
      <point x="144.046" y="751.297"/>
      <point x="91.1012" y="678.137" type="curve" smooth="yes"/>
      <point x="87.0348" y="672.444"/>
      <point x="86" y="668.882"/>
      <point x="86" y="664" type="curve" smooth="yes"/>
      <point x="86" y="656.302"/>
      <point x="92.0316" y="646.65"/>
    </contour>
  </outline>
</glyph>
<glyph name="six" format="1">
  <advance width="720"/>
  <unicode hex="0036"/>
  <outline>
    <contour>
      <point x="45" y="262" type="curve" smooth="yes"/>
      <point x="36" y="267"/>
      <point x="32" y="274"/>
      <point x="32" y="282" type="curve" smooth="yes"/>
      <point x="32" y="293"/>
      <point x="40" y="304"/>
      <point x="52" y="314" type="curve" smooth="yes"/>
      <point x="62" y="322"/>
      <point x="72" y="330"/>
      <point x="82" y="337" type="curve" smooth="yes"/>
      <point x="86" y="340"/>
      <point x="91" y="343"/>
      <point x="95" y="346" type="curve" smooth="yes"/>
      <point x="96" y="353"/>
      <point x="98" y="361"/>
      <point x="99" y="368" type="curve" smooth="yes"/>
      <point x="127" y="514"/>
      <point x="216" y="677"/>
      <point x="381" y="813" type="curve" smooth="yes"/>
      <point x="394" y="823"/>
      <point x="412" y="829"/>
      <point x="429" y="829" type="curve" smooth="yes"/>
      <point x="440" y="829"/>
      <point x="450" y="827"/>
      <point x="458" y="822" type="curve" smooth="yes"/>
      <point x="469" y="815"/>
      <point x="474" y="805"/>
      <point x="474" y="795" type="curve" smooth="yes"/>
      <point x="474" y="785"/>
      <point x="469" y="775"/>
      <point x="459" y="767" type="curve" smooth="yes"/>
      <point x="333" y="663"/>
      <point x="254" y="539"/>
      <point x="219" y="423" type="curve"/>
      <point x="291" y="458"/>
      <point x="361" y="476"/>
      <point x="423" y="476" type="curve" smooth="yes"/>
      <point x="595" y="476"/>
      <point x="668" y="354"/>
      <point x="668" y="240" type="curve" smooth="yes"/>
      <point x="668" y="222"/>
      <point x="666" y="205"/>
      <point x="663" y="188" type="curve" smooth="yes"/>
      <point x="642" y="85"/>
      <point x="547" y="-29"/>
      <point x="367" y="-29" type="curve" smooth="yes"/>
      <point x="183" y="-29"/>
      <point x="97" y="103"/>
      <point x="90" y="251" type="curve"/>
      <point x="86" y="251" type="line" smooth="yes"/>
      <point x="72" y="251"/>
      <point x="55" y="256"/>
    </contour>
    <contour>
      <point x="199" y="318" type="curve"/>
      <point x="199" y="306" type="line" smooth="yes"/>
      <point x="199" y="299"/>
      <point x="198" y="292"/>
      <point x="198" y="285" type="curve" smooth="yes"/>
      <point x="198" y="137"/>
      <point x="278" y="49"/>
      <point x="383" y="49" type="curve" smooth="yes"/>
      <point x="481" y="49"/>
      <point x="539" y="103"/>
      <point x="556" y="187" type="curve" smooth="yes"/>
      <point x="559" y="201"/>
      <point x="560" y="215"/>
      <point x="560" y="228" type="curve" smooth="yes"/>
      <point x="560" y="320"/>
      <point x="496" y="397"/>
      <point x="407" y="397" type="curve" smooth="yes"/>
      <point x="364" y="397"/>
      <point x="303" y="382"/>
      <point x="221" y="332" type="curve" smooth="yes"/>
      <point x="214" y="328"/>
      <point x="206" y="323"/>
    </contour>
    <contour>
      <point x="50.0021" y="270.661" type="curve" smooth="yes"/>
      <point x="58.1021" y="265.801"/>
      <point x="74.2112" y="261"/>
      <point x="86" y="261" type="curve" smooth="yes"/>
      <point x="99.5382" y="261" type="line"/>
      <point x="99.9888" y="251.472" type="line" smooth="yes"/>
      <point x="106.821" y="107.03"/>
      <point x="189.28" y="-19"/>
      <point x="367" y="-19" type="curve" smooth="yes"/>
      <point x="542.176" y="-19"/>
      <point x="633.099" y="91.3998"/>
      <point x="653.175" y="189.868" type="curve"/>
      <point x="656.058" y="206.202"/>
      <point x="658" y="222.824"/>
      <point x="658" y="240" type="curve" smooth="yes"/>
      <point x="658" y="349.723"/>
      <point x="588.925" y="466"/>
      <point x="423" y="466" type="curve" smooth="yes"/>
      <point x="362.925" y="466"/>
      <point x="294.311" y="448.491"/>
      <point x="223.372" y="414.006" type="curve" smooth="yes"/>
      <point x="202.828" y="404.02" type="line"/>
      <point x="209.426" y="425.889" type="line" smooth="yes"/>
      <point x="245.06" y="543.99"/>
      <point x="325.149" y="669.486"/>
      <point x="452.693" y="774.761" type="curve"/>
      <point x="460.912" y="781.336"/>
      <point x="464" y="788.46"/>
      <point x="464" y="795" type="curve" smooth="yes"/>
      <point x="464" y="801.502"/>
      <point x="461.039" y="808.213"/>
      <point x="452.631" y="813.563" type="curve" smooth="yes"/>
      <point x="446.967" y="817.104"/>
      <point x="438.82" y="819"/>
      <point x="429" y="819" type="curve" smooth="yes"/>
      <point x="414.328" y="819"/>
      <point x="398.023" y="813.478"/>
      <point x="387.23" y="805.176" type="curve"/>
      <point x="224.241" y="670.833"/>
      <point x="136.275" y="509.27"/>
      <point x="108.881" y="366.428" type="curve"/>
      <point x="107.751" y="359.064"/>
      <point x="105.779" y="350.742"/>
      <point x="104.899" y="344.586" type="curve" smooth="yes"/>
      <point x="104.314" y="340.485" type="line"/>
      <point x="101" y="338" type="line" smooth="yes"/>
      <point x="96.3171" y="334.488"/>
      <point x="91.5727" y="331.68"/>
      <point x="87.8689" y="328.902" type="curve"/>
      <point x="77.9752" y="321.976"/>
      <point x="68.2264" y="314.175"/>
      <point x="58.325" y="306.254" type="curve"/>
      <point x="47.2122" y="296.993"/>
      <point x="42" y="288.028"/>
      <point x="42" y="282" type="curve" smooth="yes"/>
      <point x="42" y="277.751"/>
      <point x="43.2661" y="274.403"/>
    </contour>
    <contour>
      <point x="189" y="323.146" type="line"/>
      <point x="193.188" y="326.137" type="line" smooth="yes"/>
      <point x="200.475" y="331.343"/>
      <point x="208.933" y="336.622"/>
      <point x="215.915" y="340.612" type="curve"/>
      <point x="298.75" y="391.121"/>
      <point x="361.703" y="407"/>
      <point x="407" y="407" type="curve" smooth="yes"/>
      <point x="502.48" y="407"/>
      <point x="570" y="324.397"/>
      <point x="570" y="228" type="curve" smooth="yes"/>
      <point x="570" y="214.524"/>
      <point x="568.953" y="199.723"/>
      <point x="565.79" y="184.96" type="curve"/>
      <point x="547.973" y="96.9258"/>
      <point x="485.442" y="39"/>
      <point x="383" y="39" type="curve" smooth="yes"/>
      <point x="271.135" y="39"/>
      <point x="188" y="133.481"/>
      <point x="188" y="285" type="curve" smooth="yes"/>
      <point x="188" y="292.951"/>
      <point x="189" y="299.951"/>
      <point x="189" y="306" type="curve" smooth="yes"/>
    </contour>
  </outline>
</glyph>
<glyph name="seven" format="1">
  <advance width="720"/>
  <unicode hex="0037"/>
  <outline>
    <contour>
      <point x="368" y="794" type="curve" smooth="yes"/>
      <point x="470" y="794"/>
      <point x="538" y="800"/>
      <point x="603" y="804" type="curve" smooth="yes"/>
      <point x="603" y="804"/>
      <point x="608" y="805"/>
      <point x="615" y="805" type="curve" smooth="yes"/>
      <point x="631" y="805"/>
      <point x="658" y="801"/>
      <point x="658" y="779" type="curve" smooth="yes"/>
      <point x="658" y="773"/>
      <point x="656" y="766"/>
      <point x="651" y="756" type="curve" smooth="yes"/>
      <point x="521" y="509"/>
      <point x="451" y="325"/>
      <point x="383" y="19" type="curve" smooth="yes"/>
      <point x="378" y="-2"/>
      <point x="349" y="-19"/>
      <point x="320" y="-19" type="curve" smooth="yes"/>
      <point x="294" y="-19"/>
      <point x="274" y="-3"/>
      <point x="274" y="15" type="curve" smooth="yes"/>
      <point x="274" y="17"/>
      <point x="275" y="19"/>
      <point x="275" y="21" type="curve" smooth="yes"/>
      <point x="339" y="309"/>
      <point x="407" y="494"/>
      <point x="522" y="721" type="curve"/>
      <point x="475" y="718"/>
      <point x="420" y="716"/>
      <point x="352" y="716" type="curve" smooth="yes"/>
      <point x="291" y="716"/>
      <point x="232" y="722"/>
      <point x="182" y="725" type="curve"/>
      <point x="191" y="689"/>
      <point x="202" y="646"/>
      <point x="209" y="599" type="curve"/>
      <point x="209" y="595" type="line" smooth="yes"/>
      <point x="209" y="577"/>
      <point x="190" y="560"/>
      <point x="165" y="555" type="curve" smooth="yes"/>
      <point x="161" y="554"/>
      <point x="157" y="554"/>
      <point x="153" y="554" type="curve" smooth="yes"/>
      <point x="131" y="554"/>
      <point x="114" y="565"/>
      <point x="111" y="581" type="curve" smooth="yes"/>
      <point x="100" y="649"/>
      <point x="82" y="709"/>
      <point x="71" y="754" type="curve" smooth="yes"/>
      <point x="71" y="754"/>
      <point x="69" y="759"/>
      <point x="69" y="766" type="curve" smooth="yes"/>
      <point x="69" y="780"/>
      <point x="76" y="801"/>
      <point x="123" y="801" type="curve" smooth="yes"/>
      <point x="130" y="801" type="line" smooth="yes"/>
      <point x="178" y="799"/>
      <point x="277" y="794"/>
    </contour>
    <contour>
      <point x="368" y="784" type="curve" smooth="yes"/>
      <point x="276.808" y="784"/>
      <point x="177.234" y="789.023"/>
      <point x="129.792" y="791" type="curve"/>
      <point x="123" y="791" type="line" smooth="yes"/>
      <point x="79.9991" y="791"/>
      <point x="79" y="774.733"/>
      <point x="79" y="766" type="curve" smooth="yes"/>
      <point x="79" y="760.554"/>
      <point x="80.36" y="757.52"/>
      <point x="80.36" y="757.52" type="curve" smooth="yes"/>
      <point x="80.5714" y="756.958" type="line"/>
      <point x="80.714" y="756.375" type="line" smooth="yes"/>
      <point x="91.5944" y="711.864"/>
      <point x="109.776" y="651.185"/>
      <point x="120.852" y="582.72" type="curve"/>
      <point x="122.584" y="573.483"/>
      <point x="133.782" y="564"/>
      <point x="153" y="564" type="curve" smooth="yes"/>
      <point x="157.028" y="564"/>
      <point x="160.107" y="564.084"/>
      <point x="162.575" y="564.701" type="curve" smooth="yes"/>
      <point x="162.805" y="564.759" type="line"/>
      <point x="163.039" y="564.806" type="line" smooth="yes"/>
      <point x="185.736" y="569.345"/>
      <point x="199" y="584.243"/>
      <point x="199" y="595" type="curve" smooth="yes"/>
      <point x="199" y="598.257" type="line"/>
      <point x="192.278" y="642.938"/>
      <point x="181.192" y="686.999"/>
      <point x="172.299" y="722.575" type="curve" smooth="yes"/>
      <point x="168.993" y="735.798" type="line"/>
      <point x="182.599" y="734.982" type="line" smooth="yes"/>
      <point x="232.908" y="731.964"/>
      <point x="291.641" y="726"/>
      <point x="352" y="726" type="curve" smooth="yes"/>
      <point x="419.805" y="726"/>
      <point x="474.577" y="727.993"/>
      <point x="521.363" y="730.98" type="curve" smooth="yes"/>
      <point x="538.831" y="732.095" type="line"/>
      <point x="530.921" y="716.481" type="line" smooth="yes"/>
      <point x="416.356" y="490.341"/>
      <point x="348.815" y="306.744"/>
      <point x="285.022" y="20.0006" type="curve"/>
      <point x="284.799" y="18.3966"/>
      <point x="284.098" y="15.1785"/>
      <point x="284.001" y="14.7407" type="curve"/>
      <point x="284.302" y="5.11166"/>
      <point x="296.932" y="-9"/>
      <point x="320" y="-9" type="curve" smooth="yes"/>
      <point x="346.213" y="-9"/>
      <point x="369.919" y="7.23182"/>
      <point x="373.254" y="21.2429" type="curve"/>
      <point x="441.331" y="327.586"/>
      <point x="511.966" y="513.306"/>
      <point x="642.102" y="760.565" type="curve"/>
      <point x="646.684" y="769.73"/>
      <point x="648" y="775.362"/>
      <point x="648" y="779" type="curve" smooth="yes"/>
      <point x="648" y="789.968"/>
      <point x="632.479" y="795"/>
      <point x="615" y="795" type="curve" smooth="yes"/>
      <point x="608.736" y="795"/>
      <point x="604.848" y="794.172"/>
      <point x="604.848" y="794.172" type="curve" smooth="yes"/>
      <point x="604.236" y="794.057" type="line"/>
      <point x="603.614" y="794.019" type="line" smooth="yes"/>
      <point x="538.811" y="790.031"/>
      <point x="470.389" y="784"/>
    </contour>
  </outline>
</glyph>
<glyph name="eight" format="1">
  <advance width="720"/>
  <unicode hex="0038"/>
  <outline>
    <contour>
      <point x="242" y="428" type="curve"/>
      <point x="135" y="476"/>
      <point x="87" y="545"/>
      <point x="87" y="613" type="curve" smooth="yes"/>
      <point x="87" y="623"/>
      <point x="88" y="633"/>
      <point x="90" y="643" type="curve" smooth="yes"/>
      <point x="108" y="734"/>
      <point x="214" y="819"/>
      <point x="348" y="819" type="curve" smooth="yes"/>
      <point x="471" y="819"/>
      <point x="548" y="764"/>
      <point x="588" y="713" type="curve" smooth="yes"/>
      <point x="592" y="708"/>
      <point x="594" y="702"/>
      <point x="594" y="696" type="curve" smooth="yes"/>
      <point x="594" y="682"/>
      <point x="583" y="667"/>
      <point x="565" y="658" type="curve" smooth="yes"/>
      <point x="555" y="653"/>
      <point x="544" y="651"/>
      <point x="533" y="651" type="curve" smooth="yes"/>
      <point x="516" y="651"/>
      <point x="501" y="657"/>
      <point x="492" y="667" type="curve" smooth="yes"/>
      <point x="460" y="706"/>
      <point x="407" y="741"/>
      <point x="332" y="741" type="curve" smooth="yes"/>
      <point x="268" y="741"/>
      <point x="209" y="700"/>
      <point x="197" y="643" type="curve" smooth="yes"/>
      <point x="196" y="637"/>
      <point x="195" y="631"/>
      <point x="195" y="625" type="curve" smooth="yes"/>
      <point x="195" y="579"/>
      <point x="229" y="525"/>
      <point x="333" y="486" type="curve"/>
      <point x="341" y="491"/>
      <point x="348" y="497"/>
      <point x="356" y="502" type="curve" smooth="yes"/>
      <point x="460" y="569"/>
      <point x="516" y="607"/>
      <point x="516" y="607" type="curve" smooth="yes"/>
      <point x="528" y="615"/>
      <point x="543" y="620"/>
      <point x="558" y="620" type="curve" smooth="yes"/>
      <point x="571" y="620"/>
      <point x="584" y="616"/>
      <point x="593" y="609" type="curve" smooth="yes"/>
      <point x="601" y="603"/>
      <point x="604" y="595"/>
      <point x="604" y="587" type="curve" smooth="yes"/>
      <point x="604" y="575"/>
      <point x="597" y="563"/>
      <point x="585" y="554" type="curve" smooth="yes"/>
      <point x="583" y="552"/>
      <point x="532" y="517"/>
      <point x="436" y="455" type="curve"/>
      <point x="586" y="405"/>
      <point x="659" y="307"/>
      <point x="659" y="211" type="curve" smooth="yes"/>
      <point x="659" y="167"/>
      <point x="644" y="124"/>
      <point x="614" y="86" type="curve" smooth="yes"/>
      <point x="563" y="21"/>
      <point x="468" y="-24"/>
      <point x="352" y="-24" type="curve" smooth="yes"/>
      <point x="173" y="-24"/>
      <point x="76" y="86"/>
      <point x="76" y="188" type="curve" smooth="yes"/>
      <point x="76" y="293"/>
      <point x="152" y="367"/>
    </contour>
    <contour>
      <point x="340" y="394" type="curve" smooth="yes"/>
      <point x="241" y="329"/>
      <point x="184" y="283"/>
      <point x="184" y="200" type="curve" smooth="yes"/>
      <point x="184" y="128"/>
      <point x="255" y="54"/>
      <point x="368" y="54" type="curve" smooth="yes"/>
      <point x="451" y="54"/>
      <point x="500" y="84"/>
      <point x="528" y="127" type="curve" smooth="yes"/>
      <point x="542" y="148"/>
      <point x="549" y="174"/>
      <point x="549" y="200" type="curve" smooth="yes"/>
      <point x="549" y="274"/>
      <point x="491" y="357"/>
      <point x="346" y="393" type="curve" smooth="yes"/>
      <point x="344" y="393"/>
      <point x="342" y="394"/>
    </contour>
    <contour>
      <point x="246.093" y="437.124" type="curve" smooth="yes"/>
      <point x="262.456" y="429.784" type="line"/>
      <point x="247.611" y="419.722" type="line" smooth="yes"/>
      <point x="158.1" y="359.054"/>
      <point x="86" y="287.565"/>
      <point x="86" y="188" type="curve" smooth="yes"/>
      <point x="86" y="92.7261"/>
      <point x="177.082" y="-14"/>
      <point x="352" y="-14" type="curve" smooth="yes"/>
      <point x="465.515" y="-14"/>
      <point x="557.449" y="30.1251"/>
      <point x="606.133" y="92.1729" type="curve" smooth="yes"/>
      <point x="634.888" y="128.596"/>
      <point x="649" y="169.305"/>
      <point x="649" y="211" type="curve" smooth="yes"/>
      <point x="649" y="301.464"/>
      <point x="580.212" y="396.388"/>
      <point x="432.838" y="445.513" type="curve" smooth="yes"/>
      <point x="413.077" y="452.1" type="line"/>
      <point x="430.575" y="463.4" type="line" smooth="yes"/>
      <point x="521.482" y="522.111"/>
      <point x="572.463" y="556.956"/>
      <point x="578.242" y="561.384" type="curve"/>
      <point x="578.431" y="561.574" type="line"/>
      <point x="579" y="562" type="line" smooth="yes"/>
      <point x="589.195" y="569.646"/>
      <point x="594" y="579.003"/>
      <point x="594" y="587" type="curve" smooth="yes"/>
      <point x="594" y="592.444"/>
      <point x="592.394" y="596.954"/>
      <point x="586.93" y="601.053" type="curve"/>
      <point x="579.953" y="606.479"/>
      <point x="569.067" y="610"/>
      <point x="558" y="610" type="curve" smooth="yes"/>
      <point x="545.204" y="610"/>
      <point x="531.984" y="605.638"/>
      <point x="521.547" y="598.679" type="curve" smooth="yes"/>
      <point x="521.547" y="598.679"/>
      <point x="465.566" y="560.69"/>
      <point x="361.358" y="493.556" type="curve"/>
      <point x="354.059" y="488.994"/>
      <point x="347.174" y="483.067"/>
      <point x="338.3" y="477.52" type="curve" smooth="yes"/>
      <point x="334.112" y="474.903" type="line"/>
      <point x="329.489" y="476.637" type="line" smooth="yes"/>
      <point x="223.593" y="516.348"/>
      <point x="185" y="573.288"/>
      <point x="185" y="625" type="curve" smooth="yes"/>
      <point x="185" y="632.242"/>
      <point x="186.092" y="638.382"/>
      <point x="187.171" y="644.853" type="curve"/>
      <point x="200.437" y="707.865"/>
      <point x="264.142" y="751"/>
      <point x="332" y="751" type="curve" smooth="yes"/>
      <point x="410.065" y="751"/>
      <point x="465.203" y="715.093"/>
      <point x="499.613" y="673.488" type="curve"/>
      <point x="506.105" y="666.592"/>
      <point x="518.158" y="661"/>
      <point x="533" y="661" type="curve" smooth="yes"/>
      <point x="542.807" y="661"/>
      <point x="552.214" y="662.788"/>
      <point x="560.528" y="666.944" type="curve" smooth="yes"/>
      <point x="576.355" y="674.858"/>
      <point x="584" y="687.26"/>
      <point x="584" y="696" type="curve" smooth="yes"/>
      <point x="584" y="699.778"/>
      <point x="582.758" y="703.544"/>
      <point x="580.191" y="706.753" type="curve" smooth="yes"/>
      <point x="541.757" y="755.757"/>
      <point x="467.835" y="809"/>
      <point x="348" y="809" type="curve" smooth="yes"/>
      <point x="217.813" y="809"/>
      <point x="116.638" y="726.135"/>
      <point x="99.8099" y="641.06" type="curve" smooth="yes"/>
      <point x="97.9262" y="631.641"/>
      <point x="97" y="622.346"/>
      <point x="97" y="613" type="curve" smooth="yes"/>
      <point x="97" y="550.241"/>
      <point x="141.141" y="484.205"/>
    </contour>
    <contour>
      <point x="334.512" y="402.359" type="curve" smooth="yes"/>
      <point x="337.011" y="404" type="line"/>
      <point x="340" y="404" type="line" smooth="yes"/>
      <point x="343.558" y="404"/>
      <point x="345.47" y="403.177"/>
      <point x="346.264" y="403" type="curve"/>
      <point x="347.223" y="403" type="line"/>
      <point x="348.41" y="402.705" type="line" smooth="yes"/>
      <point x="496.192" y="366.015"/>
      <point x="559" y="279.85"/>
      <point x="559" y="200" type="curve" smooth="yes"/>
      <point x="559" y="172.276"/>
      <point x="551.541" y="144.284"/>
      <point x="536.35" y="121.498" type="curve"/>
      <point x="506.411" y="75.5192"/>
      <point x="453.53" y="44"/>
      <point x="368" y="44" type="curve" smooth="yes"/>
      <point x="250.828" y="44"/>
      <point x="174" y="121.18"/>
      <point x="174" y="200" type="curve" smooth="yes"/>
      <point x="174" y="288.904"/>
      <point x="235.959" y="337.653"/>
    </contour>
  </outline>
</glyph>
<glyph name="colon" format="1">
  <advance width="330"/>
  <unicode hex="003A"/>
  <outline>
    <contour>
      <point x="231" y="592" type="curve" smooth="yes"/>
      <point x="233" y="590"/>
      <point x="249" y="575"/>
      <point x="249" y="551" type="curve" smooth="yes"/>
      <point x="249" y="547"/>
      <point x="249" y="542"/>
      <point x="248" y="538" type="curve" smooth="yes"/>
      <point x="243" y="512"/>
      <point x="210" y="475"/>
      <point x="155" y="475" type="curve" smooth="yes"/>
      <point x="105" y="475"/>
      <point x="81" y="506"/>
      <point x="81" y="536" type="curve" smooth="yes"/>
      <point x="81" y="559"/>
      <point x="103" y="612"/>
      <point x="175" y="612" type="curve" smooth="yes"/>
      <point x="181" y="612"/>
      <point x="187" y="611"/>
      <point x="191" y="610" type="curve" smooth="yes"/>
      <point x="207" y="606" type="line" smooth="yes"/>
      <point x="217" y="603"/>
      <point x="226" y="598"/>
    </contour>
    <contour>
      <point x="231" y="112" type="curve" smooth="yes"/>
      <point x="233" y="110"/>
      <point x="249" y="95"/>
      <point x="249" y="71" type="curve" smooth="yes"/>
      <point x="249" y="67"/>
      <point x="249" y="62"/>
      <point x="248" y="58" type="curve" smooth="yes"/>
      <point x="243" y="32"/>
      <point x="210" y="-5"/>
      <point x="155" y="-5" type="curve" smooth="yes"/>
      <point x="105" y="-5"/>
      <point x="81" y="26"/>
      <point x="81" y="56" type="curve" smooth="yes"/>
      <point x="81" y="79"/>
      <point x="103" y="132"/>
      <point x="175" y="132" type="curve" smooth="yes"/>
      <point x="181" y="132"/>
      <point x="187" y="131"/>
      <point x="191" y="130" type="curve" smooth="yes"/>
      <point x="207" y="126" type="line" smooth="yes"/>
      <point x="217" y="123"/>
      <point x="226" y="118"/>
    </contour>
    <contour>
      <point x="223.929" y="584.929" type="curve" smooth="yes"/>
      <point x="223.608" y="585.25" type="line"/>
      <point x="223.318" y="585.598" type="line" smooth="yes"/>
      <point x="220.247" y="589.283"/>
      <point x="212.884" y="593.794"/>
      <point x="204.127" y="596.422" type="curve"/>
      <point x="205.091" y="596.157"/>
      <point x="205.545" y="596.056"/>
      <point x="204.575" y="596.299" type="curve" smooth="yes"/>
      <point x="188.575" y="600.299" type="line" smooth="yes"/>
      <point x="185.307" y="601.115"/>
      <point x="179.897" y="602"/>
      <point x="175" y="602" type="curve" smooth="yes"/>
      <point x="109.108" y="602"/>
      <point x="91" y="554.224"/>
      <point x="91" y="536" type="curve" smooth="yes"/>
      <point x="91" y="511.862"/>
      <point x="109.665" y="485"/>
      <point x="155" y="485" type="curve" smooth="yes"/>
      <point x="205.474" y="485"/>
      <point x="234.202" y="519.204"/>
      <point x="238.18" y="539.888" type="curve" smooth="yes"/>
      <point x="238.232" y="540.159" type="line"/>
      <point x="238.299" y="540.425" type="line" smooth="yes"/>
      <point x="238.849" y="542.625"/>
      <point x="239" y="547.034"/>
      <point x="239" y="551" type="curve" smooth="yes"/>
      <point x="239" y="570.476"/>
      <point x="225.859" y="582.998"/>
    </contour>
    <contour>
      <point x="223.929" y="104.929" type="curve" smooth="yes"/>
      <point x="223.608" y="105.25" type="line"/>
      <point x="223.318" y="105.598" type="line" smooth="yes"/>
      <point x="220.247" y="109.283"/>
      <point x="212.884" y="113.794"/>
      <point x="204.127" y="116.422" type="curve"/>
      <point x="205.091" y="116.157"/>
      <point x="205.545" y="116.056"/>
      <point x="204.575" y="116.299" type="curve" smooth="yes"/>
      <point x="188.575" y="120.299" type="line" smooth="yes"/>
      <point x="185.307" y="121.115"/>
      <point x="179.897" y="122"/>
      <point x="175" y="122" type="curve" smooth="yes"/>
      <point x="109.108" y="122"/>
      <point x="91" y="74.2239"/>
      <point x="91" y="56" type="curve" smooth="yes"/>
      <point x="91" y="31.8616"/>
      <point x="109.665" y="5"/>
      <point x="155" y="5" type="curve" smooth="yes"/>
      <point x="205.474" y="5"/>
      <point x="234.202" y="39.2039"/>
      <point x="238.18" y="59.8885" type="curve" smooth="yes"/>
      <point x="238.232" y="60.1585" type="line"/>
      <point x="238.299" y="60.4254" type="line" smooth="yes"/>
      <point x="238.849" y="62.6254"/>
      <point x="239" y="67.0344"/>
      <point x="239" y="71" type="curve" smooth="yes"/>
      <point x="239" y="90.4761"/>
      <point x="225.859" y="102.998"/>
    </contour>
  </outline>
</glyph>
<glyph name="less" format="1">
  <advance width="600"/>
  <unicode hex="003C"/>
  <outline>
    <contour>
      <point x="521" y="80" type="curve" smooth="yes"/>
      <point x="510" y="70"/>
      <point x="494" y="65"/>
      <point x="478" y="65" type="curve" smooth="yes"/>
      <point x="468" y="65"/>
      <point x="459" y="67"/>
      <point x="451" y="71" type="curve" smooth="yes"/>
      <point x="368" y="118"/>
      <point x="195" y="229"/>
      <point x="78" y="313" type="curve" smooth="yes"/>
      <point x="72" y="317"/>
      <point x="63" y="326"/>
      <point x="63" y="337" type="curve" smooth="yes"/>
      <point x="63" y="346"/>
      <point x="69" y="356"/>
      <point x="89" y="367" type="curve" smooth="yes"/>
      <point x="196" y="426"/>
      <point x="356" y="540"/>
      <point x="443" y="603" type="curve" smooth="yes"/>
      <point x="454" y="611"/>
      <point x="468" y="616"/>
      <point x="482" y="616" type="curve" smooth="yes"/>
      <point x="493" y="616"/>
      <point x="504" y="613"/>
      <point x="512" y="607" type="curve" smooth="yes"/>
      <point x="520" y="601"/>
      <point x="524" y="594"/>
      <point x="524" y="586" type="curve" smooth="yes"/>
      <point x="524" y="576"/>
      <point x="518" y="565"/>
      <point x="507" y="557" type="curve" smooth="yes"/>
      <point x="430" y="501"/>
      <point x="301" y="407"/>
      <point x="190" y="341" type="curve"/>
      <point x="301" y="264"/>
      <point x="449" y="169"/>
      <point x="519" y="129" type="curve" smooth="yes"/>
      <point x="529" y="123"/>
      <point x="534" y="115"/>
      <point x="534" y="106" type="curve" smooth="yes"/>
      <point x="534" y="97"/>
      <point x="530" y="88"/>
    </contour>
    <contour>
      <point x="514.315" y="87.437" type="curve" smooth="yes"/>
      <point x="521.622" y="93.9321"/>
      <point x="524" y="100.14"/>
      <point x="524" y="106" type="curve" smooth="yes"/>
      <point x="524" y="110.851"/>
      <point x="521.669" y="115.737"/>
      <point x="513.946" y="120.37" type="curve"/>
      <point x="443.634" y="160.549"/>
      <point x="295.525" y="255.627"/>
      <point x="184.3" y="332.783" type="curve" smooth="yes"/>
      <point x="171.522" y="341.647" type="line"/>
      <point x="184.889" y="349.595" type="line" smooth="yes"/>
      <point x="295.277" y="415.231"/>
      <point x="424.147" y="509.108"/>
      <point x="501.118" y="565.087" type="curve" smooth="yes"/>
      <point x="510.101" y="571.62"/>
      <point x="514" y="579.991"/>
      <point x="514" y="586" type="curve" smooth="yes"/>
      <point x="514" y="590.295"/>
      <point x="512.295" y="594.278"/>
      <point x="506" y="599" type="curve" smooth="yes"/>
      <point x="500.213" y="603.34"/>
      <point x="491.265" y="606"/>
      <point x="482" y="606" type="curve" smooth="yes"/>
      <point x="470.362" y="606"/>
      <point x="458.261" y="601.734"/>
      <point x="448.882" y="594.913" type="curve" smooth="yes"/>
      <point x="361.711" y="531.789"/>
      <point x="201.772" y="417.763"/>
      <point x="93.8286" y="358.243" type="curve" smooth="yes"/>
      <point x="74.9275" y="347.847"/>
      <point x="73" y="340.675"/>
      <point x="73" y="337" type="curve" smooth="yes"/>
      <point x="73" y="331.449"/>
      <point x="78.6486" y="324.586"/>
      <point x="83.6912" y="321.224" type="curve"/>
      <point x="200.569" y="237.312"/>
      <point x="372.137" y="127.208"/>
      <point x="455.732" y="79.8125" type="curve"/>
      <point x="461.755" y="76.9341"/>
      <point x="469.401" y="75"/>
      <point x="478" y="75" type="curve" smooth="yes"/>
      <point x="492.05" y="75"/>
      <point x="505.564" y="79.4821"/>
    </contour>
  </outline>
</glyph>
<glyph name="equal" format="1">
  <advance width="600"/>
  <unicode hex="003D"/>
  <outline>
    <contour>
      <point x="77" y="249" type="curve" smooth="yes"/>
      <point x="84" y="267"/>
      <point x="108" y="281"/>
      <point x="133" y="281" type="curve" smooth="yes"/>
      <point x="138" y="281" type="line"/>
      <point x="191" y="276"/>
      <point x="259" y="273"/>
      <point x="337" y="273" type="curve" smooth="yes"/>
      <point x="382" y="273"/>
      <point x="430" y="274"/>
      <point x="480" y="276" type="curve" smooth="yes"/>
      <point x="482" y="276" type="line" smooth="yes"/>
      <point x="506" y="276"/>
      <point x="524" y="263"/>
      <point x="524" y="246" type="curve" smooth="yes"/>
      <point x="524" y="242" type="line" smooth="yes"/>
      <point x="521" y="223"/>
      <point x="497" y="205"/>
      <point x="470" y="204" type="curve" smooth="yes"/>
      <point x="418" y="202"/>
      <point x="369" y="201"/>
      <point x="322" y="201" type="curve" smooth="yes"/>
      <point x="242" y="201"/>
      <point x="170" y="204"/>
      <point x="112" y="209" type="curve" smooth="yes"/>
      <point x="90" y="211"/>
      <point x="75" y="224"/>
      <point x="75" y="240" type="curve" smooth="yes"/>
      <point x="75" y="243"/>
      <point x="76" y="246"/>
    </contour>
    <contour>
      <point x="77" y="449" type="curve" smooth="yes"/>
      <point x="84" y="467"/>
      <point x="108" y="481"/>
      <point x="133" y="481" type="curve" smooth="yes"/>
      <point x="138" y="481" type="line"/>
      <point x="191" y="476"/>
      <point x="259" y="473"/>
      <point x="337" y="473" type="curve" smooth="yes"/>
      <point x="382" y="473"/>
      <point x="430" y="474"/>
      <point x="480" y="476" type="curve" smooth="yes"/>
      <point x="482" y="476" type="line" smooth="yes"/>
      <point x="506" y="476"/>
      <point x="524" y="463"/>
      <point x="524" y="446" type="curve" smooth="yes"/>
      <point x="524" y="442" type="line" smooth="yes"/>
      <point x="521" y="423"/>
      <point x="497" y="405"/>
      <point x="470" y="404" type="curve" smooth="yes"/>
      <point x="418" y="402"/>
      <point x="369" y="401"/>
      <point x="322" y="401" type="curve" smooth="yes"/>
      <point x="242" y="401"/>
      <point x="170" y="404"/>
      <point x="112" y="409" type="curve" smooth="yes"/>
      <point x="90" y="411"/>
      <point x="75" y="424"/>
      <point x="75" y="440" type="curve" smooth="yes"/>
      <point x="75" y="443"/>
      <point x="76" y="446"/>
    </contour>
    <contour>
      <point x="86.398" y="245.576" type="curve" smooth="yes"/>
      <point x="85.5794" y="243.09"/>
      <point x="85" y="240.649"/>
      <point x="85" y="240" type="curve" smooth="yes"/>
      <point x="85" y="231.16"/>
      <point x="93.7964" y="220.696"/>
      <point x="112.905" y="218.959" type="curve" smooth="yes"/>
      <point x="170.438" y="213.999"/>
      <point x="242.283" y="211"/>
      <point x="322" y="211" type="curve" smooth="yes"/>
      <point x="368.858" y="211"/>
      <point x="417.729" y="211.997"/>
      <point x="469.616" y="213.993" type="curve" smooth="yes"/>
      <point x="492.717" y="214.848"/>
      <point x="511.264" y="230.166"/>
      <point x="514" y="242.868" type="curve"/>
      <point x="514" y="246" type="line" smooth="yes"/>
      <point x="514" y="254.833"/>
      <point x="503.404" y="266"/>
      <point x="482" y="266" type="curve" smooth="yes"/>
      <point x="480.2" y="266" type="line"/>
      <point x="430.538" y="264.014"/>
      <point x="382.019" y="263"/>
      <point x="337" y="263" type="curve" smooth="yes"/>
      <point x="258.9" y="263"/>
      <point x="191.618" y="265.932"/>
      <point x="137.53" y="271" type="curve"/>
      <point x="133" y="271" type="line" smooth="yes"/>
      <point x="111.098" y="271"/>
      <point x="91.2234" y="257.984"/>
    </contour>
    <contour>
      <point x="86.398" y="445.576" type="curve" smooth="yes"/>
      <point x="85.5794" y="443.09"/>
      <point x="85" y="440.649"/>
      <point x="85" y="440" type="curve" smooth="yes"/>
      <point x="85" y="431.16"/>
      <point x="93.7964" y="420.696"/>
      <point x="112.905" y="418.959" type="curve" smooth="yes"/>
      <point x="170.438" y="413.999"/>
      <point x="242.283" y="411"/>
      <point x="322" y="411" type="curve" smooth="yes"/>
      <point x="368.858" y="411"/>
      <point x="417.729" y="411.997"/>
      <point x="469.616" y="413.993" type="curve" smooth="yes"/>
      <point x="492.717" y="414.848"/>
      <point x="511.264" y="430.166"/>
      <point x="514" y="442.868" type="curve"/>
      <point x="514" y="446" type="line" smooth="yes"/>
      <point x="514" y="454.833"/>
      <point x="503.404" y="466"/>
      <point x="482" y="466" type="curve" smooth="yes"/>
      <point x="480.2" y="466" type="line"/>
      <point x="430.538" y="464.014"/>
      <point x="382.019" y="463"/>
      <point x="337" y="463" type="curve" smooth="yes"/>
      <point x="258.9" y="463"/>
      <point x="191.618" y="465.932"/>
      <point x="137.53" y="471" type="curve"/>
      <point x="133" y="471" type="line" smooth="yes"/>
      <point x="111.098" y="471"/>
      <point x="91.2234" y="457.984"/>
    </contour>
  </outline>
</glyph>
<glyph name="question" format="1">
  <advance width="480"/>
  <unicode hex="003F"/>
  <outline>
    <contour>
      <point x="229" y="258" type="curve" smooth="yes"/>
      <point x="222" y="256"/>
      <point x="215" y="255"/>
      <point x="209" y="255" type="curve" smooth="yes"/>
      <point x="194" y="255"/>
      <point x="184" y="262"/>
      <point x="178" y="275" type="curve" smooth="yes"/>
      <point x="166" y="303"/>
      <point x="161" y="328"/>
      <point x="161" y="351" type="curve" smooth="yes"/>
      <point x="161" y="492"/>
      <point x="351" y="559"/>
      <point x="351" y="665" type="curve" smooth="yes"/>
      <point x="351" y="693"/>
      <point x="344" y="715"/>
      <point x="334" y="732" type="curve" smooth="yes"/>
      <point x="312" y="769"/>
      <point x="271" y="784"/>
      <point x="230" y="784" type="curve" smooth="yes"/>
      <point x="208" y="784"/>
      <point x="187" y="780"/>
      <point x="168" y="773" type="curve" smooth="yes"/>
      <point x="137" y="760"/>
      <point x="108" y="738"/>
      <point x="108" y="702" type="curve" smooth="yes"/>
      <point x="108" y="687"/>
      <point x="114" y="669"/>
      <point x="126" y="648" type="curve" smooth="yes"/>
      <point x="128" y="644"/>
      <point x="130" y="639"/>
      <point x="130" y="635" type="curve" smooth="yes"/>
      <point x="130" y="621"/>
      <point x="118" y="607"/>
      <point x="99" y="599" type="curve" smooth="yes"/>
      <point x="91" y="596"/>
      <point x="82" y="594"/>
      <point x="74" y="594" type="curve" smooth="yes"/>
      <point x="57" y="594"/>
      <point x="41" y="601"/>
      <point x="34" y="612" type="curve" smooth="yes"/>
      <point x="18" y="638"/>
      <point x="11" y="664"/>
      <point x="11" y="689" type="curve" smooth="yes"/>
      <point x="11" y="753"/>
      <point x="60" y="807"/>
      <point x="131" y="835" type="curve" smooth="yes"/>
      <point x="166" y="849"/>
      <point x="205" y="856"/>
      <point x="243" y="856" type="curve" smooth="yes"/>
      <point x="318" y="856"/>
      <point x="390" y="828"/>
      <point x="426" y="768" type="curve" smooth="yes"/>
      <point x="441" y="742"/>
      <point x="449" y="711"/>
      <point x="449" y="675" type="curve" smooth="yes"/>
      <point x="449" y="503"/>
      <point x="251" y="466"/>
      <point x="251" y="354" type="curve" smooth="yes"/>
      <point x="251" y="339"/>
      <point x="254" y="323"/>
      <point x="262" y="305" type="curve" smooth="yes"/>
      <point x="263" y="302"/>
      <point x="264" y="298"/>
      <point x="264" y="295" type="curve" smooth="yes"/>
      <point x="264" y="280"/>
      <point x="250" y="265"/>
    </contour>
    <contour>
      <point x="302" y="112" type="curve" smooth="yes"/>
      <point x="304" y="110"/>
      <point x="320" y="95"/>
      <point x="320" y="71" type="curve" smooth="yes"/>
      <point x="320" y="67"/>
      <point x="320" y="62"/>
      <point x="319" y="58" type="curve" smooth="yes"/>
      <point x="314" y="32"/>
      <point x="281" y="-5"/>
      <point x="226" y="-5" type="curve" smooth="yes"/>
      <point x="176" y="-5"/>
      <point x="152" y="26"/>
      <point x="152" y="56" type="curve" smooth="yes"/>
      <point x="152" y="79"/>
      <point x="174" y="132"/>
      <point x="246" y="132" type="curve" smooth="yes"/>
      <point x="252" y="132"/>
      <point x="258" y="131"/>
      <point x="262" y="130" type="curve" smooth="yes"/>
      <point x="278" y="126" type="line" smooth="yes"/>
      <point x="288" y="123"/>
      <point x="297" y="118"/>
    </contour>
    <contour>
      <point x="226.044" y="267.556" type="curve" smooth="yes"/>
      <point x="244.899" y="273.84"/>
      <point x="254" y="286.391"/>
      <point x="254" y="295" type="curve" smooth="yes"/>
      <point x="254" y="295.989"/>
      <point x="253.567" y="298.478"/>
      <point x="252.661" y="301.388" type="curve"/>
      <point x="244.69" y="319.692"/>
      <point x="241" y="337.803"/>
      <point x="241" y="354" type="curve" smooth="yes"/>
      <point x="241" y="478.253"/>
      <point x="439" y="511.131"/>
      <point x="439" y="675" type="curve" smooth="yes"/>
      <point x="439" y="709.483"/>
      <point x="431.324" y="738.761"/>
      <point x="417.381" y="762.929" type="curve"/>
      <point x="383.917" y="818.702"/>
      <point x="315.805" y="846"/>
      <point x="243" y="846" type="curve" smooth="yes"/>
      <point x="206.217" y="846"/>
      <point x="168.41" y="839.194"/>
      <point x="134.714" y="825.715" type="curve" smooth="yes"/>
      <point x="65.8886" y="798.573"/>
      <point x="21" y="747.42"/>
      <point x="21" y="689" type="curve" smooth="yes"/>
      <point x="21" y="665.927"/>
      <point x="27.445" y="641.732"/>
      <point x="42.4771" y="617.305" type="curve"/>
      <point x="46.8172" y="610.485"/>
      <point x="59.3682" y="604"/>
      <point x="74" y="604" type="curve" smooth="yes"/>
      <point x="80.2631" y="604"/>
      <point x="88.6366" y="605.794"/>
      <point x="95.3026" y="608.293" type="curve"/>
      <point x="112.013" y="615.329"/>
      <point x="120" y="626.946"/>
      <point x="120" y="635" type="curve" smooth="yes"/>
      <point x="120" y="635.78"/>
      <point x="118.635" y="640.37"/>
      <point x="117.198" y="643.244" type="curve"/>
      <point x="105.052" y="664.765"/>
      <point x="98" y="684.353"/>
      <point x="98" y="702" type="curve" smooth="yes"/>
      <point x="98" y="744.365"/>
      <point x="131.958" y="768.729"/>
      <point x="164.336" y="782.307" type="curve"/>
      <point x="184.863" y="789.87"/>
      <point x="206.676" y="794"/>
      <point x="230" y="794" type="curve" smooth="yes"/>
      <point x="273.191" y="794"/>
      <point x="318.221" y="778.104"/>
      <point x="342.595" y="737.111" type="curve" smooth="yes"/>
      <point x="353.53" y="718.523"/>
      <point x="361" y="694.7"/>
      <point x="361" y="665" type="curve" smooth="yes"/>
      <point x="361" y="547.938"/>
      <point x="171" y="483.413"/>
      <point x="171" y="351" type="curve" smooth="yes"/>
      <point x="171" y="329.57"/>
      <point x="175.714" y="305.719"/>
      <point x="187.137" y="279.066" type="curve"/>
      <point x="191.653" y="269.282"/>
      <point x="197.68" y="265"/>
      <point x="209" y="265" type="curve" smooth="yes"/>
      <point x="213.78" y="265"/>
      <point x="220.357" y="265.931"/>
    </contour>
    <contour>
      <point x="294.929" y="104.929" type="curve" smooth="yes"/>
      <point x="294.608" y="105.25" type="line"/>
      <point x="294.318" y="105.598" type="line" smooth="yes"/>
      <point x="291.247" y="109.283"/>
      <point x="283.884" y="113.794"/>
      <point x="275.127" y="116.422" type="curve"/>
      <point x="276.091" y="116.157"/>
      <point x="276.545" y="116.056"/>
      <point x="275.575" y="116.299" type="curve" smooth="yes"/>
      <point x="259.575" y="120.299" type="line" smooth="yes"/>
      <point x="256.307" y="121.115"/>
      <point x="250.897" y="122"/>
      <point x="246" y="122" type="curve" smooth="yes"/>
      <point x="180.108" y="122"/>
      <point x="162" y="74.2239"/>
      <point x="162" y="56" type="curve" smooth="yes"/>
      <point x="162" y="31.8616"/>
      <point x="180.665" y="5"/>
      <point x="226" y="5" type="curve" smooth="yes"/>
      <point x="276.474" y="5"/>
      <point x="305.202" y="39.2039"/>
      <point x="309.18" y="59.8885" type="curve" smooth="yes"/>
      <point x="309.232" y="60.1585" type="line"/>
      <point x="309.299" y="60.4254" type="line" smooth="yes"/>
      <point x="309.849" y="62.6254"/>
      <point x="310" y="67.0344"/>
      <point x="310" y="71" type="curve" smooth="yes"/>
      <point x="310" y="90.4761"/>
      <point x="296.859" y="102.998"/>
    </contour>
  </outline>
</glyph>
<glyph name="E" format="1">
  <advance width="740"/>
  <unicode hex="0045"/>
  <outline>
    <contour>
      <point x="684" y="32" type="line" smooth="yes"/>
      <point x="681" y="11"/>
      <point x="655" y="-8"/>
      <point x="625" y="-9" type="curve" smooth="yes"/>
      <point x="523" y="-13"/>
      <point x="414" y="-24"/>
      <point x="323" y="-24" type="curve" smooth="yes"/>
      <point x="198" y="-24"/>
      <point x="106" y="-3"/>
      <point x="106" y="86" type="curve" smooth="yes"/>
      <point x="106" y="96" type="line"/>
      <point x="111" y="173"/>
      <point x="116" y="261"/>
      <point x="119" y="360" type="curve"/>
      <point x="115" y="360"/>
      <point x="112" y="361"/>
      <point x="108" y="361" type="curve" smooth="yes"/>
      <point x="83" y="362"/>
      <point x="66" y="377"/>
      <point x="66" y="395" type="curve" smooth="yes"/>
      <point x="66" y="398"/>
      <point x="66" y="400"/>
      <point x="67" y="403" type="curve" smooth="yes"/>
      <point x="72" y="422"/>
      <point x="96" y="437"/>
      <point x="121" y="439" type="curve"/>
      <point x="121" y="469"/>
      <point x="122" y="502"/>
      <point x="122" y="534" type="curve" smooth="yes"/>
      <point x="122" y="566"/>
      <point x="121" y="600"/>
      <point x="121" y="634" type="curve" smooth="yes"/>
      <point x="120" y="703"/>
      <point x="109" y="719"/>
      <point x="86" y="729" type="curve" smooth="yes"/>
      <point x="83" y="730"/>
      <point x="78" y="732"/>
      <point x="73" y="733" type="curve"/>
      <point x="73" y="733"/>
      <point x="72" y="742"/>
      <point x="72" y="754" type="curve" smooth="yes"/>
      <point x="72" y="777"/>
      <point x="77" y="809"/>
      <point x="109" y="809" type="curve" smooth="yes"/>
      <point x="111" y="809" type="line"/>
      <point x="196" y="805"/>
      <point x="271" y="804"/>
      <point x="335" y="804" type="curve" smooth="yes"/>
      <point x="469" y="804"/>
      <point x="557" y="810"/>
      <point x="600" y="814" type="curve"/>
      <point x="608" y="814" type="line" smooth="yes"/>
      <point x="634" y="814"/>
      <point x="654" y="800"/>
      <point x="654" y="781" type="curve" smooth="yes"/>
      <point x="654" y="760"/>
      <point x="630" y="739"/>
      <point x="600" y="736" type="curve" smooth="yes"/>
      <point x="551" y="731"/>
      <point x="463" y="726"/>
      <point x="330" y="726" type="curve" smooth="yes"/>
      <point x="296" y="726"/>
      <point x="259" y="726"/>
      <point x="219" y="727" type="curve"/>
      <point x="226" y="705"/>
      <point x="229" y="677"/>
      <point x="229" y="646" type="curve" smooth="yes"/>
      <point x="229" y="608"/>
      <point x="230" y="572"/>
      <point x="230" y="537" type="curve" smooth="yes"/>
      <point x="230" y="502"/>
      <point x="229" y="468"/>
      <point x="229" y="435" type="curve"/>
      <point x="265" y="434"/>
      <point x="297" y="433"/>
      <point x="329" y="433" type="curve" smooth="yes"/>
      <point x="386" y="433"/>
      <point x="443" y="435"/>
      <point x="524" y="439" type="curve"/>
      <point x="527" y="439" type="line" smooth="yes"/>
      <point x="554" y="439"/>
      <point x="574" y="425"/>
      <point x="574" y="406" type="curve" smooth="yes"/>
      <point x="574" y="403" type="line" smooth="yes"/>
      <point x="572" y="382"/>
      <point x="546" y="362"/>
      <point x="516" y="361" type="curve" smooth="yes"/>
      <point x="433" y="357"/>
      <point x="372" y="355"/>
      <point x="311" y="355" type="curve" smooth="yes"/>
      <point x="284" y="355"/>
      <point x="256" y="355"/>
      <point x="227" y="356" type="curve"/>
      <point x="224" y="262"/>
      <point x="219" y="179"/>
      <point x="214" y="104" type="curve"/>
      <point x="214" y="101" type="line" smooth="yes"/>
      <point x="214" y="67"/>
      <point x="247" y="56"/>
      <point x="331" y="56" type="curve" smooth="yes"/>
      <point x="398" y="56"/>
      <point x="496" y="63"/>
      <point x="635" y="69" type="curve"/>
      <point x="638" y="69" type="line" smooth="yes"/>
      <point x="665" y="69"/>
      <point x="684" y="55"/>
      <point x="684" y="36" type="curve" smooth="yes"/>
    </contour>
    <contour>
      <point x="674" y="32.7679" type="curve"/>
      <point x="674" y="36" type="line" smooth="yes"/>
      <point x="674" y="46.9439"/>
      <point x="662.392" y="59"/>
      <point x="638" y="59" type="curve" smooth="yes"/>
      <point x="635.216" y="59" type="line"/>
      <point x="496.821" y="53.0261"/>
      <point x="398.514" y="46"/>
      <point x="331" y="46" type="curve" smooth="yes"/>
      <point x="249.571" y="46"/>
      <point x="204" y="56.0753"/>
      <point x="204" y="101" type="curve" smooth="yes"/>
      <point x="204" y="104.333" type="line"/>
      <point x="204.022" y="104.665" type="line" smooth="yes"/>
      <point x="209.019" y="179.618"/>
      <point x="214.01" y="262.485"/>
      <point x="217.005" y="356.319" type="curve" smooth="yes"/>
      <point x="217.325" y="366.34" type="line"/>
      <point x="227.345" y="365.994" type="line" smooth="yes"/>
      <point x="256.123" y="365.002"/>
      <point x="284" y="365"/>
      <point x="311" y="365" type="curve" smooth="yes"/>
      <point x="371.824" y="365"/>
      <point x="432.488" y="366.987"/>
      <point x="515.593" y="370.992" type="curve"/>
      <point x="542.131" y="371.877"/>
      <point x="562.312" y="389.708"/>
      <point x="564" y="403.527" type="curve"/>
      <point x="564" y="406" type="line" smooth="yes"/>
      <point x="564" y="416.654"/>
      <point x="551.605" y="429"/>
      <point x="527" y="429" type="curve" smooth="yes"/>
      <point x="524" y="429" type="line"/>
      <point x="525" y="429.025"/>
      <point x="525.492" y="429.061"/>
      <point x="524.493" y="429.012" type="curve" smooth="yes"/>
      <point x="443.435" y="425.009"/>
      <point x="386.243" y="423"/>
      <point x="329" y="423" type="curve" smooth="yes"/>
      <point x="296.789" y="423"/>
      <point x="264.699" y="424.005"/>
      <point x="228.722" y="425.004" type="curve" smooth="yes"/>
      <point x="219" y="425.274" type="line"/>
      <point x="219" y="435" type="line" smooth="yes"/>
      <point x="219" y="468.202"/>
      <point x="220" y="502.19"/>
      <point x="220" y="537" type="curve" smooth="yes"/>
      <point x="220" y="571.809"/>
      <point x="219" y="607.824"/>
      <point x="219" y="646" type="curve" smooth="yes"/>
      <point x="219" y="676.363"/>
      <point x="215.987" y="703.488"/>
      <point x="209.471" y="723.968" type="curve" smooth="yes"/>
      <point x="205.214" y="737.348" type="line"/>
      <point x="219.25" y="736.997" type="line" smooth="yes"/>
      <point x="259.096" y="736.001"/>
      <point x="296" y="736"/>
      <point x="330" y="736" type="curve" smooth="yes"/>
      <point x="462.737" y="736"/>
      <point x="550.49" y="741"/>
      <point x="598.985" y="745.948" type="curve" smooth="yes"/>
      <point x="626.007" y="748.651"/>
      <point x="644" y="767.563"/>
      <point x="644" y="781" type="curve" smooth="yes"/>
      <point x="644" y="791.752"/>
      <point x="631.456" y="804"/>
      <point x="608" y="804" type="curve" smooth="yes"/>
      <point x="600.463" y="804" type="line"/>
      <point x="558.195" y="800.084"/>
      <point x="469.006" y="794"/>
      <point x="335" y="794" type="curve" smooth="yes"/>
      <point x="270.895" y="794"/>
      <point x="195.727" y="795.002"/>
      <point x="110.53" y="799.011" type="curve"/>
      <point x="111.53" y="798.988"/>
      <point x="112" y="799"/>
      <point x="111" y="799" type="curve" smooth="yes"/>
      <point x="109" y="799" type="line" smooth="yes"/>
      <point x="86.9899" y="799"/>
      <point x="82" y="777.78"/>
      <point x="82" y="754" type="curve" smooth="yes"/>
      <point x="82" y="748.813"/>
      <point x="82.1416" y="745.274"/>
      <point x="82.4037" y="740.819" type="curve"/>
      <point x="83.9269" y="740.32"/>
      <point x="88.115" y="738.836"/>
      <point x="89.1623" y="738.487" type="curve" smooth="yes"/>
      <point x="89.5818" y="738.347" type="line"/>
      <point x="89.9873" y="738.171" type="line" smooth="yes"/>
      <point x="118.136" y="725.932"/>
      <point x="129.993" y="703.541"/>
      <point x="131" y="634.072" type="curve"/>
      <point x="131" y="600.106"/>
      <point x="132" y="566.247"/>
      <point x="132" y="534" type="curve" smooth="yes"/>
      <point x="132" y="501.797"/>
      <point x="131" y="468.784"/>
      <point x="131" y="439" type="curve" smooth="yes"/>
      <point x="131" y="429.768" type="line"/>
      <point x="121.797" y="429.032" type="line" smooth="yes"/>
      <point x="99.2999" y="427.232"/>
      <point x="80.0643" y="413.351"/>
      <point x="76.6707" y="400.455" type="curve" smooth="yes"/>
      <point x="76.5887" y="400.143" type="line"/>
      <point x="76.4868" y="399.838" type="line" smooth="yes"/>
      <point x="75.9455" y="398.214"/>
      <point x="76" y="398.149"/>
      <point x="76" y="395" type="curve" smooth="yes"/>
      <point x="76" y="384.152"/>
      <point x="86.9039" y="371.852"/>
      <point x="108.2" y="371" type="curve"/>
      <point x="113.598" y="371"/>
      <point x="116.979" y="370"/>
      <point x="119" y="370" type="curve" smooth="yes"/>
      <point x="129.308" y="370" type="line"/>
      <point x="128.995" y="359.697" type="line" smooth="yes"/>
      <point x="125.991" y="260.548"/>
      <point x="121.069" y="173.818"/>
      <point x="116" y="95.6755" type="curve"/>
      <point x="116" y="86" type="line" smooth="yes"/>
      <point x="116" y="7.60197"/>
      <point x="196.32" y="-14"/>
      <point x="323" y="-14" type="curve" smooth="yes"/>
      <point x="413.235" y="-14"/>
      <point x="522.2" y="-3.02367"/>
      <point x="624.608" y="0.99232" type="curve" smooth="yes"/>
      <point x="650.906" y="1.86892"/>
      <point x="671.167" y="18.2312"/>
    </contour>
  </outline>
</glyph>
<glyph name="G" format="1">
  <advance width="790"/>
  <unicode hex="0047"/>
  <outline>
    <contour>
      <point x="387" y="316" type="curve" smooth="yes"/>
      <point x="386" y="319"/>
      <point x="386" y="322"/>
      <point x="386" y="325" type="curve" smooth="yes"/>
      <point x="386" y="343"/>
      <point x="403" y="360"/>
      <point x="428" y="367" type="curve" smooth="yes"/>
      <point x="467" y="378"/>
      <point x="548" y="395"/>
      <point x="596" y="399" type="curve" smooth="yes"/>
      <point x="600" y="399"/>
      <point x="603" y="400"/>
      <point x="606" y="400" type="curve" smooth="yes"/>
      <point x="615" y="400"/>
      <point x="624" y="399"/>
      <point x="632" y="397" type="curve" smooth="yes"/>
      <point x="703" y="383"/>
      <point x="725" y="324"/>
      <point x="725" y="264" type="curve" smooth="yes"/>
      <point x="725" y="244"/>
      <point x="723" y="225"/>
      <point x="719" y="206" type="curve" smooth="yes"/>
      <point x="699" y="107"/>
      <point x="608" y="-24"/>
      <point x="412" y="-24" type="curve" smooth="yes"/>
      <point x="210" y="-24"/>
      <point x="71" y="128"/>
      <point x="71" y="387" type="curve" smooth="yes"/>
      <point x="71" y="651"/>
      <point x="228" y="799"/>
      <point x="408" y="818" type="curve" smooth="yes"/>
      <point x="421" y="819"/>
      <point x="433" y="820"/>
      <point x="446" y="820" type="curve" smooth="yes"/>
      <point x="576" y="820"/>
      <point x="680" y="746"/>
      <point x="680" y="632" type="curve" smooth="yes"/>
      <point x="680" y="611"/>
      <point x="656" y="590"/>
      <point x="626" y="587" type="curve" smooth="yes"/>
      <point x="618" y="587" type="line" smooth="yes"/>
      <point x="592" y="587"/>
      <point x="572" y="601"/>
      <point x="572" y="620" type="curve" smooth="yes"/>
      <point x="572" y="699"/>
      <point x="504" y="741"/>
      <point x="430" y="741" type="curve" smooth="yes"/>
      <point x="423" y="741"/>
      <point x="415" y="741"/>
      <point x="408" y="740" type="curve" smooth="yes"/>
      <point x="318" y="730"/>
      <point x="179" y="648"/>
      <point x="179" y="399" type="curve" smooth="yes"/>
      <point x="179" y="152"/>
      <point x="312" y="54"/>
      <point x="428" y="54" type="curve" smooth="yes"/>
      <point x="536" y="54"/>
      <point x="594" y="121"/>
      <point x="611" y="206" type="curve" smooth="yes"/>
      <point x="614" y="219"/>
      <point x="615" y="231"/>
      <point x="615" y="242" type="curve" smooth="yes"/>
      <point x="615" y="284"/>
      <point x="599" y="315"/>
      <point x="590" y="321" type="curve"/>
      <point x="562" y="318"/>
      <point x="478" y="300"/>
      <point x="452" y="293" type="curve" smooth="yes"/>
      <point x="446" y="291"/>
      <point x="439" y="290"/>
      <point x="433" y="290" type="curve" smooth="yes"/>
      <point x="411" y="290"/>
      <point x="392" y="300"/>
    </contour>
    <contour>
      <point x="396.517" y="319.073" type="curve" smooth="yes"/>
      <point x="399.622" y="309.137"/>
      <point x="413.359" y="300"/>
      <point x="433" y="300" type="curve" smooth="yes"/>
      <point x="437.913" y="300"/>
      <point x="444.08" y="300.901"/>
      <point x="448.838" y="302.487" type="curve" smooth="yes"/>
      <point x="449.117" y="302.58" type="line"/>
      <point x="449.4" y="302.656" type="line" smooth="yes"/>
      <point x="476.238" y="309.882"/>
      <point x="559.511" y="327.791"/>
      <point x="588.935" y="330.943" type="curve" smooth="yes"/>
      <point x="592.535" y="331.329" type="line"/>
      <point x="595.547" y="329.321" type="line" smooth="yes"/>
      <point x="609.821" y="319.805"/>
      <point x="625" y="285.899"/>
      <point x="625" y="242" type="curve" smooth="yes"/>
      <point x="625" y="230.483"/>
      <point x="623.896" y="217.41"/>
      <point x="620.777" y="203.895" type="curve"/>
      <point x="603.123" y="115.623"/>
      <point x="541.136" y="44"/>
      <point x="428" y="44" type="curve" smooth="yes"/>
      <point x="305.519" y="44"/>
      <point x="169" y="148.122"/>
      <point x="169" y="399" type="curve" smooth="yes"/>
      <point x="169" y="652.447"/>
      <point x="311.973" y="739.392"/>
      <point x="406.74" y="749.922" type="curve"/>
      <point x="414.408" y="751.017"/>
      <point x="423.079" y="751"/>
      <point x="430" y="751" type="curve" smooth="yes"/>
      <point x="507.202" y="751"/>
      <point x="582" y="706.272"/>
      <point x="582" y="620" type="curve" smooth="yes"/>
      <point x="582" y="609.248"/>
      <point x="594.544" y="597"/>
      <point x="618" y="597" type="curve" smooth="yes"/>
      <point x="625.496" y="597" type="line"/>
      <point x="651.561" y="599.987"/>
      <point x="670" y="618.294"/>
      <point x="670" y="632" type="curve" smooth="yes"/>
      <point x="670" y="738.609"/>
      <point x="572.793" y="810"/>
      <point x="446" y="810" type="curve" smooth="yes"/>
      <point x="433.615" y="810"/>
      <point x="421.629" y="809.019"/>
      <point x="408.909" y="808.04" type="curve"/>
      <point x="234.472" y="789.628"/>
      <point x="81" y="646.592"/>
      <point x="81" y="387" type="curve" smooth="yes"/>
      <point x="81" y="131.788"/>
      <point x="216.405" y="-14"/>
      <point x="412" y="-14" type="curve" smooth="yes"/>
      <point x="602.698" y="-14"/>
      <point x="689.96" y="112.751"/>
      <point x="709.198" y="207.98" type="curve" smooth="yes"/>
      <point x="713.095" y="226.492"/>
      <point x="715" y="244.626"/>
      <point x="715" y="264" type="curve" smooth="yes"/>
      <point x="715" y="321.989"/>
      <point x="694.642" y="374.456"/>
      <point x="630.065" y="387.189" type="curve" smooth="yes"/>
      <point x="629.819" y="387.238" type="line"/>
      <point x="629.575" y="387.299" type="line" smooth="yes"/>
      <point x="622.519" y="389.062"/>
      <point x="614.261" y="390"/>
      <point x="606" y="390" type="curve" smooth="yes"/>
      <point x="604.315" y="390"/>
      <point x="604.599" y="389.368"/>
      <point x="595.928" y="388.958" type="curve"/>
      <point x="551.22" y="385.122"/>
      <point x="468.411" y="368.008"/>
      <point x="430.715" y="357.376" type="curve" smooth="yes"/>
      <point x="407.874" y="350.98"/>
      <point x="396" y="336.375"/>
      <point x="396" y="325" type="curve" smooth="yes"/>
      <point x="396" y="321.896"/>
      <point x="396.093" y="320.343"/>
    </contour>
  </outline>
</glyph>
<glyph name="H" format="1">
  <advance width="820"/>
  <unicode hex="0048"/>
  <outline>
    <contour>
      <point x="666" y="-9" type="curve" smooth="yes"/>
      <point x="663" y="-9"/>
      <point x="660" y="-10"/>
      <point x="657" y="-10" type="curve" smooth="yes"/>
      <point x="631" y="-10"/>
      <point x="612" y="5"/>
      <point x="611" y="24" type="curve" smooth="yes"/>
      <point x="609" y="107"/>
      <point x="607" y="228"/>
      <point x="606" y="358" type="curve"/>
      <point x="536" y="356"/>
      <point x="460" y="355"/>
      <point x="383" y="355" type="curve" smooth="yes"/>
      <point x="328" y="355"/>
      <point x="273" y="356"/>
      <point x="221" y="357" type="curve"/>
      <point x="221" y="247"/>
      <point x="220" y="134"/>
      <point x="219" y="31" type="curve" smooth="yes"/>
      <point x="219" y="10"/>
      <point x="195" y="-11"/>
      <point x="165" y="-14" type="curve" smooth="yes"/>
      <point x="157" y="-14" type="line" smooth="yes"/>
      <point x="131" y="-14"/>
      <point x="111" y="0"/>
      <point x="111" y="19" type="curve" smooth="yes"/>
      <point x="112" y="126"/>
      <point x="113" y="246"/>
      <point x="113" y="361" type="curve"/>
      <point x="108" y="361" type="line" smooth="yes"/>
      <point x="83" y="362"/>
      <point x="66" y="377"/>
      <point x="66" y="395" type="curve" smooth="yes"/>
      <point x="66" y="398"/>
      <point x="66" y="400"/>
      <point x="67" y="403" type="curve" smooth="yes"/>
      <point x="72" y="420"/>
      <point x="91" y="434"/>
      <point x="113" y="438" type="curve"/>
      <point x="112" y="563"/>
      <point x="109" y="678"/>
      <point x="101" y="762" type="curve"/>
      <point x="101" y="765" type="line" smooth="yes"/>
      <point x="101" y="785"/>
      <point x="122" y="803"/>
      <point x="151" y="808" type="curve" smooth="yes"/>
      <point x="155" y="809"/>
      <point x="159" y="809"/>
      <point x="163" y="809" type="curve" smooth="yes"/>
      <point x="188" y="809"/>
      <point x="207" y="796"/>
      <point x="209" y="778" type="curve" smooth="yes"/>
      <point x="217" y="688"/>
      <point x="220" y="566"/>
      <point x="221" y="436" type="curve"/>
      <point x="291" y="434"/>
      <point x="368" y="433"/>
      <point x="445" y="433" type="curve" smooth="yes"/>
      <point x="500" y="433"/>
      <point x="555" y="434"/>
      <point x="606" y="435" type="curve"/>
      <point x="606" y="490"/>
      <point x="605" y="545"/>
      <point x="605" y="600" type="curve" smooth="yes"/>
      <point x="605" y="655"/>
      <point x="606" y="709"/>
      <point x="606" y="759" type="curve" smooth="yes"/>
      <point x="606" y="780"/>
      <point x="630" y="801"/>
      <point x="660" y="804" type="curve" smooth="yes"/>
      <point x="668" y="804" type="line" smooth="yes"/>
      <point x="694" y="804"/>
      <point x="714" y="790"/>
      <point x="714" y="771" type="curve" smooth="yes"/>
      <point x="714" y="719"/>
      <point x="713" y="664"/>
      <point x="713" y="608" type="curve" smooth="yes"/>
      <point x="713" y="552"/>
      <point x="714" y="495"/>
      <point x="714" y="439" type="curve"/>
      <point x="738" y="437"/>
      <point x="754" y="424"/>
      <point x="754" y="406" type="curve" smooth="yes"/>
      <point x="754" y="403" type="line" smooth="yes"/>
      <point x="752" y="386"/>
      <point x="736" y="370"/>
      <point x="714" y="364" type="curve"/>
      <point x="715" y="236"/>
      <point x="717" y="118"/>
      <point x="719" y="36" type="curve" smooth="yes"/>
      <point x="719" y="35" type="line" smooth="yes"/>
      <point x="719" y="14"/>
      <point x="695" y="-5"/>
    </contour>
    <contour>
      <point x="665.374" y="1.01201" type="curve" smooth="yes"/>
      <point x="690.716" y="4.84184"/>
      <point x="709" y="21.6465"/>
      <point x="709" y="35" type="curve" smooth="yes"/>
      <point x="709" y="35.8781" type="line"/>
      <point x="707.005" y="117.663"/>
      <point x="705" y="235.945"/>
      <point x="704" y="363.922" type="curve" smooth="yes"/>
      <point x="703.94" y="371.622" type="line"/>
      <point x="711.369" y="373.648" type="line" smooth="yes"/>
      <point x="730.278" y="378.805"/>
      <point x="742.345" y="392.146"/>
      <point x="744" y="403.642" type="curve"/>
      <point x="744" y="406" type="line" smooth="yes"/>
      <point x="744" y="416.8"/>
      <point x="734.519" y="427.255"/>
      <point x="713.17" y="429.035" type="curve" smooth="yes"/>
      <point x="704" y="429.799" type="line"/>
      <point x="704" y="439" type="line" smooth="yes"/>
      <point x="704" y="494.882"/>
      <point x="703" y="551.882"/>
      <point x="703" y="608" type="curve" smooth="yes"/>
      <point x="703" y="664.118"/>
      <point x="704" y="719.127"/>
      <point x="704" y="771" type="curve" smooth="yes"/>
      <point x="704" y="781.752"/>
      <point x="691.456" y="794"/>
      <point x="668" y="794" type="curve" smooth="yes"/>
      <point x="660.504" y="794" type="line"/>
      <point x="634.439" y="791.013"/>
      <point x="616" y="772.706"/>
      <point x="616" y="759" type="curve" smooth="yes"/>
      <point x="616" y="708.869"/>
      <point x="615" y="654.88"/>
      <point x="615" y="600" type="curve" smooth="yes"/>
      <point x="615" y="545.121"/>
      <point x="616" y="490.121"/>
      <point x="616" y="435" type="curve" smooth="yes"/>
      <point x="616" y="425.194" type="line"/>
      <point x="606.196" y="425.002" type="line" smooth="yes"/>
      <point x="555.185" y="424.002"/>
      <point x="500.12" y="423"/>
      <point x="445" y="423" type="curve" smooth="yes"/>
      <point x="367.913" y="423"/>
      <point x="290.828" y="424.001"/>
      <point x="220.714" y="426.004" type="curve" smooth="yes"/>
      <point x="211.074" y="426.28" type="line"/>
      <point x="211" y="435.923" type="line" smooth="yes"/>
      <point x="210.002" y="565.731"/>
      <point x="206.978" y="687.807"/>
      <point x="199.049" y="777.005" type="curve"/>
      <point x="197.867" y="787.64"/>
      <point x="185.232" y="799"/>
      <point x="163" y="799" type="curve" smooth="yes"/>
      <point x="158.972" y="799"/>
      <point x="155.893" y="798.916"/>
      <point x="153.425" y="798.299" type="curve" smooth="yes"/>
      <point x="153.065" y="798.209" type="line"/>
      <point x="152.699" y="798.145" type="line" smooth="yes"/>
      <point x="125.703" y="793.491"/>
      <point x="111" y="777.545"/>
      <point x="111" y="765" type="curve" smooth="yes"/>
      <point x="111" y="762.475" type="line"/>
      <point x="118.904" y="678.971"/>
      <point x="122.001" y="562.902"/>
      <point x="123" y="438.08" type="curve" smooth="yes"/>
      <point x="123.067" y="429.666" type="line"/>
      <point x="114.789" y="428.161" type="line" smooth="yes"/>
      <point x="95.3329" y="424.624"/>
      <point x="80.1571" y="412.294"/>
      <point x="76.5433" y="400.007" type="curve"/>
      <point x="75.8808" y="398.02"/>
      <point x="76" y="398.239"/>
      <point x="76" y="395" type="curve" smooth="yes"/>
      <point x="76" y="384.152"/>
      <point x="86.9039" y="371.852"/>
      <point x="108.2" y="371" type="curve"/>
      <point x="123" y="371" type="line"/>
      <point x="123" y="361" type="line" smooth="yes"/>
      <point x="123" y="245.943"/>
      <point x="122" y="125.915"/>
      <point x="121" y="18.9065" type="curve" smooth="yes"/>
      <point x="121" y="8.3053"/>
      <point x="133.545" y="-4"/>
      <point x="157" y="-4" type="curve" smooth="yes"/>
      <point x="164.496" y="-4" type="line"/>
      <point x="190.561" y="-1.01341"/>
      <point x="209" y="17.2937"/>
      <point x="209" y="31" type="curve" smooth="yes"/>
      <point x="210.002" y="134.219"/>
      <point x="211" y="246.995"/>
      <point x="211" y="357" type="curve" smooth="yes"/>
      <point x="211" y="367.194" type="line"/>
      <point x="221.192" y="366.998" type="line" smooth="yes"/>
      <point x="273.184" y="365.998"/>
      <point x="328.121" y="365"/>
      <point x="383" y="365" type="curve" smooth="yes"/>
      <point x="459.913" y="365"/>
      <point x="535.825" y="365.999"/>
      <point x="605.714" y="367.996" type="curve" smooth="yes"/>
      <point x="615.921" y="368.288" type="line"/>
      <point x="616" y="358.077" type="line" smooth="yes"/>
      <point x="616.999" y="228.228"/>
      <point x="619.003" y="106.981"/>
      <point x="620.994" y="24.3833" type="curve"/>
      <point x="621.605" y="12.7636"/>
      <point x="634.317" y="0"/>
      <point x="657" y="0" type="curve" smooth="yes"/>
      <point x="658.332" y="0"/>
      <point x="658.88" y="0.584407"/>
    </contour>
  </outline>
</glyph>
<glyph name="K" format="1">
  <advance width="780"/>
  <unicode hex="004B"/>
  <outline>
    <contour>
      <point x="129" y="807" type="curve" smooth="yes"/>
      <point x="135" y="809"/>
      <point x="142" y="809"/>
      <point x="148" y="809" type="curve" smooth="yes"/>
      <point x="170" y="809"/>
      <point x="188" y="800"/>
      <point x="193" y="784" type="curve" smooth="yes"/>
      <point x="207" y="738"/>
      <point x="216" y="658"/>
      <point x="221" y="544" type="curve"/>
      <point x="379" y="632"/>
      <point x="529" y="734"/>
      <point x="595" y="792" type="curve" smooth="yes"/>
      <point x="607" y="803"/>
      <point x="625" y="809"/>
      <point x="642" y="809" type="curve" smooth="yes"/>
      <point x="653" y="809"/>
      <point x="664" y="807"/>
      <point x="672" y="802" type="curve" smooth="yes"/>
      <point x="684" y="796"/>
      <point x="689" y="786"/>
      <point x="689" y="776" type="curve" smooth="yes"/>
      <point x="689" y="767"/>
      <point x="685" y="757"/>
      <point x="675" y="748" type="curve" smooth="yes"/>
      <point x="589" y="673"/>
      <point x="413" y="559"/>
      <point x="232" y="463" type="curve"/>
      <point x="475" y="353"/>
      <point x="702" y="97"/>
      <point x="738" y="54" type="curve" smooth="yes"/>
      <point x="742" y="49"/>
      <point x="744" y="43"/>
      <point x="744" y="37" type="curve" smooth="yes"/>
      <point x="744" y="23"/>
      <point x="734" y="8"/>
      <point x="716" y="-1" type="curve" smooth="yes"/>
      <point x="705" y="-6"/>
      <point x="693" y="-9"/>
      <point x="681" y="-9" type="curve" smooth="yes"/>
      <point x="665" y="-9"/>
      <point x="650" y="-4"/>
      <point x="642" y="6" type="curve" smooth="yes"/>
      <point x="613" y="41"/>
      <point x="422" y="253"/>
      <point x="226" y="367" type="curve"/>
      <point x="228" y="270"/>
      <point x="229" y="158"/>
      <point x="229" y="31" type="curve" smooth="yes"/>
      <point x="229" y="10"/>
      <point x="205" y="-11"/>
      <point x="175" y="-14" type="curve" smooth="yes"/>
      <point x="167" y="-14" type="line" smooth="yes"/>
      <point x="141" y="-14"/>
      <point x="121" y="0"/>
      <point x="121" y="19" type="curve" smooth="yes"/>
      <point x="121" y="174"/>
      <point x="119" y="308"/>
      <point x="116" y="419" type="curve" smooth="yes"/>
      <point x="112" y="421"/>
      <point x="107" y="422"/>
      <point x="103" y="423" type="curve" smooth="yes"/>
      <point x="103" y="423"/>
      <point x="64" y="429"/>
      <point x="64" y="446" type="curve" smooth="yes"/>
      <point x="64" y="455"/>
      <point x="74" y="466"/>
      <point x="104" y="481" type="curve" smooth="yes"/>
      <point x="107" y="483"/>
      <point x="110" y="484"/>
      <point x="113" y="486" type="curve" smooth="yes"/>
      <point x="108" y="622"/>
      <point x="100" y="714"/>
      <point x="87" y="756" type="curve" smooth="yes"/>
      <point x="86" y="758"/>
      <point x="86" y="761"/>
      <point x="86" y="764" type="curve" smooth="yes"/>
      <point x="86" y="782"/>
      <point x="104" y="801"/>
    </contour>
    <contour>
      <point x="132.162" y="797.513" type="curve" smooth="yes"/>
      <point x="131.753" y="797.377" type="line"/>
      <point x="131.334" y="797.276" type="line" smooth="yes"/>
      <point x="109.178" y="791.959"/>
      <point x="96" y="775.447"/>
      <point x="96" y="764" type="curve" smooth="yes"/>
      <point x="96" y="762.128"/>
      <point x="96.051" y="760.654"/>
      <point x="96.1354" y="760.09" type="curve"/>
      <point x="96.3106" y="759.739" type="line"/>
      <point x="96.5529" y="758.957" type="line" smooth="yes"/>
      <point x="110.27" y="714.64"/>
      <point x="117.981" y="622.698"/>
      <point x="122.993" y="486.367" type="curve" smooth="yes"/>
      <point x="123.199" y="480.781" type="line"/>
      <point x="118.547" y="477.679" type="line" smooth="yes"/>
      <point x="114.184" y="474.771"/>
      <point x="111.184" y="473.771"/>
      <point x="109.547" y="472.679" type="curve" smooth="yes"/>
      <point x="109.029" y="472.334" type="line"/>
      <point x="108.472" y="472.056" type="line" smooth="yes"/>
      <point x="78.0303" y="456.835"/>
      <point x="74" y="447.302"/>
      <point x="74" y="446" type="curve" smooth="yes"/>
      <point x="74" y="441.854"/>
      <point x="100.479" y="433.523"/>
      <point x="104.562" y="432.877" type="curve" smooth="yes"/>
      <point x="104.997" y="432.808" type="line"/>
      <point x="105.425" y="432.701" type="line" smooth="yes"/>
      <point x="109.086" y="431.786"/>
      <point x="114.767" y="430.797"/>
      <point x="120.472" y="427.944" type="curve" smooth="yes"/>
      <point x="125.834" y="425.263" type="line"/>
      <point x="125.996" y="419.27" type="line" smooth="yes"/>
      <point x="128.999" y="308.173"/>
      <point x="131" y="174.086"/>
      <point x="131" y="19" type="curve" smooth="yes"/>
      <point x="131" y="8.24765"/>
      <point x="143.544" y="-4"/>
      <point x="167" y="-4" type="curve" smooth="yes"/>
      <point x="174.496" y="-4" type="line"/>
      <point x="200.561" y="-1.01341"/>
      <point x="219" y="17.2937"/>
      <point x="219" y="31" type="curve" smooth="yes"/>
      <point x="219" y="157.947"/>
      <point x="218" y="269.883"/>
      <point x="216.002" y="366.794" type="curve" smooth="yes"/>
      <point x="215.635" y="384.597" type="line"/>
      <point x="231.028" y="375.644" type="line" smooth="yes"/>
      <point x="429.132" y="260.42"/>
      <point x="620.031" y="48.1878"/>
      <point x="649.755" y="12.314" type="curve"/>
      <point x="655.069" y="5.67109"/>
      <point x="666.744" y="1"/>
      <point x="681" y="1" type="curve" smooth="yes"/>
      <point x="691.239" y="1"/>
      <point x="702.169" y="3.69776"/>
      <point x="711.693" y="8.02706" type="curve"/>
      <point x="726.926" y="15.6434"/>
      <point x="734" y="27.8649"/>
      <point x="734" y="37" type="curve" smooth="yes"/>
      <point x="734" y="40.7398"/>
      <point x="732.687" y="44.6331"/>
      <point x="730.261" y="47.6661" type="curve"/>
      <point x="694.887" y="89.9186"/>
      <point x="467.96" y="345.21"/>
      <point x="227.876" y="453.89" type="curve" smooth="yes"/>
      <point x="209.319" y="462.29" type="line"/>
      <point x="227.314" y="471.834" type="line" smooth="yes"/>
      <point x="407.698" y="567.507"/>
      <point x="583.627" y="681.583"/>
      <point x="668.368" y="755.485" type="curve"/>
      <point x="676.471" y="762.777"/>
      <point x="679" y="770.09"/>
      <point x="679" y="776" type="curve" smooth="yes"/>
      <point x="679" y="782.476"/>
      <point x="676.261" y="788.689"/>
      <point x="667.528" y="793.056" type="curve" smooth="yes"/>
      <point x="667.103" y="793.268" type="line"/>
      <point x="666.7" y="793.52" type="line" smooth="yes"/>
      <point x="661.126" y="797.004"/>
      <point x="651.887" y="799"/>
      <point x="642" y="799" type="curve" smooth="yes"/>
      <point x="627.178" y="799"/>
      <point x="611.562" y="793.616"/>
      <point x="601.68" y="784.558" type="curve"/>
      <point x="534.449" y="725.476"/>
      <point x="384.502" y="623.618"/>
      <point x="225.866" y="535.264" type="curve" smooth="yes"/>
      <point x="211.719" y="527.384" type="line"/>
      <point x="211.01" y="543.562" type="line" smooth="yes"/>
      <point x="206.025" y="657.204"/>
      <point x="196.893" y="736.864"/>
      <point x="183.433" y="781.088" type="curve" smooth="yes"/>
      <point x="180.384" y="790.845"/>
      <point x="167.897" y="799"/>
      <point x="148" y="799" type="curve" smooth="yes"/>
      <point x="141.987" y="799"/>
      <point x="136.012" y="798.796"/>
    </contour>
  </outline>
</glyph>
<glyph name="L" format="1">
  <advance width="660"/>
  <unicode hex="004C"/>
  <outline>
    <contour>
      <point x="634" y="32" type="line" smooth="yes"/>
      <point x="631" y="11"/>
      <point x="605" y="-8"/>
      <point x="575" y="-9" type="curve" smooth="yes"/>
      <point x="475" y="-13"/>
      <point x="382" y="-23"/>
      <point x="307" y="-23" type="curve" smooth="yes"/>
      <point x="198" y="-23"/>
      <point x="126" y="-3"/>
      <point x="126" y="84" type="curve" smooth="yes"/>
      <point x="126" y="96" type="line"/>
      <point x="132" y="188"/>
      <point x="144" y="355"/>
      <point x="144" y="514" type="curve" smooth="yes"/>
      <point x="144" y="601"/>
      <point x="140" y="686"/>
      <point x="131" y="756" type="curve"/>
      <point x="131" y="760" type="line" smooth="yes"/>
      <point x="131" y="780"/>
      <point x="153" y="798"/>
      <point x="180" y="803" type="curve" smooth="yes"/>
      <point x="184" y="804"/>
      <point x="188" y="804"/>
      <point x="192" y="804" type="curve" smooth="yes"/>
      <point x="216" y="804"/>
      <point x="236" y="792"/>
      <point x="239" y="774" type="curve" smooth="yes"/>
      <point x="249" y="701"/>
      <point x="252" y="613"/>
      <point x="252" y="525" type="curve" smooth="yes"/>
      <point x="252" y="363"/>
      <point x="240" y="197"/>
      <point x="234" y="104" type="curve"/>
      <point x="234" y="94" type="line" smooth="yes"/>
      <point x="234" y="64"/>
      <point x="247" y="55"/>
      <point x="302" y="55" type="curve" smooth="yes"/>
      <point x="353" y="55"/>
      <point x="440" y="63"/>
      <point x="585" y="69" type="curve"/>
      <point x="588" y="69" type="line" smooth="yes"/>
      <point x="615" y="69"/>
      <point x="634" y="55"/>
      <point x="634" y="36" type="curve" smooth="yes"/>
    </contour>
    <contour>
      <point x="624" y="32.7679" type="curve"/>
      <point x="624" y="36" type="line" smooth="yes"/>
      <point x="624" y="46.9439"/>
      <point x="612.392" y="59"/>
      <point x="588" y="59" type="curve" smooth="yes"/>
      <point x="585.207" y="59" type="line"/>
      <point x="440.825" y="53.0256"/>
      <point x="353.787" y="45"/>
      <point x="302" y="45" type="curve" smooth="yes"/>
      <point x="246.666" y="45"/>
      <point x="224" y="56.6738"/>
      <point x="224" y="94" type="curve" smooth="yes"/>
      <point x="224" y="104.322" type="line"/>
      <point x="224.021" y="104.644" type="line" smooth="yes"/>
      <point x="230.024" y="197.691"/>
      <point x="242" y="363.466"/>
      <point x="242" y="525" type="curve" smooth="yes"/>
      <point x="242" y="612.67"/>
      <point x="238.959" y="700.617"/>
      <point x="229.112" y="772.499" type="curve"/>
      <point x="227.328" y="783.203"/>
      <point x="213.484" y="794"/>
      <point x="192" y="794" type="curve" smooth="yes"/>
      <point x="187.972" y="794"/>
      <point x="184.893" y="793.916"/>
      <point x="182.425" y="793.299" type="curve" smooth="yes"/>
      <point x="182.125" y="793.224" type="line"/>
      <point x="181.821" y="793.167" type="line" smooth="yes"/>
      <point x="156.753" y="788.525"/>
      <point x="141" y="772.411"/>
      <point x="141" y="760" type="curve" smooth="yes"/>
      <point x="141" y="756.639" type="line"/>
      <point x="149.838" y="687.464"/>
      <point x="154" y="600.911"/>
      <point x="154" y="514" type="curve" smooth="yes"/>
      <point x="154" y="354.685"/>
      <point x="142.063" y="188.56"/>
      <point x="136" y="95.6743" type="curve"/>
      <point x="136" y="84" type="line" smooth="yes"/>
      <point x="136" y="6.34462"/>
      <point x="197.387" y="-13"/>
      <point x="307" y="-13" type="curve" smooth="yes"/>
      <point x="381.148" y="-13"/>
      <point x="474.206" y="-3.02378"/>
      <point x="574.6" y="0.99201" type="curve" smooth="yes"/>
      <point x="600.913" y="1.86909"/>
      <point x="621.167" y="18.2307"/>
    </contour>
  </outline>
</glyph>
<glyph name="M" format="1">
  <advance width="900"/>
  <unicode hex="004D"/>
  <outline>
    <contour>
      <point x="115" y="-19" type="curve" smooth="yes"/>
      <point x="112" y="-19" type="line" smooth="yes"/>
      <point x="85" y="-19"/>
      <point x="66" y="-5"/>
      <point x="66" y="14" type="curve" smooth="yes"/>
      <point x="66" y="18" type="line"/>
      <point x="84" y="169"/>
      <point x="95" y="440"/>
      <point x="102" y="650" type="curve" smooth="yes"/>
      <point x="103" y="687"/>
      <point x="105" y="723"/>
      <point x="106" y="755" type="curve"/>
      <point x="106" y="755"/>
      <point x="153" y="793"/>
      <point x="186" y="793" type="curve" smooth="yes"/>
      <point x="196" y="793"/>
      <point x="205" y="789"/>
      <point x="211" y="779" type="curve" smooth="yes"/>
      <point x="229" y="747"/>
      <point x="246" y="716"/>
      <point x="262" y="687" type="curve" smooth="yes"/>
      <point x="356" y="514"/>
      <point x="421" y="353"/>
      <point x="458" y="270" type="curve"/>
      <point x="504" y="372"/>
      <point x="583" y="567"/>
      <point x="695" y="784" type="curve"/>
      <point x="695" y="784"/>
      <point x="737" y="805"/>
      <point x="766" y="805" type="curve" smooth="yes"/>
      <point x="782" y="805"/>
      <point x="794" y="799"/>
      <point x="794" y="781" type="curve" smooth="yes"/>
      <point x="794" y="771"/>
      <point x="795" y="761"/>
      <point x="795" y="751" type="curve" smooth="yes"/>
      <point x="800" y="517"/>
      <point x="816" y="170"/>
      <point x="834" y="39" type="curve"/>
      <point x="834" y="35" type="line" smooth="yes"/>
      <point x="834" y="15"/>
      <point x="812" y="-3"/>
      <point x="785" y="-8" type="curve" smooth="yes"/>
      <point x="781" y="-9"/>
      <point x="777" y="-9"/>
      <point x="773" y="-9" type="curve" smooth="yes"/>
      <point x="749" y="-9"/>
      <point x="729" y="3"/>
      <point x="726" y="21" type="curve" smooth="yes"/>
      <point x="712" y="128"/>
      <point x="698" y="391"/>
      <point x="691" y="598" type="curve"/>
      <point x="569" y="352"/>
      <point x="527" y="195"/>
      <point x="485" y="158" type="curve" smooth="yes"/>
      <point x="467" y="142"/>
      <point x="453" y="137"/>
      <point x="442" y="137" type="curve" smooth="yes"/>
      <point x="425" y="137"/>
      <point x="414" y="149"/>
      <point x="410" y="153" type="curve" smooth="yes"/>
      <point x="377" y="184"/>
      <point x="337" y="337"/>
      <point x="207" y="586" type="curve"/>
      <point x="200" y="395"/>
      <point x="190" y="154"/>
      <point x="174" y="22" type="curve" smooth="yes"/>
      <point x="171" y="1"/>
      <point x="145" y="-18"/>
    </contour>
    <contour>
      <point x="114.833" y="-9" type="line" smooth="yes"/>
      <point x="141.724" y="-8.10363"/>
      <point x="162.103" y="9.43404"/>
      <point x="164.085" y="23.3089" type="curve"/>
      <point x="179.959" y="154.266"/>
      <point x="190.013" y="395.537"/>
      <point x="197.007" y="586.366" type="curve" smooth="yes"/>
      <point x="198.39" y="624.099" type="line"/>
      <point x="215.865" y="590.628" type="line" smooth="yes"/>
      <point x="346.103" y="341.171"/>
      <point x="388.822" y="186.615"/>
      <point x="416.961" y="160.182" type="curve"/>
      <point x="421.484" y="155.658"/>
      <point x="429.804" y="147"/>
      <point x="442" y="147" type="curve" smooth="yes"/>
      <point x="449.775" y="147"/>
      <point x="461.431" y="150.429"/>
      <point x="478.356" y="165.474" type="curve" smooth="yes"/>
      <point x="515.32" y="198.037"/>
      <point x="559.724" y="355.804"/>
      <point x="682.041" y="602.443" type="curve" smooth="yes"/>
      <point x="699.654" y="637.958" type="line"/>
      <point x="700.994" y="598.338" type="line" smooth="yes"/>
      <point x="707.983" y="391.672"/>
      <point x="721.915" y="129.838"/>
      <point x="735.898" y="22.4332" type="curve"/>
      <point x="737.973" y="11.8782"/>
      <point x="751.288" y="1"/>
      <point x="773" y="1" type="curve" smooth="yes"/>
      <point x="777.028" y="1"/>
      <point x="780.107" y="1.08443"/>
      <point x="782.575" y="1.70143" type="curve" smooth="yes"/>
      <point x="782.875" y="1.77647" type="line"/>
      <point x="783.179" y="1.83282" type="line" smooth="yes"/>
      <point x="808.247" y="6.47503"/>
      <point x="824" y="22.5892"/>
      <point x="824" y="35" type="curve" smooth="yes"/>
      <point x="824" y="38.3174" type="line"/>
      <point x="805.993" y="170.662"/>
      <point x="790.004" y="516.69"/>
      <point x="785" y="750.893" type="curve"/>
      <point x="785" y="760.476"/>
      <point x="784" y="770.263"/>
      <point x="784" y="781" type="curve" smooth="yes"/>
      <point x="784" y="792.079"/>
      <point x="779.518" y="795"/>
      <point x="766" y="795" type="curve" smooth="yes"/>
      <point x="745.237" y="795"/>
      <point x="713.421" y="781.598"/>
      <point x="702.351" y="776.436" type="curve"/>
      <point x="592.07" y="562.331"/>
      <point x="512.899" y="367.408"/>
      <point x="467.116" y="265.889" type="curve" smooth="yes"/>
      <point x="457.947" y="245.558" type="line"/>
      <point x="448.866" y="265.928" type="line" smooth="yes"/>
      <point x="411.733" y="349.228"/>
      <point x="346.921" y="509.765"/>
      <point x="253.213" y="682.226" type="curve" smooth="yes"/>
      <point x="237.321" y="711.031"/>
      <point x="220.139" y="742.355"/>
      <point x="202.353" y="773.975" type="curve"/>
      <point x="198.366" y="780.621"/>
      <point x="193.141" y="783"/>
      <point x="186" y="783" type="curve" smooth="yes"/>
      <point x="163.69" y="783"/>
      <point x="128.193" y="759.262"/>
      <point x="115.842" y="749.972" type="curve"/>
      <point x="114.791" y="719.197"/>
      <point x="112.943" y="684.741"/>
      <point x="111.996" y="649.73" type="curve" smooth="yes"/>
      <point x="104.996" y="439.713"/>
      <point x="94.0821" y="169.663"/>
      <point x="76" y="17.4069" type="curve"/>
      <point x="76" y="14" type="line" smooth="yes"/>
      <point x="76" y="3.05613"/>
      <point x="87.6081" y="-9"/>
      <point x="112" y="-9" type="curve" smooth="yes"/>
    </contour>
  </outline>
</glyph>
<glyph name="N" format="1">
  <advance width="820"/>
  <unicode hex="004E"/>
  <outline>
    <contour>
      <point x="165" y="-14" type="curve" smooth="yes"/>
      <point x="157" y="-14" type="line" smooth="yes"/>
      <point x="131" y="-14"/>
      <point x="111" y="0"/>
      <point x="111" y="19" type="curve" smooth="yes"/>
      <point x="111" y="76"/>
      <point x="112" y="136"/>
      <point x="112" y="197" type="curve" smooth="yes"/>
      <point x="112" y="398"/>
      <point x="108" y="609"/>
      <point x="97" y="747" type="curve" smooth="yes"/>
      <point x="97" y="752"/>
      <point x="96" y="757"/>
      <point x="96" y="762" type="curve"/>
      <point x="96" y="762"/>
      <point x="141" y="804"/>
      <point x="175" y="804" type="curve" smooth="yes"/>
      <point x="184" y="804"/>
      <point x="193" y="801"/>
      <point x="199" y="792" type="curve" smooth="yes"/>
      <point x="313" y="638"/>
      <point x="498" y="345"/>
      <point x="613" y="177" type="curve"/>
      <point x="613" y="249" type="line" smooth="yes"/>
      <point x="613" y="431"/>
      <point x="610" y="652"/>
      <point x="601" y="757" type="curve"/>
      <point x="601" y="760" type="line" smooth="yes"/>
      <point x="601" y="780"/>
      <point x="623" y="800"/>
      <point x="652" y="804" type="curve" smooth="yes"/>
      <point x="655" y="804"/>
      <point x="659" y="805"/>
      <point x="662" y="805" type="curve" smooth="yes"/>
      <point x="687" y="805"/>
      <point x="707" y="792"/>
      <point x="709" y="773" type="curve" smooth="yes"/>
      <point x="718" y="661"/>
      <point x="721" y="441"/>
      <point x="721" y="258" type="curve" smooth="yes"/>
      <point x="721" y="170"/>
      <point x="720" y="90"/>
      <point x="719" y="35" type="curve" smooth="yes"/>
      <point x="718" y="1"/>
      <point x="696" y="-8"/>
      <point x="673" y="-8" type="curve" smooth="yes"/>
      <point x="648" y="-8"/>
      <point x="621" y="3"/>
      <point x="621" y="3" type="curve" smooth="yes"/>
      <point x="617" y="7"/>
      <point x="614" y="9"/>
      <point x="611" y="13" type="curve" smooth="yes"/>
      <point x="563" y="70"/>
      <point x="372" y="375"/>
      <point x="215" y="602" type="curve"/>
      <point x="219" y="496"/>
      <point x="220" y="369"/>
      <point x="220" y="246" type="curve" smooth="yes"/>
      <point x="220" y="171"/>
      <point x="219" y="98"/>
      <point x="219" y="31" type="curve" smooth="yes"/>
      <point x="219" y="10"/>
      <point x="195" y="-11"/>
    </contour>
    <contour>
      <point x="164.496" y="-4" type="line"/>
      <point x="190.561" y="-1.01341"/>
      <point x="209" y="17.2937"/>
      <point x="209" y="31" type="curve" smooth="yes"/>
      <point x="209" y="98.098"/>
      <point x="210" y="171.088"/>
      <point x="210" y="246" type="curve" smooth="yes"/>
      <point x="210" y="368.942"/>
      <point x="208.998" y="495.855"/>
      <point x="205.007" y="601.623" type="curve" smooth="yes"/>
      <point x="203.714" y="635.898" type="line"/>
      <point x="223.225" y="607.688" type="line" smooth="yes"/>
      <point x="380.215" y="380.702"/>
      <point x="572.019" y="74.8145"/>
      <point x="618.649" y="19.4414" type="curve" smooth="yes"/>
      <point x="618.831" y="19.2256" type="line"/>
      <point x="619" y="19" type="line" smooth="yes"/>
      <point x="620.84" y="16.5469"/>
      <point x="622.114" y="15.7239"/>
      <point x="626.51" y="11.5921" type="curve"/>
      <point x="631.849" y="9.60505"/>
      <point x="654.23" y="2"/>
      <point x="673" y="2" type="curve" smooth="yes"/>
      <point x="693.205" y="2"/>
      <point x="708.195" y="7.79398"/>
      <point x="709.003" y="35.2379" type="curve"/>
      <point x="709.999" y="90.0535"/>
      <point x="711" y="170.113"/>
      <point x="711" y="258" type="curve" smooth="yes"/>
      <point x="711" y="440.755"/>
      <point x="707.962" y="661.074"/>
      <point x="699.042" y="772.076" type="curve"/>
      <point x="697.833" y="783.557"/>
      <point x="684.315" y="795"/>
      <point x="662" y="795" type="curve" smooth="yes"/>
      <point x="660.612" y="795"/>
      <point x="658.603" y="794.333"/>
      <point x="652.701" y="793.999" type="curve"/>
      <point x="627.784" y="790.202"/>
      <point x="611" y="772.879"/>
      <point x="611" y="760" type="curve" smooth="yes"/>
      <point x="611" y="757.427" type="line"/>
      <point x="619.923" y="652.601"/>
      <point x="623" y="430.91"/>
      <point x="623" y="249" type="curve" smooth="yes"/>
      <point x="623" y="144.688" type="line"/>
      <point x="604.748" y="171.351" type="line" smooth="yes"/>
      <point x="489.587" y="339.587"/>
      <point x="304.543" y="632.617"/>
      <point x="190.963" y="786.05" type="curve" smooth="yes"/>
      <point x="190.816" y="786.248" type="line"/>
      <point x="190.679" y="786.453" type="line" smooth="yes"/>
      <point x="186.917" y="792.096"/>
      <point x="181.818" y="794"/>
      <point x="175" y="794" type="curve" smooth="yes"/>
      <point x="152.235" y="794"/>
      <point x="117.688" y="767.634"/>
      <point x="106.233" y="757.721" type="curve"/>
      <point x="106.514" y="754.787"/>
      <point x="106.865" y="753.025"/>
      <point x="107.008" y="747.3" type="curve"/>
      <point x="117.916" y="609.869"/>
      <point x="122" y="397.845"/>
      <point x="122" y="197" type="curve" smooth="yes"/>
      <point x="122" y="135.892"/>
      <point x="121" y="75.884"/>
      <point x="121" y="19" type="curve" smooth="yes"/>
      <point x="121" y="8.24765"/>
      <point x="133.544" y="-4"/>
      <point x="157" y="-4" type="curve" smooth="yes"/>
    </contour>
  </outline>
</glyph>
<glyph name="T" format="1">
  <advance width="720"/>
  <unicode hex="0054"/>
  <outline>
    <contour>
      <point x="684" y="772" type="line" smooth="yes"/>
      <point x="681" y="751"/>
      <point x="654" y="732"/>
      <point x="625" y="731" type="curve" smooth="yes"/>
      <point x="556" y="728"/>
      <point x="478" y="723"/>
      <point x="402" y="722" type="curve"/>
      <point x="406" y="711"/>
      <point x="408" y="701"/>
      <point x="409" y="688" type="curve" smooth="yes"/>
      <point x="415" y="601"/>
      <point x="417" y="488"/>
      <point x="417" y="341" type="curve" smooth="yes"/>
      <point x="417" y="249"/>
      <point x="416" y="145"/>
      <point x="414" y="25" type="curve" smooth="yes"/>
      <point x="414" y="4"/>
      <point x="389" y="-16"/>
      <point x="359" y="-19" type="curve" smooth="yes"/>
      <point x="352" y="-19" type="line" smooth="yes"/>
      <point x="326" y="-19"/>
      <point x="306" y="-4"/>
      <point x="306" y="15" type="curve" smooth="yes"/>
      <point x="308" y="135"/>
      <point x="309" y="239"/>
      <point x="309" y="330" type="curve" smooth="yes"/>
      <point x="309" y="476"/>
      <point x="307" y="586"/>
      <point x="301" y="672" type="curve" smooth="yes"/>
      <point x="299" y="705"/>
      <point x="285" y="707"/>
      <point x="268" y="709" type="curve" smooth="yes"/>
      <point x="199" y="717"/>
      <point x="91" y="715"/>
      <point x="52" y="738" type="curve" smooth="yes"/>
      <point x="32" y="750"/>
      <point x="25" y="760"/>
      <point x="25" y="769" type="curve" smooth="yes"/>
      <point x="25" y="795"/>
      <point x="85" y="808"/>
      <point x="85" y="808" type="curve" smooth="yes"/>
      <point x="93" y="809"/>
      <point x="103" y="810"/>
      <point x="115" y="810" type="curve" smooth="yes"/>
      <point x="167" y="810"/>
      <point x="257" y="800"/>
      <point x="382" y="800" type="curve" smooth="yes"/>
      <point x="463" y="800"/>
      <point x="552" y="806"/>
      <point x="635" y="809" type="curve" smooth="yes"/>
      <point x="637" y="809" type="line" smooth="yes"/>
      <point x="663" y="809"/>
      <point x="684" y="795"/>
      <point x="684" y="776" type="curve" smooth="yes"/>
    </contour>
    <contour>
      <point x="674" y="772.773" type="curve"/>
      <point x="674" y="776" type="line" smooth="yes"/>
      <point x="674" y="786.48"/>
      <point x="660.668" y="799"/>
      <point x="637" y="799" type="curve" smooth="yes"/>
      <point x="635.181" y="799" type="line"/>
      <point x="552.81" y="796.023"/>
      <point x="463.362" y="790"/>
      <point x="382" y="790" type="curve" smooth="yes"/>
      <point x="256.559" y="790"/>
      <point x="165.909" y="800"/>
      <point x="115" y="800" type="curve" smooth="yes"/>
      <point x="103.734" y="800"/>
      <point x="95.0701" y="799.163"/>
      <point x="86.7174" y="798.137" type="curve"/>
      <point x="77.4588" y="795.999"/>
      <point x="35" y="781.757"/>
      <point x="35" y="769" type="curve" smooth="yes"/>
      <point x="35" y="765.842"/>
      <point x="37.7567" y="758.208"/>
      <point x="57.145" y="746.575" type="curve" smooth="yes"/>
      <point x="91.1062" y="726.546"/>
      <point x="199.013" y="727.066"/>
      <point x="269.152" y="718.933" type="curve" smooth="yes"/>
      <point x="287.512" y="716.773"/>
      <point x="308.673" y="710.693"/>
      <point x="310.982" y="672.605" type="curve" smooth="yes"/>
      <point x="316.997" y="586.383"/>
      <point x="319" y="476.034"/>
      <point x="319" y="330" type="curve" smooth="yes"/>
      <point x="319" y="238.983"/>
      <point x="317.997" y="134.763"/>
      <point x="316" y="14.9167" type="curve"/>
      <point x="316" y="4.03364"/>
      <point x="328.926" y="-9"/>
      <point x="352" y="-9" type="curve" smooth="yes"/>
      <point x="358.497" y="-9" type="line"/>
      <point x="385.04" y="-5.98169"/>
      <point x="404" y="11.6623"/>
      <point x="404" y="25.0833" type="curve"/>
      <point x="406.002" y="145.229"/>
      <point x="407" y="249.023"/>
      <point x="407" y="341" type="curve" smooth="yes"/>
      <point x="407" y="487.905"/>
      <point x="404.994" y="600.746"/>
      <point x="399.024" y="687.312" type="curve" smooth="yes"/>
      <point x="398.084" y="699.523"/>
      <point x="396.278" y="708.473"/>
      <point x="392.602" y="718.583" type="curve" smooth="yes"/>
      <point x="387.791" y="731.814" type="line"/>
      <point x="401.868" y="731.999" type="line" smooth="yes"/>
      <point x="477.528" y="732.995"/>
      <point x="555.419" y="737.984"/>
      <point x="624.566" y="740.991" type="curve" smooth="yes"/>
      <point x="649.971" y="741.867"/>
      <point x="671.166" y="758.386"/>
    </contour>
  </outline>
</glyph>
<glyph name="Y" format="1">
  <advance width="720"/>
  <unicode hex="0059"/>
  <outline>
    <contour>
      <point x="647" y="799" type="line" smooth="yes"/>
      <point x="670" y="797"/>
      <point x="685" y="783"/>
      <point x="685" y="766" type="curve" smooth="yes"/>
      <point x="685" y="762"/>
      <point x="684" y="758"/>
      <point x="682" y="754" type="curve" smooth="yes"/>
      <point x="627" y="626"/>
      <point x="577" y="537"/>
      <point x="536" y="472" type="curve" smooth="yes"/>
      <point x="457" y="348"/>
      <point x="420" y="317"/>
      <point x="419" y="265" type="curve" smooth="yes"/>
      <point x="418" y="241"/>
      <point x="418" y="218"/>
      <point x="418" y="194" type="curve" smooth="yes"/>
      <point x="418" y="140"/>
      <point x="420" y="86"/>
      <point x="424" y="28" type="curve"/>
      <point x="424" y="25" type="line" smooth="yes"/>
      <point x="424" y="5"/>
      <point x="402" y="-15"/>
      <point x="373" y="-19" type="curve" smooth="yes"/>
      <point x="370" y="-19"/>
      <point x="366" y="-20"/>
      <point x="363" y="-20" type="curve" smooth="yes"/>
      <point x="338" y="-20"/>
      <point x="318" y="-7"/>
      <point x="316" y="12" type="curve" smooth="yes"/>
      <point x="312" y="71"/>
      <point x="310" y="127"/>
      <point x="310" y="183" type="curve" smooth="yes"/>
      <point x="310" y="207"/>
      <point x="310" y="231"/>
      <point x="311" y="255" type="curve" smooth="yes"/>
      <point x="311" y="273"/>
      <point x="314" y="289"/>
      <point x="319" y="305" type="curve"/>
      <point x="267" y="332"/>
      <point x="223" y="383"/>
      <point x="182" y="448" type="curve" smooth="yes"/>
      <point x="126" y="535"/>
      <point x="75" y="646"/>
      <point x="37" y="755" type="curve" smooth="yes"/>
      <point x="36" y="758"/>
      <point x="35" y="761"/>
      <point x="35" y="764" type="curve" smooth="yes"/>
      <point x="35" y="782"/>
      <point x="52" y="800"/>
      <point x="77" y="807" type="curve" smooth="yes"/>
      <point x="84" y="809"/>
      <point x="90" y="810"/>
      <point x="97" y="810" type="curve" smooth="yes"/>
      <point x="119" y="810"/>
      <point x="138" y="800"/>
      <point x="143" y="785" type="curve" smooth="yes"/>
      <point x="179" y="680"/>
      <point x="230" y="571"/>
      <point x="282" y="490" type="curve" smooth="yes"/>
      <point x="309" y="449"/>
      <point x="337" y="404"/>
      <point x="360" y="382" type="curve"/>
      <point x="381" y="413"/>
      <point x="408" y="449"/>
      <point x="438" y="496" type="curve" smooth="yes"/>
      <point x="477" y="557"/>
      <point x="525" y="642"/>
      <point x="578" y="766" type="curve" smooth="yes"/>
      <point x="586" y="785"/>
      <point x="614" y="799"/>
      <point x="640" y="799" type="curve" smooth="yes"/>
    </contour>
    <contour>
      <point x="646.572" y="789" type="curve"/>
      <point x="640" y="789" type="line" smooth="yes"/>
      <point x="616.537" y="789"/>
      <point x="592.893" y="775.602"/>
      <point x="587.216" y="762.119" type="curve" smooth="yes"/>
      <point x="533.962" y="637.524"/>
      <point x="485.715" y="552.066"/>
      <point x="446.425" y="490.613" type="curve" smooth="yes"/>
      <point x="416.22" y="443.293"/>
      <point x="389.065" y="407.075"/>
      <point x="368.279" y="376.392" type="curve" smooth="yes"/>
      <point x="361.641" y="366.592" type="line"/>
      <point x="353.088" y="374.774" type="line" smooth="yes"/>
      <point x="328.347" y="398.439"/>
      <point x="300.643" y="443.508"/>
      <point x="273.616" y="484.549" type="curve"/>
      <point x="220.966" y="566.561"/>
      <point x="169.803" y="675.992"/>
      <point x="133.541" y="781.757" type="curve" smooth="yes"/>
      <point x="130.52" y="790.817"/>
      <point x="116.699" y="800"/>
      <point x="97" y="800" type="curve" smooth="yes"/>
      <point x="90.9752" y="800"/>
      <point x="86.153" y="799.215"/>
      <point x="79.7472" y="797.385" type="curve" smooth="yes"/>
      <point x="57.1474" y="791.057"/>
      <point x="45" y="775.563"/>
      <point x="45" y="764" type="curve" smooth="yes"/>
      <point x="45" y="763.247"/>
      <point x="45.4957" y="761.136"/>
      <point x="46.4652" y="758.227" type="curve"/>
      <point x="84.193" y="650.008"/>
      <point x="135.018" y="539.466"/>
      <point x="190.409" y="453.412" type="curve" smooth="yes"/>
      <point x="231.107" y="388.89"/>
      <point x="274.105" y="339.579"/>
      <point x="323.608" y="313.875" type="curve" smooth="yes"/>
      <point x="331.044" y="310.014" type="line"/>
      <point x="328.545" y="302.017" type="line" smooth="yes"/>
      <point x="323.735" y="286.625"/>
      <point x="321" y="272.136"/>
      <point x="321" y="254.792" type="curve"/>
      <point x="319.995" y="230.667"/>
      <point x="320" y="207.08"/>
      <point x="320" y="183" type="curve" smooth="yes"/>
      <point x="320" y="127.362"/>
      <point x="322.007" y="71.2282"/>
      <point x="325.965" y="12.8619" type="curve"/>
      <point x="327.162" y="1.48386"/>
      <point x="340.686" y="-10"/>
      <point x="363" y="-10" type="curve" smooth="yes"/>
      <point x="364.388" y="-10"/>
      <point x="366.397" y="-9.33319"/>
      <point x="372.299" y="-8.99915" type="curve"/>
      <point x="397.216" y="-5.20203"/>
      <point x="414" y="12.1208"/>
      <point x="414" y="25" type="curve" smooth="yes"/>
      <point x="414" y="27.6546" type="line"/>
      <point x="410.062" y="85.057"/>
      <point x="408" y="139.977"/>
      <point x="408" y="194" type="curve" smooth="yes"/>
      <point x="408" y="217.911"/>
      <point x="408.004" y="241.306"/>
      <point x="409.004" y="265.304" type="curve"/>
      <point x="410.107" y="322.643"/>
      <point x="449.569" y="354.947"/>
      <point x="527.566" y="477.373" type="curve" smooth="yes"/>
      <point x="568.267" y="541.899"/>
      <point x="618.024" y="630.441"/>
      <point x="672.812" y="757.948" type="curve" smooth="yes"/>
      <point x="672.926" y="758.214" type="line"/>
      <point x="673.056" y="758.472" type="line" smooth="yes"/>
      <point x="674.46" y="761.28"/>
      <point x="675" y="763.689"/>
      <point x="675" y="766" type="curve" smooth="yes"/>
      <point x="675" y="776.145"/>
      <point x="666.557" y="786.904"/>
    </contour>
  </outline>
</glyph>
<glyph name="Z" format="1">
  <advance width="750"/>
  <unicode hex="005A"/>
  <outline>
    <contour>
      <point x="709" y="51" type="line" smooth="yes"/>
      <point x="707" y="29"/>
      <point x="676" y="8"/>
      <point x="641" y="5" type="curve" smooth="yes"/>
      <point x="577" y="-1"/>
      <point x="442" y="-13"/>
      <point x="316" y="-13" type="curve" smooth="yes"/>
      <point x="175" y="-13"/>
      <point x="46" y="2"/>
      <point x="46" y="58" type="curve" smooth="yes"/>
      <point x="46" y="152"/>
      <point x="277" y="410"/>
      <point x="517" y="715" type="curve"/>
      <point x="444" y="711"/>
      <point x="383" y="709"/>
      <point x="318" y="709" type="curve" smooth="yes"/>
      <point x="257" y="709"/>
      <point x="192" y="711"/>
      <point x="111" y="715" type="curve" smooth="yes"/>
      <point x="84" y="717"/>
      <point x="66" y="729"/>
      <point x="66" y="746" type="curve" smooth="yes"/>
      <point x="66" y="750"/>
      <point x="67" y="754"/>
      <point x="69" y="758" type="curve" smooth="yes"/>
      <point x="78" y="779"/>
      <point x="112" y="795"/>
      <point x="144" y="795" type="curve" smooth="yes"/>
      <point x="149" y="795" type="line"/>
      <point x="228" y="791"/>
      <point x="289" y="789"/>
      <point x="347" y="789" type="curve" smooth="yes"/>
      <point x="433" y="789"/>
      <point x="511" y="793"/>
      <point x="626" y="800" type="curve"/>
      <point x="640" y="800" type="line" smooth="yes"/>
      <point x="678" y="800"/>
      <point x="689" y="790"/>
      <point x="689" y="778" type="curve" smooth="yes"/>
      <point x="689" y="764"/>
      <point x="675" y="749"/>
      <point x="675" y="749" type="curve"/>
      <point x="434" y="441"/>
      <point x="201" y="162"/>
      <point x="176" y="85" type="curve"/>
      <point x="207" y="77"/>
      <point x="281" y="74"/>
      <point x="365" y="74" type="curve" smooth="yes"/>
      <point x="464" y="74"/>
      <point x="577" y="78"/>
      <point x="649" y="85" type="curve"/>
      <point x="658" y="85" type="line" smooth="yes"/>
      <point x="687" y="85"/>
      <point x="709" y="72"/>
      <point x="709" y="53" type="curve" smooth="yes"/>
    </contour>
    <contour>
      <point x="699" y="51.5102" type="curve"/>
      <point x="699" y="53" type="line" smooth="yes"/>
      <point x="699" y="62.7032"/>
      <point x="685.662" y="75"/>
      <point x="658" y="75" type="curve" smooth="yes"/>
      <point x="649.484" y="75" type="line"/>
      <point x="578.013" y="68.1"/>
      <point x="463.979" y="64"/>
      <point x="365" y="64" type="curve" smooth="yes"/>
      <point x="280.603" y="64"/>
      <point x="206.894" y="66.6997"/>
      <point x="173.501" y="75.3172" type="curve" smooth="yes"/>
      <point x="163.205" y="77.9743" type="line"/>
      <point x="166.489" y="88.0881" type="line" smooth="yes"/>
      <point x="193.151" y="170.206"/>
      <point x="425.955" y="446.946"/>
      <point x="667.124" y="755.162" type="curve" smooth="yes"/>
      <point x="667.37" y="755.477" type="line"/>
      <point x="667.64" y="755.77" type="line" smooth="yes"/>
      <point x="667.64" y="755.77"/>
      <point x="679" y="769.658"/>
      <point x="679" y="778" type="curve" smooth="yes"/>
      <point x="679" y="780.566"/>
      <point x="678.046" y="790"/>
      <point x="640" y="790" type="curve" smooth="yes"/>
      <point x="626.304" y="790" type="line"/>
      <point x="511.942" y="783.044"/>
      <point x="433.159" y="779"/>
      <point x="347" y="779" type="curve" smooth="yes"/>
      <point x="289.115" y="779"/>
      <point x="226.9" y="781.056"/>
      <point x="149" y="785" type="curve"/>
      <point x="144" y="785" type="line" smooth="yes"/>
      <point x="114.32" y="785"/>
      <point x="84.6512" y="769.133"/>
      <point x="78.1915" y="754.061" type="curve" smooth="yes"/>
      <point x="78.0757" y="753.791" type="line"/>
      <point x="77.9443" y="753.528" type="line" smooth="yes"/>
      <point x="76.5401" y="750.72"/>
      <point x="76" y="748.311"/>
      <point x="76" y="746" type="curve" smooth="yes"/>
      <point x="76" y="737.608"/>
      <point x="86.0897" y="726.873"/>
      <point x="111.616" y="724.982" type="curve"/>
      <point x="192.234" y="721.001"/>
      <point x="257.303" y="719"/>
      <point x="318" y="719" type="curve" smooth="yes"/>
      <point x="382.792" y="719"/>
      <point x="443.571" y="720.992"/>
      <point x="516.453" y="724.985" type="curve" smooth="yes"/>
      <point x="538.534" y="726.195" type="line"/>
      <point x="524.859" y="708.816" type="line" smooth="yes"/>
      <point x="284.123" y="402.881"/>
      <point x="56" y="143.529"/>
      <point x="56" y="58" type="curve" smooth="yes"/>
      <point x="56" y="16.4428"/>
      <point x="169.625" y="-3"/>
      <point x="316" y="-3" type="curve" smooth="yes"/>
      <point x="441.397" y="-3"/>
      <point x="576.169" y="8.96597"/>
      <point x="640.067" y="14.9563" type="curve" smooth="yes"/>
      <point x="672.871" y="17.7682"/>
      <point x="697.359" y="37.6437"/>
    </contour>
  </outline>
</glyph>
<glyph name="backslash" format="1">
  <advance width="480"/>
  <unicode hex="005C"/>
  <outline>
    <contour>
      <point x="71" y="827" type="curve" smooth="yes"/>
      <point x="76" y="828"/>
      <point x="80" y="829"/>
      <point x="85" y="829" type="curve" smooth="yes"/>
      <point x="101" y="829"/>
      <point x="115" y="822"/>
      <point x="119" y="810" type="curve" smooth="yes"/>
      <point x="210" y="535"/>
      <point x="312" y="276"/>
      <point x="438" y="13" type="curve" smooth="yes"/>
      <point x="439" y="10"/>
      <point x="440" y="8"/>
      <point x="440" y="5" type="curve" smooth="yes"/>
      <point x="440" y="-7"/>
      <point x="428" y="-20"/>
      <point x="412" y="-26" type="curve" smooth="yes"/>
      <point x="406" y="-28"/>
      <point x="401" y="-29"/>
      <point x="395" y="-29" type="curve" smooth="yes"/>
      <point x="381" y="-29"/>
      <point x="367" y="-23"/>
      <point x="362" y="-13" type="curve" smooth="yes"/>
      <point x="236" y="252"/>
      <point x="132" y="513"/>
      <point x="41" y="790" type="curve" smooth="yes"/>
      <point x="40" y="792"/>
      <point x="40" y="794"/>
      <point x="40" y="796" type="curve" smooth="yes"/>
      <point x="40" y="809"/>
      <point x="53" y="822"/>
    </contour>
    <contour>
      <point x="73.2975" y="817.261" type="curve" smooth="yes"/>
      <point x="58.3572" y="812.804"/>
      <point x="50" y="802.447"/>
      <point x="50" y="796" type="curve" smooth="yes"/>
      <point x="50" y="795.166"/>
      <point x="49.9862" y="795.194"/>
      <point x="50.0365" y="794.288" type="curve"/>
      <point x="50.2718" y="793.817" type="line"/>
      <point x="50.5005" y="793.121" type="line" smooth="yes"/>
      <point x="141.357" y="516.559"/>
      <point x="245.264" y="255.804"/>
      <point x="370.989" y="-8.61648" type="curve"/>
      <point x="373.347" y="-13.3324"/>
      <point x="383.208" y="-19"/>
      <point x="395" y="-19" type="curve" smooth="yes"/>
      <point x="399.748" y="-19"/>
      <point x="403.667" y="-18.2369"/>
      <point x="408.662" y="-16.5717" type="curve"/>
      <point x="422.212" y="-11.4906"/>
      <point x="430" y="-0.553246"/>
      <point x="430" y="5" type="curve" smooth="yes"/>
      <point x="430" y="5.86643"/>
      <point x="430.215" y="4.9972"/>
      <point x="428.713" y="9.23995" type="curve"/>
      <point x="303.173" y="271.386"/>
      <point x="200.496" y="531.89"/>
      <point x="109.506" y="806.858" type="curve" smooth="yes"/>
      <point x="107.496" y="812.889"/>
      <point x="98.7175" y="819"/>
      <point x="85" y="819" type="curve" smooth="yes"/>
      <point x="81.1846" y="819"/>
      <point x="79.7254" y="818.575"/>
    </contour>
  </outline>
</glyph>
<glyph name="asciicircum" format="1">
  <advance width="510"/>
  <unicode hex="005E"/>
  <outline>
    <contour>
      <point x="288" y="834" type="curve" smooth="yes"/>
      <point x="376" y="746"/>
      <point x="473" y="594"/>
      <point x="483" y="573" type="curve"/>
      <point x="483" y="573"/>
      <point x="475" y="531"/>
      <point x="447" y="531" type="curve" smooth="yes"/>
      <point x="441" y="531"/>
      <point x="435" y="532"/>
      <point x="427" y="537" type="curve" smooth="yes"/>
      <point x="399" y="554"/>
      <point x="326" y="649"/>
      <point x="256" y="724" type="curve"/>
      <point x="186" y="645"/>
      <point x="111" y="558"/>
      <point x="76" y="538" type="curve"/>
      <point x="76" y="538"/>
      <point x="59" y="532"/>
      <point x="44" y="532" type="curve" smooth="yes"/>
      <point x="33" y="532"/>
      <point x="23" y="535"/>
      <point x="23" y="547" type="curve" smooth="yes"/>
      <point x="23" y="552"/>
      <point x="25" y="558"/>
      <point x="28" y="565" type="curve" smooth="yes"/>
      <point x="40" y="591"/>
      <point x="148" y="731"/>
      <point x="221" y="826" type="curve"/>
      <point x="221" y="826"/>
      <point x="235" y="849"/>
      <point x="257" y="849" type="curve" smooth="yes"/>
      <point x="266" y="849"/>
      <point x="277" y="845"/>
    </contour>
    <contour>
      <point x="280.929" y="826.929" type="curve" smooth="yes"/>
      <point x="271.431" y="836.427"/>
      <point x="262.963" y="839"/>
      <point x="257" y="839" type="curve" smooth="yes"/>
      <point x="241.882" y="839"/>
      <point x="229.562" y="820.832"/>
      <point x="229.502" y="820.736" type="curve" smooth="yes"/>
      <point x="229.237" y="820.307" type="line"/>
      <point x="228.929" y="819.907" type="line" smooth="yes"/>
      <point x="156.33" y="725.428"/>
      <point x="47.4877" y="583.36"/>
      <point x="37.1373" y="560.934" type="curve"/>
      <point x="34.4068" y="554.563"/>
      <point x="33" y="549.332"/>
      <point x="33" y="547" type="curve" smooth="yes"/>
      <point x="33" y="543.724"/>
      <point x="33.5291" y="542"/>
      <point x="44" y="542" type="curve" smooth="yes"/>
      <point x="54.633" y="542"/>
      <point x="67.9433" y="545.879"/>
      <point x="71.8472" y="547.153" type="curve"/>
      <point x="103.484" y="566.123"/>
      <point x="179.14" y="652.337"/>
      <point x="248.515" y="730.632" type="curve" smooth="yes"/>
      <point x="255.808" y="738.862" type="line"/>
      <point x="263.311" y="730.823" type="line" smooth="yes"/>
      <point x="333.483" y="655.639"/>
      <point x="408.288" y="560.06"/>
      <point x="432.245" y="545.514" type="curve"/>
      <point x="438.893" y="541.359"/>
      <point x="442.236" y="541"/>
      <point x="447" y="541" type="curve" smooth="yes"/>
      <point x="460.48" y="541"/>
      <point x="469.136" y="559.655"/>
      <point x="472.417" y="571.705" type="curve"/>
      <point x="456.534" y="600.833"/>
      <point x="363.819" y="744.039"/>
    </contour>
  </outline>
</glyph>
<glyph name="grave" format="1">
  <advance width="360"/>
  <unicode hex="0060"/>
  <outline>
    <contour>
      <point x="27" y="798" type="curve" smooth="yes"/>
      <point x="53" y="828" type="line"/>
      <point x="53" y="828"/>
      <point x="68" y="848"/>
      <point x="89" y="848" type="curve" smooth="yes"/>
      <point x="98" y="848"/>
      <point x="108" y="844"/>
      <point x="119" y="834" type="curve" smooth="yes"/>
      <point x="207" y="751"/>
      <point x="312" y="606"/>
      <point x="323" y="583" type="curve"/>
      <point x="323" y="583"/>
      <point x="321" y="541"/>
      <point x="296" y="541" type="curve" smooth="yes"/>
      <point x="291" y="541"/>
      <point x="285" y="542"/>
      <point x="277" y="547" type="curve" smooth="yes"/>
      <point x="248" y="564"/>
      <point x="111" y="699"/>
      <point x="29" y="764" type="curve" smooth="yes"/>
      <point x="23" y="769"/>
      <point x="20" y="776"/>
      <point x="20" y="782" type="curve" smooth="yes"/>
      <point x="20" y="788"/>
      <point x="23" y="793"/>
    </contour>
    <contour>
      <point x="34.6858" y="791.599" type="line" smooth="yes"/>
      <point x="31.069" y="787.078"/>
      <point x="30" y="784.445"/>
      <point x="30" y="782" type="curve" smooth="yes"/>
      <point x="30" y="779.234"/>
      <point x="31.7253" y="774.746"/>
      <point x="35.3078" y="771.761" type="curve"/>
      <point x="117.452" y="706.646"/>
      <point x="256.241" y="570.761"/>
      <point x="282.18" y="555.555" type="curve"/>
      <point x="288.995" y="551.296"/>
      <point x="292.438" y="551"/>
      <point x="296" y="551" type="curve" smooth="yes"/>
      <point x="305.685" y="551"/>
      <point x="311.374" y="568.253"/>
      <point x="312.793" y="580.946" type="curve"/>
      <point x="297.091" y="608.976"/>
      <point x="195.801" y="747.816"/>
      <point x="112.205" y="826.662" type="curve"/>
      <point x="102.545" y="835.445"/>
      <point x="94.8469" y="838"/>
      <point x="89" y="838" type="curve" smooth="yes"/>
      <point x="74.0735" y="838"/>
      <point x="60.9531" y="821.938"/>
      <point x="60.9531" y="821.938" type="curve" smooth="yes"/>
      <point x="60.7627" y="821.688" type="line"/>
    </contour>
  </outline>
</glyph>
<glyph name="c" format="1">
  <advance width="600"/>
  <unicode hex="0063"/>
  <outline>
    <contour>
      <point x="532" y="141" type="curve" smooth="yes"/>
      <point x="551" y="137"/>
      <point x="562" y="124"/>
      <point x="562" y="110" type="curve" smooth="yes"/>
      <point x="562" y="105"/>
      <point x="560" y="99"/>
      <point x="557" y="94" type="curve" smooth="yes"/>
      <point x="519" y="32"/>
      <point x="441" y="-11"/>
      <point x="357" y="-20" type="curve" smooth="yes"/>
      <point x="346" y="-21"/>
      <point x="334" y="-22"/>
      <point x="323" y="-22" type="curve" smooth="yes"/>
      <point x="179" y="-22"/>
      <point x="58" y="80"/>
      <point x="58" y="290" type="curve" smooth="yes"/>
      <point x="58" y="490"/>
      <point x="178" y="607"/>
      <point x="322" y="622" type="curve" smooth="yes"/>
      <point x="332" y="623"/>
      <point x="342" y="624"/>
      <point x="351" y="624" type="curve" smooth="yes"/>
      <point x="454" y="624"/>
      <point x="537" y="565"/>
      <point x="537" y="475" type="curve" smooth="yes"/>
      <point x="537" y="455"/>
      <point x="513" y="436"/>
      <point x="485" y="433" type="curve" smooth="yes"/>
      <point x="478" y="433" type="line" smooth="yes"/>
      <point x="453" y="433"/>
      <point x="433" y="447"/>
      <point x="433" y="465" type="curve" smooth="yes"/>
      <point x="433" y="520"/>
      <point x="386" y="548"/>
      <point x="337" y="548" type="curve" smooth="yes"/>
      <point x="332" y="548"/>
      <point x="327" y="548"/>
      <point x="322" y="547" type="curve" smooth="yes"/>
      <point x="264" y="541"/>
      <point x="162" y="485"/>
      <point x="162" y="300" type="curve" smooth="yes"/>
      <point x="162" y="105"/>
      <point x="267" y="54"/>
      <point x="340" y="54" type="curve" smooth="yes"/>
      <point x="346" y="54"/>
      <point x="352" y="54"/>
      <point x="357" y="55" type="curve" smooth="yes"/>
      <point x="401" y="60"/>
      <point x="442" y="82"/>
      <point x="463" y="116" type="curve" smooth="yes"/>
      <point x="473" y="132"/>
      <point x="495" y="143"/>
      <point x="517" y="143" type="curve" smooth="yes"/>
      <point x="522" y="143"/>
      <point x="527" y="142"/>
    </contour>
    <contour>
      <point x="529.989" y="131.204" type="curve" smooth="yes"/>
      <point x="524.978" y="132.206"/>
      <point x="520.668" y="133"/>
      <point x="517" y="133" type="curve" smooth="yes"/>
      <point x="498.011" y="133"/>
      <point x="479.204" y="123.058"/>
      <point x="471.48" y="110.7" type="curve" smooth="yes"/>
      <point x="448.594" y="73.6462"/>
      <point x="405.708" y="50.7517"/>
      <point x="358.611" y="45.1184" type="curve"/>
      <point x="352.886" y="44.1269"/>
      <point x="345.83" y="44"/>
      <point x="340" y="44" type="curve" smooth="yes"/>
      <point x="261.525" y="44"/>
      <point x="152" y="100.468"/>
      <point x="152" y="300" type="curve" smooth="yes"/>
      <point x="152" y="488.845"/>
      <point x="257.187" y="550.076"/>
      <point x="320.429" y="556.89" type="curve"/>
      <point x="325.855" y="557.835"/>
      <point x="332.22" y="558"/>
      <point x="337" y="558" type="curve" smooth="yes"/>
      <point x="389.206" y="558"/>
      <point x="443" y="527.263"/>
      <point x="443" y="465" type="curve" smooth="yes"/>
      <point x="443" y="455.366"/>
      <point x="455.545" y="443"/>
      <point x="478" y="443" type="curve" smooth="yes"/>
      <point x="484.456" y="443" type="line"/>
      <point x="509.437" y="446.042"/>
      <point x="527" y="462.75"/>
      <point x="527" y="475" type="curve" smooth="yes"/>
      <point x="527" y="557.571"/>
      <point x="450.802" y="614"/>
      <point x="351" y="614" type="curve" smooth="yes"/>
      <point x="342.729" y="614"/>
      <point x="332.988" y="613.049"/>
      <point x="322.995" y="612.05" type="curve" smooth="yes"/>
      <point x="184.37" y="597.609"/>
      <point x="68" y="485.574"/>
      <point x="68" y="290" type="curve" smooth="yes"/>
      <point x="68" y="84.496"/>
      <point x="184.712" y="-12"/>
      <point x="323" y="-12" type="curve" smooth="yes"/>
      <point x="333.353" y="-12"/>
      <point x="345.263" y="-11.0258"/>
      <point x="356.015" y="-10.0483" type="curve"/>
      <point x="437.374" y="-1.33126"/>
      <point x="512.549" y="40.6119"/>
      <point x="548.474" y="99.2256" type="curve" smooth="yes"/>
      <point x="550.607" y="102.781"/>
      <point x="552" y="107.581"/>
      <point x="552" y="110" type="curve" smooth="yes"/>
      <point x="552" y="118.287"/>
      <point x="545.474" y="127.944"/>
    </contour>
  </outline>
</glyph>
<glyph name="d" format="1">
  <advance width="720"/>
  <unicode hex="0064"/>
  <outline>
    <contour>
      <point x="523" y="845" type="curve" smooth="yes"/>
      <point x="526" y="845"/>
      <point x="530" y="846"/>
      <point x="533" y="846" type="curve" smooth="yes"/>
      <point x="556" y="846"/>
      <point x="573" y="834"/>
      <point x="574" y="817" type="curve" smooth="yes"/>
      <point x="577" y="770"/>
      <point x="577" y="721"/>
      <point x="577" y="672" type="curve" smooth="yes"/>
      <point x="577" y="568"/>
      <point x="574" y="463"/>
      <point x="574" y="381" type="curve" smooth="yes"/>
      <point x="574" y="336" type="line" smooth="yes"/>
      <point x="576" y="257"/>
      <point x="586" y="192"/>
      <point x="600" y="144" type="curve" smooth="yes"/>
      <point x="620" y="77"/>
      <point x="652" y="51"/>
      <point x="660" y="49" type="curve" smooth="yes"/>
      <point x="678" y="45"/>
      <point x="689" y="34"/>
      <point x="689" y="20" type="curve" smooth="yes"/>
      <point x="689" y="15"/>
      <point x="688" y="10"/>
      <point x="685" y="5" type="curve" smooth="yes"/>
      <point x="676" y="-10"/>
      <point x="655" y="-21"/>
      <point x="634" y="-21" type="curve" smooth="yes"/>
      <point x="629" y="-21"/>
      <point x="624" y="-20"/>
      <point x="620" y="-19" type="curve" smooth="yes"/>
      <point x="564" y="-5"/>
      <point x="534" y="51"/>
      <point x="514" y="120" type="curve" smooth="yes"/>
      <point x="513" y="123"/>
      <point x="513" y="125"/>
      <point x="512" y="128" type="curve"/>
      <point x="480" y="60"/>
      <point x="427" y="-21"/>
      <point x="313" y="-21" type="curve" smooth="yes"/>
      <point x="128" y="-21"/>
      <point x="61" y="139"/>
      <point x="61" y="275" type="curve" smooth="yes"/>
      <point x="61" y="302"/>
      <point x="64" y="330"/>
      <point x="69" y="357" type="curve" smooth="yes"/>
      <point x="93" y="478"/>
      <point x="183" y="616"/>
      <point x="367" y="616" type="curve" smooth="yes"/>
      <point x="415" y="616"/>
      <point x="452" y="604"/>
      <point x="479" y="586" type="curve"/>
      <point x="479" y="662" type="line" smooth="yes"/>
      <point x="479" y="711"/>
      <point x="479" y="758"/>
      <point x="476" y="803" type="curve" smooth="yes"/>
      <point x="476" y="804" type="line" smooth="yes"/>
      <point x="476" y="823"/>
      <point x="497" y="841"/>
    </contour>
    <contour>
      <point x="476" y="422" type="line"/>
      <point x="465" y="474"/>
      <point x="436" y="544"/>
      <point x="353" y="544" type="curve" smooth="yes"/>
      <point x="261" y="544"/>
      <point x="189" y="474"/>
      <point x="166" y="357" type="curve" smooth="yes"/>
      <point x="161" y="334"/>
      <point x="159" y="309"/>
      <point x="159" y="285" type="curve" smooth="yes"/>
      <point x="159" y="151"/>
      <point x="232" y="51"/>
      <point x="327" y="51" type="curve" smooth="yes"/>
      <point x="360" y="51"/>
      <point x="403" y="79"/>
      <point x="437" y="151" type="curve" smooth="yes"/>
      <point x="457" y="193"/>
      <point x="470" y="242"/>
      <point x="478" y="285" type="curve" smooth="yes"/>
      <point x="477" y="298"/>
      <point x="476" y="310"/>
      <point x="476" y="324" type="curve" smooth="yes"/>
      <point x="476" y="371" type="line"/>
    </contour>
    <contour>
      <point x="523.831" y="835.006" type="curve" smooth="yes"/>
      <point x="501.406" y="831.212"/>
      <point x="486" y="815.762"/>
      <point x="486" y="804" type="curve" smooth="yes"/>
      <point x="486" y="803.335" type="line"/>
      <point x="488.936" y="758.635"/>
      <point x="489" y="710.787"/>
      <point x="489" y="662" type="curve" smooth="yes"/>
      <point x="489" y="567.315" type="line"/>
      <point x="473.453" y="577.679" type="line" smooth="yes"/>
      <point x="448.284" y="594.459"/>
      <point x="413.332" y="606"/>
      <point x="367" y="606" type="curve" smooth="yes"/>
      <point x="189.173" y="606"/>
      <point x="102.246" y="473.218"/>
      <point x="78.8213" y="355.117" type="curve"/>
      <point x="73.9427" y="328.773"/>
      <point x="71" y="301.222"/>
      <point x="71" y="275" type="curve" smooth="yes"/>
      <point x="71" y="141.285"/>
      <point x="135.891" y="-11"/>
      <point x="313" y="-11" type="curve" smooth="yes"/>
      <point x="421.118" y="-11"/>
      <point x="471.283" y="64.9612"/>
      <point x="502.952" y="132.258" type="curve" smooth="yes"/>
      <point x="513.588" y="154.859" type="line"/>
      <point x="521.487" y="131.162" type="line" smooth="yes"/>
      <point x="523.031" y="126.53"/>
      <point x="522.916" y="124.874"/>
      <point x="523.549" y="122.974" type="curve"/>
      <point x="543.53" y="54.0408"/>
      <point x="572.32" y="3.22785"/>
      <point x="622.425" y="-9.29857" type="curve" smooth="yes"/>
      <point x="626.042" y="-10.2026"/>
      <point x="630.315" y="-11"/>
      <point x="634" y="-11" type="curve" smooth="yes"/>
      <point x="651.859" y="-11"/>
      <point x="669.678" y="-1.10031"/>
      <point x="676.425" y="10.145" type="curve" smooth="yes"/>
      <point x="678.381" y="13.4045"/>
      <point x="679" y="16.3426"/>
      <point x="679" y="20" type="curve" smooth="yes"/>
      <point x="679" y="27.8589"/>
      <point x="673.278" y="35.8053"/>
      <point x="657.702" y="39.2667" type="curve"/>
      <point x="643.054" y="42.9287"/>
      <point x="610.848" y="72.6982"/>
      <point x="590.418" y="141.14" type="curve" smooth="yes"/>
      <point x="576.044" y="190.422"/>
      <point x="566.026" y="255.847"/>
      <point x="564" y="335.873" type="curve"/>
      <point x="564" y="381" type="line" smooth="yes"/>
      <point x="564" y="463.228"/>
      <point x="567" y="568.181"/>
      <point x="567" y="672" type="curve" smooth="yes"/>
      <point x="567" y="720.999"/>
      <point x="566.992" y="769.802"/>
      <point x="564.02" y="816.363" type="curve" smooth="yes"/>
      <point x="563.452" y="826.023"/>
      <point x="553.22" y="836"/>
      <point x="533" y="836" type="curve" smooth="yes"/>
      <point x="531.69" y="836"/>
      <point x="529.441" y="835.324"/>
    </contour>
    <contour>
      <point x="485.783" y="424.07" type="curve" smooth="yes"/>
      <point x="486" y="423.046" type="line"/>
      <point x="486" y="324" type="line" smooth="yes"/>
      <point x="486" y="310.486"/>
      <point x="486.966" y="298.82"/>
      <point x="487.971" y="285.767" type="curve" smooth="yes"/>
      <point x="488.071" y="284.46" type="line"/>
      <point x="487.831" y="283.171" type="line" smooth="yes"/>
      <point x="479.725" y="239.602"/>
      <point x="466.594" y="189.888"/>
      <point x="446.029" y="146.701" type="curve" smooth="yes"/>
      <point x="411.292" y="73.1397"/>
      <point x="365.803" y="41"/>
      <point x="327" y="41" type="curve" smooth="yes"/>
      <point x="223.896" y="41"/>
      <point x="149" y="148.349"/>
      <point x="149" y="285" type="curve" smooth="yes"/>
      <point x="149" y="309.482"/>
      <point x="151.056" y="335.334"/>
      <point x="156.207" y="359.027" type="curve"/>
      <point x="179.76" y="478.837"/>
      <point x="255.023" y="554"/>
      <point x="353" y="554" type="curve" smooth="yes"/>
      <point x="443.499" y="554"/>
      <point x="474.625" y="476.818"/>
    </contour>
  </outline>
</glyph>
<glyph name="g" format="1">
  <advance width="650"/>
  <unicode hex="0067"/>
  <outline>
    <contour>
      <point x="539" y="356" type="curve"/>
      <point x="567" y="247"/>
      <point x="582" y="143"/>
      <point x="582" y="57" type="curve" smooth="yes"/>
      <point x="582" y="16"/>
      <point x="579" y="-22"/>
      <point x="572" y="-57" type="curve" smooth="yes"/>
      <point x="550" y="-169"/>
      <point x="477" y="-266"/>
      <point x="333" y="-266" type="curve" smooth="yes"/>
      <point x="260" y="-266"/>
      <point x="189" y="-238"/>
      <point x="155" y="-190" type="curve" smooth="yes"/>
      <point x="152" y="-186"/>
      <point x="150" y="-181"/>
      <point x="150" y="-176" type="curve" smooth="yes"/>
      <point x="150" y="-163"/>
      <point x="161" y="-148"/>
      <point x="179" y="-140" type="curve" smooth="yes"/>
      <point x="188" y="-136"/>
      <point x="197" y="-134"/>
      <point x="206" y="-134" type="curve" smooth="yes"/>
      <point x="222" y="-134"/>
      <point x="237" y="-140"/>
      <point x="245" y="-150" type="curve" smooth="yes"/>
      <point x="265" y="-178"/>
      <point x="306" y="-194"/>
      <point x="347" y="-194" type="curve" smooth="yes"/>
      <point x="409" y="-194"/>
      <point x="459" y="-163"/>
      <point x="480" y="-57" type="curve" smooth="yes"/>
      <point x="488" y="-18"/>
      <point x="493" y="27"/>
      <point x="493" y="78" type="curve" smooth="yes"/>
      <point x="493" y="106"/>
      <point x="492" y="135"/>
      <point x="488" y="166" type="curve"/>
      <point x="460" y="75"/>
      <point x="407" y="-21"/>
      <point x="283" y="-21" type="curve" smooth="yes"/>
      <point x="117" y="-21"/>
      <point x="60" y="105"/>
      <point x="60" y="232" type="curve" smooth="yes"/>
      <point x="60" y="262"/>
      <point x="63" y="292"/>
      <point x="69" y="320" type="curve" smooth="yes"/>
      <point x="96" y="455"/>
      <point x="195" y="621"/>
      <point x="386" y="621" type="curve" smooth="yes"/>
      <point x="526" y="621"/>
      <point x="539" y="496"/>
      <point x="539" y="472" type="curve" smooth="yes"/>
      <point x="539" y="453"/>
      <point x="517" y="435"/>
      <point x="490" y="432" type="curve" smooth="yes"/>
      <point x="483" y="432" type="line" smooth="yes"/>
      <point x="459" y="432"/>
      <point x="441" y="445"/>
      <point x="441" y="462" type="curve" smooth="yes"/>
      <point x="441" y="488"/>
      <point x="414" y="549"/>
      <point x="372" y="549" type="curve" smooth="yes"/>
      <point x="283" y="549"/>
      <point x="195" y="456"/>
      <point x="167" y="320" type="curve" smooth="yes"/>
      <point x="162" y="294"/>
      <point x="159" y="268"/>
      <point x="159" y="244" type="curve" smooth="yes"/>
      <point x="159" y="131"/>
      <point x="215" y="51"/>
      <point x="297" y="51" type="curve" smooth="yes"/>
      <point x="356" y="51"/>
      <point x="404" y="111"/>
      <point x="427" y="226" type="curve" smooth="yes"/>
      <point x="434" y="263"/>
      <point x="439" y="301"/>
      <point x="441" y="336" type="curve" smooth="yes"/>
      <point x="442" y="355"/>
      <point x="452" y="376"/>
      <point x="477" y="376" type="curve" smooth="yes"/>
      <point x="501" y="376"/>
      <point x="539" y="356"/>
    </contour>
    <contour>
      <point x="530.439" y="349.109" type="curve"/>
      <point x="520.704" y="353.831"/>
      <point x="492.509" y="366"/>
      <point x="477" y="366" type="curve" smooth="yes"/>
      <point x="459.592" y="366"/>
      <point x="451.867" y="352.203"/>
      <point x="450.986" y="335.474" type="curve" smooth="yes"/>
      <point x="448.948" y="299.812"/>
      <point x="443.914" y="261.607"/>
      <point x="436.816" y="224.09" type="curve"/>
      <point x="413.665" y="108.333"/>
      <point x="364.109" y="41"/>
      <point x="297" y="41" type="curve" smooth="yes"/>
      <point x="206.97" y="41"/>
      <point x="149" y="128.567"/>
      <point x="149" y="244" type="curve" smooth="yes"/>
      <point x="149" y="268.88"/>
      <point x="152.069" y="295.313"/>
      <point x="157.192" y="321.953" type="curve"/>
      <point x="185.69" y="460.369"/>
      <point x="275.802" y="559"/>
      <point x="372" y="559" type="curve" smooth="yes"/>
      <point x="423.554" y="559"/>
      <point x="451" y="490.506"/>
      <point x="451" y="462" type="curve" smooth="yes"/>
      <point x="451" y="453.167"/>
      <point x="461.596" y="442"/>
      <point x="483" y="442" type="curve" smooth="yes"/>
      <point x="489.435" y="442" type="line"/>
      <point x="513.18" y="444.998"/>
      <point x="529" y="460.574"/>
      <point x="529" y="472" type="curve" smooth="yes"/>
      <point x="529" y="494.882"/>
      <point x="517.285" y="611"/>
      <point x="386" y="611" type="curve" smooth="yes"/>
      <point x="201.976" y="611"/>
      <point x="105.397" y="450.993"/>
      <point x="78.7924" y="317.972" type="curve"/>
      <point x="72.9229" y="290.581"/>
      <point x="70" y="261.376"/>
      <point x="70" y="232" type="curve" smooth="yes"/>
      <point x="70" y="107.569"/>
      <point x="124.291" y="-11"/>
      <point x="283" y="-11" type="curve" smooth="yes"/>
      <point x="400.261" y="-11"/>
      <point x="450.702" y="78.7837"/>
      <point x="478.442" y="168.941" type="curve" smooth="yes"/>
      <point x="492.013" y="213.045" type="line"/>
      <point x="497.918" y="167.28" type="line" smooth="yes"/>
      <point x="501.992" y="135.703"/>
      <point x="503" y="106.237"/>
      <point x="503" y="78" type="curve" smooth="yes"/>
      <point x="503" y="26.3462"/>
      <point x="497.935" y="-19.3297"/>
      <point x="489.796" y="-59.0094" type="curve" smooth="yes"/>
      <point x="468.188" y="-168.078"/>
      <point x="413.835" y="-204"/>
      <point x="347" y="-204" type="curve" smooth="yes"/>
      <point x="303.967" y="-204"/>
      <point x="260.645" y="-188.319"/>
      <point x="236.995" y="-156.002" type="curve"/>
      <point x="231.687" y="-149.728"/>
      <point x="219.823" y="-144"/>
      <point x="206" y="-144" type="curve" smooth="yes"/>
      <point x="198.495" y="-144"/>
      <point x="190.931" y="-145.641"/>
      <point x="183.061" y="-149.138" type="curve" smooth="yes"/>
      <point x="167.525" y="-156.043"/>
      <point x="160" y="-168.467"/>
      <point x="160" y="-176" type="curve" smooth="yes"/>
      <point x="160" y="-178.389"/>
      <point x="160.991" y="-181.322"/>
      <point x="163.082" y="-184.109" type="curve"/>
      <point x="194.573" y="-228.567"/>
      <point x="262.167" y="-256"/>
      <point x="333" y="-256" type="curve" smooth="yes"/>
      <point x="471.287" y="-256"/>
      <point x="540.776" y="-164.077"/>
      <point x="562.188" y="-55.0725" type="curve" smooth="yes"/>
      <point x="569.036" y="-20.8319"/>
      <point x="572" y="16.4708"/>
      <point x="572" y="57" type="curve" smooth="yes"/>
      <point x="572" y="141.05"/>
      <point x="557.941" y="240.548"/>
    </contour>
  </outline>
</glyph>
<glyph name="h" format="1">
  <advance width="670"/>
  <unicode hex="0068"/>
  <outline>
    <contour>
      <point x="133" y="-14" type="curve" smooth="yes"/>
      <point x="118" y="-14"/>
      <point x="106" y="1"/>
      <point x="106" y="15" type="curve" smooth="yes"/>
      <point x="105" y="304"/>
      <point x="87" y="745"/>
      <point x="67" y="796" type="curve" smooth="yes"/>
      <point x="66" y="799"/>
      <point x="65" y="802"/>
      <point x="65" y="805" type="curve" smooth="yes"/>
      <point x="65" y="821"/>
      <point x="80" y="836"/>
      <point x="102" y="843" type="curve" smooth="yes"/>
      <point x="108" y="845"/>
      <point x="116" y="846"/>
      <point x="122" y="846" type="curve" smooth="yes"/>
      <point x="141" y="846"/>
      <point x="158" y="838"/>
      <point x="163" y="824" type="curve" smooth="yes"/>
      <point x="181" y="779"/>
      <point x="191" y="613"/>
      <point x="197" y="425" type="curve"/>
      <point x="230" y="523"/>
      <point x="292" y="621"/>
      <point x="432" y="621" type="curve" smooth="yes"/>
      <point x="570" y="621"/>
      <point x="589" y="503"/>
      <point x="589" y="370" type="curve" smooth="yes"/>
      <point x="589" y="244"/>
      <point x="592" y="136"/>
      <point x="594" y="31" type="curve" smooth="yes"/>
      <point x="594" y="12"/>
      <point x="573" y="-7"/>
      <point x="546" y="-10" type="curve" smooth="yes"/>
      <point x="538" y="-10" type="line" smooth="yes"/>
      <point x="514" y="-10"/>
      <point x="496" y="2"/>
      <point x="496" y="19" type="curve" smooth="yes"/>
      <point x="494" y="124"/>
      <point x="491" y="234"/>
      <point x="491" y="360" type="curve" smooth="yes"/>
      <point x="491" y="507"/>
      <point x="454" y="549"/>
      <point x="418" y="549" type="curve" smooth="yes"/>
      <point x="333" y="549"/>
      <point x="279" y="461"/>
      <point x="249" y="324" type="curve" smooth="yes"/>
      <point x="211" y="153"/>
      <point x="212" y="106"/>
      <point x="204" y="12" type="curve"/>
      <point x="204" y="12"/>
      <point x="164" y="-14"/>
    </contour>
    <contour>
      <point x="133" y="-4" type="curve" smooth="yes"/>
      <point x="153.807" y="-4"/>
      <point x="182.785" y="10.9901"/>
      <point x="194.459" y="17.8781" type="curve"/>
      <point x="201.885" y="107.147"/>
      <point x="201.853" y="157.938"/>
      <point x="239.238" y="326.169" type="curve" smooth="yes"/>
      <point x="269.217" y="463.074"/>
      <point x="324.522" y="559"/>
      <point x="418" y="559" type="curve" smooth="yes"/>
      <point x="464.392" y="559"/>
      <point x="501" y="506.186"/>
      <point x="501" y="360" type="curve" smooth="yes"/>
      <point x="501" y="234.096"/>
      <point x="503.995" y="124.376"/>
      <point x="506" y="19.0952" type="curve"/>
      <point x="506" y="10.3744"/>
      <point x="516.167" y="0"/>
      <point x="538" y="0" type="curve" smooth="yes"/>
      <point x="545.434" y="3.55965e-15" type="line"/>
      <point x="568.615" y="2.95232"/>
      <point x="584" y="19.1671"/>
      <point x="584" y="30.9048" type="curve"/>
      <point x="582.005" y="135.623"/>
      <point x="579" y="243.901"/>
      <point x="579" y="370" type="curve" smooth="yes"/>
      <point x="579" y="504.019"/>
      <point x="560.39" y="611"/>
      <point x="432" y="611" type="curve" smooth="yes"/>
      <point x="298.078" y="611"/>
      <point x="239.031" y="518.484"/>
      <point x="206.477" y="421.809" type="curve" smooth="yes"/>
      <point x="188.775" y="369.238" type="line"/>
      <point x="187.005" y="424.681" type="line" smooth="yes"/>
      <point x="181.017" y="612.317"/>
      <point x="170.222" y="779.018"/>
      <point x="153.646" y="820.46" type="curve"/>
      <point x="150.657" y="828.828"/>
      <point x="138.917" y="836"/>
      <point x="122" y="836" type="curve" smooth="yes"/>
      <point x="117.027" y="836"/>
      <point x="109.739" y="835.039"/>
      <point x="105.097" y="833.492" type="curve"/>
      <point x="84.9452" y="827.079"/>
      <point x="75" y="814.415"/>
      <point x="75" y="805" type="curve" smooth="yes"/>
      <point x="75" y="803.936"/>
      <point x="75.0727" y="803.45"/>
      <point x="76.3983" y="799.423" type="curve"/>
      <point x="97.8812" y="743.558"/>
      <point x="114.996" y="305.116"/>
      <point x="116" y="15.0346" type="curve" smooth="yes"/>
      <point x="116" y="5.71793"/>
      <point x="124.744" y="-4"/>
    </contour>
  </outline>
</glyph>
